<?xml version="1.0" encoding="utf-8"?>
<!-- Generator: Adobe Illustrator 19.1.0, SVG Export Plug-In . SVG Version: 6.00 Build 0)  -->
<!DOCTYPE svg PUBLIC "-//W3C//DTD SVG 1.1//EN" "http://www.w3.org/Graphics/SVG/1.1/DTD/svg11.dtd">
<svg version="1.1" id="Layer_1" xmlns="http://www.w3.org/2000/svg" xmlns:xlink="http://www.w3.org/1999/xlink" x="0px" y="0px"
	 width="40px" height="40px" viewBox="-279 281 40 40" style="enable-background:new -279 281 40 40;" xml:space="preserve">
<style type="text/css">
	.st0{fill:none;}
	.st1{enable-background:new    ;}
	.st2{fill:#8E99A8;}
	.st3{fill:#24A9E6;}
	.st4{fill:#FFFFFF;}
	.st5{fill:#1CB1E6;}
	.st6{fill:#2A5B83;}
	.st7{fill:#187FB8;}
	.st8{fill:#1A70F9;}
	.st9{fill:#E64C87;}
	.st10{fill:#43619C;}
	.st11{fill:#F24033;}
</style>
<g id="SIGNATURE">
	<rect x="51.1" y="1301.4" class="st0" width="459.6" height="82.7"/>
	<text transform="matrix(1 0 0 1 51.142 1320.5969)" class="st2" style="font-family:'MyriadPro-Regular'; font-size:27px;">CHRISTOPHE KEREBEL</text>
	<rect x="650.2" y="1302.2" class="st0" width="384.4" height="82.7"/>
	<text transform="matrix(1 0 0 1 776.2455 1321.3501)" class="st2" style="font-family:'MyriadPro-Regular'; font-size:27px;">My Twitter </text>
	<text transform="matrix(1 0 0 1 901.9454 1321.3501)" class="st3" style="font-family:'MyriadPro-Regular'; font-size:27px;">: @chriskere</text>
</g>
<g id="BACKGROUND">
	<rect x="-146.3" y="900.5" class="st2" width="1372.9" height="332"/>
</g>
<g id="_x30_6-SINGLE-WHITE">
	<path id="Vimeo_3_" class="st4" d="M1004.1,1080.5c-5.1-0.2-8.5,2.7-10.4,8.5c0.9-0.4,1.8-0.6,2.7-0.6c1.9,0,2.7,1,2.5,3.1
		c-0.1,1.3-0.9,3.1-2.5,5.5c-1.5,2.4-2.7,3.6-3.5,3.6c-1,0-1.9-1.8-2.7-5.5c-0.3-1.1-0.8-3.8-1.5-8.3c-0.7-4.1-2.4-6-5.3-5.8
		c-1.2,0.1-3,1.2-5.4,3.3c-1.8,1.6-3.5,3.1-5.3,4.7l1.7,2.2c1.6-1.1,2.6-1.7,2.9-1.7c1.3,0,2.4,2,3.5,5.9c1,3.6,2,7.2,3,10.7
		c1.5,3.9,3.3,5.8,5.4,5.8c3.5,0,7.7-3.2,12.7-9.6c4.8-6.1,7.3-10.9,7.5-14.5C1009.7,1083,1007.9,1080.6,1004.1,1080.5z"/>
	<path id="Instagram_3_" class="st4" d="M876.1,1077.6h-27.9c-2.4,0-4.4,1.9-4.4,4.3v28c0,2.4,2,4.3,4.4,4.3h27.9
		c2.4,0,4.4-1.9,4.4-4.3v-28C880.4,1079.5,878.5,1077.6,876.1,1077.6z M870.1,1083.3c0-0.6,0.5-1.1,1.1-1.1h3.4
		c0.6,0,1.1,0.5,1.1,1.1v3.4c0,0.6-0.5,1.1-1.1,1.1h-3.4c-0.6,0-1.1-0.5-1.1-1.1V1083.3z M862.1,1088.9c3.9,0,7.1,3.1,7.1,7
		s-3.2,7-7.1,7s-7-3.1-7-7C855.1,1092.1,858.2,1088.9,862.1,1088.9z M877,1109.7c0,0.6-0.5,1.1-1.1,1.1h-27.5
		c-0.6,0-1.1-0.5-1.1-1.1v-17.2h4.6c-0.6,0.9-0.8,2.5-0.8,3.5c0,6.1,5,11.1,11.2,11.1s11.2-5,11.2-11.1c0-1-0.1-2.6-0.9-3.5h4.6
		v17.2H877z"/>
	<path id="Twitter_3_" class="st4" d="M751.4,1080.8c-1.5,0.9-3.1,1.6-4.9,1.9c-1.4-1.5-3.4-2.5-5.6-2.5c-4.2,0-7.7,3.5-7.7,7.9
		c0,0.6,0.1,1.2,0.2,1.8c-6.4-0.3-12-3.5-15.8-8.2c-0.7,1.2-1,2.5-1,4c0,2.7,1.4,5.1,3.4,6.6c-1.3,0-2.4-0.4-3.5-1v0.1
		c0,3.8,2.6,7,6.2,7.7c-0.6,0.2-1.3,0.3-2,0.3c-0.5,0-1,0-1.4-0.1c1,3.1,3.8,5.4,7.2,5.5c-2.6,2.1-5.9,3.4-9.5,3.4
		c-0.6,0-1.2,0-1.8-0.1c3.4,2.2,7.4,3.5,11.8,3.5c14.1,0,21.9-12,21.9-22.4c0-0.3,0-0.7,0-1c1.5-1.1,2.8-2.5,3.8-4.1
		c-1.4,0.6-2.9,1.1-4.4,1.2C749.6,1084.1,750.8,1082.6,751.4,1080.8z"/>
	<g id="LinkedIn_3_">
		<rect x="588.3" y="1090.3" class="st4" width="7.2" height="22.8"/>
		<path class="st4" d="M615.1,1090c-4.1,0-6.7,2.2-7.2,3.8v-3.6h-8.1c0.1,1.9,0,22.8,0,22.8h8.1v-12.3c0-0.7,0-1.4,0.2-1.9
			c0.6-1.4,1.7-2.8,3.9-2.8c2.8,0,4.1,2.1,4.1,5.2v11.8h8.2v-12.6C624.2,1093.3,620.2,1090,615.1,1090z"/>
		<path class="st4" d="M591.7,1079.5c-2.7,0-4.4,1.7-4.4,4c0,2.2,1.7,3.9,4.3,3.9h0.1c2.7,0,4.4-1.7,4.4-4
			C596,1081.2,594.4,1079.5,591.7,1079.5z"/>
	</g>
	<g id="Behance_3_">
		<path class="st4" d="M473.4,1095c0.8-0.4,1.3-0.8,1.7-1.3c0.7-0.8,1-1.9,1-3.3c0-1.3-0.3-2.5-1-3.4c-1.2-1.5-3.1-2.3-5.9-2.4
			h-10.9v22.3h10.2c1.2,0,2.2-0.1,3.2-0.3s1.8-0.6,2.6-1.1c0.6-0.5,1.2-1.1,1.6-1.8c0.7-1,1-2.2,1-3.6c0-1.3-0.3-2.4-0.9-3.3
			C475.4,1096.1,474.6,1095.4,473.4,1095z M462.9,1088.5h4.9c1.1,0,2,0.1,2.7,0.3c0.8,0.3,1.2,1,1.2,2.1c0,0.9-0.3,1.6-0.9,2
			c-0.6,0.4-1.4,0.6-2.4,0.6h-5.5V1088.5z M470.7,1102.7c-0.5,0.3-1.3,0.4-2.3,0.4h-5.5v-6h5.6c1,0,1.7,0.1,2.3,0.4
			c1,0.4,1.4,1.2,1.4,2.4C472.1,1101.3,471.6,1102.2,470.7,1102.7z"/>
		<rect x="481.8" y="1085.7" class="st4" width="9.7" height="2.8"/>
		<path class="st4" d="M493.5,1093.2c-0.8-1.1-1.7-1.9-2.9-2.4s-2.5-0.8-3.9-0.8c-2.5,0-4.4,0.8-6,2.3c-1.5,1.5-2.3,3.7-2.3,6.6
			c0,3.1,0.8,5.3,2.6,6.6c1.7,1.4,3.7,2,5.9,2c2.7,0,4.8-0.8,6.3-2.4c1-1,1.5-2,1.6-3h-4.5c-0.3,0.5-0.6,0.9-0.9,1.1
			c-0.6,0.5-1.4,0.8-2.4,0.8c-0.9,0-1.7-0.2-2.4-0.6c-1.1-0.7-1.7-1.8-1.8-3.5H495c0-1.4,0-2.5-0.1-3.3
			C494.6,1095.3,494.2,1094.2,493.5,1093.2z M482.9,1097.1c0.2-1.1,0.5-1.9,1.2-2.6c0.6-0.6,1.5-0.9,2.6-0.9c1,0,1.9,0.3,2.6,0.9
			c0.7,0.6,1.1,1.5,1.2,2.6H482.9z"/>
	</g>
	<path id="Dribbble_3_" class="st4" d="M365,1088.8c-0.5-1.1-1-2.1-1.7-3.1s-1.4-1.9-2.2-2.7s-1.7-1.6-2.7-2.2c-1-0.7-2-1.2-3.1-1.7
		s-2.3-0.8-3.4-1.1c-1.2-0.2-2.4-0.4-3.7-0.4c-1.2,0-2.5,0.1-3.7,0.4c-1.2,0.2-2.3,0.6-3.4,1.1c-1.1,0.5-2.1,1-3.1,1.7
		c-1,0.7-1.9,1.4-2.7,2.2s-1.6,1.7-2.2,2.7c-0.7,1-1.2,2-1.7,3.1c-0.5,1.1-0.8,2.3-1.1,3.4c-0.2,1.2-0.4,2.4-0.4,3.7
		c0,1.2,0.1,2.5,0.4,3.7c0.2,1.2,0.6,2.3,1.1,3.4c0.5,1.1,1,2.1,1.7,3.1s1.4,1.9,2.2,2.7s1.7,1.6,2.7,2.2c1,0.7,2,1.2,3.1,1.7
		s2.3,0.8,3.4,1.1c1.2,0.3,2.4,0.4,3.7,0.4c1.2,0,2.5-0.1,3.7-0.4c1.2-0.2,2.3-0.6,3.4-1.1c1.1-0.5,2.1-1,3.1-1.7
		c1-0.7,1.9-1.4,2.7-2.2s1.6-1.7,2.2-2.7c0.7-1,1.2-2,1.7-3.1c0.5-1.1,0.8-2.3,1.1-3.4c0.2-1.2,0.4-2.4,0.4-3.7
		c0-1.2-0.1-2.5-0.4-3.7C365.8,1091,365.5,1089.9,365,1088.8z M348.1,1080.2c4,0,7.6,1.5,10.3,3.9c0,0.1-2.3,3.5-8.2,5.7
		c-2.7-4.9-5.6-8.8-5.9-9.1C345.6,1080.4,346.9,1080.2,348.1,1080.2z M344.4,1080.7L344.4,1080.7L344.4,1080.7
		C344.3,1080.7,344.4,1080.7,344.4,1080.7z M341.4,1081.7c0.2,0.3,3.1,4.2,5.8,9c-7.5,2-14,1.9-14.5,1.9
		C333.8,1087.8,337.1,1083.8,341.4,1081.7z M336.5,1106.4c-2.5-2.8-4-6.4-4-10.5c0-0.2,0-0.3,0-0.5c0.3,0,8,0.2,16.1-2.2
		c0.4,0.9,0.9,1.8,1.3,2.7c-0.2,0.1-0.4,0.1-0.6,0.2C340.8,1098.8,336.5,1106.4,336.5,1106.4L336.5,1106.4z M348.1,1111.6
		c-3.7,0-7.1-1.3-9.8-3.4c-0.1,0-0.1-0.1-0.2-0.2c0.1,0.1,0.1,0.1,0.2,0.2c0.1,0.1,0.2,0.1,0.2,0.1s3-6.5,12.3-9.8h0.1
		c2.2,5.7,3.1,10.5,3.3,11.9C352.4,1111.1,350.3,1111.6,348.1,1111.6z M356.9,1108.9c-0.2-0.9-1-5.5-3-11.2c5.1-0.8,9.4,0.6,9.8,0.7
		C362.9,1102.8,360.4,1106.5,356.9,1108.9z M352.9,1095.2c-0.1-0.3-0.2-0.5-0.3-0.8c-0.3-0.8-0.7-1.5-1-2.3c6.2-2.5,8.7-6.2,8.7-6.2
		c2.2,2.7,3.5,6.1,3.6,9.8C363.6,1095.7,358.3,1094.6,352.9,1095.2z"/>
	<path id="Facebook_2_" class="st4" d="M237.7,1112.7c0,1.1-0.9,2-2,2h-9.4v-14.2h4.8l0.7-5.5h-5.5v-3.5c0-1.6,0.4-2.7,2.7-2.7h2.9
		v-5c-0.5-0.1-2.2-0.2-4.3-0.2c-4.2,0-7.1,2.6-7.1,7.3v4.1h-4.8v5.5h4.8v14.2h-17.6c-1.1,0-2-0.9-2-2V1080c0-1.1,0.9-2,2-2h32.7
		c1.1,0,2,0.9,2,2L237.7,1112.7L237.7,1112.7z"/>
	<g id="Google_x2B__2_">
		<path class="st4" d="M82.4,1093.5v5.1c0,0,4.9,0,6.9,0c-1.1,3.3-2.8,5.1-6.9,5.1c-4.2,0-7.5-3.4-7.5-7.6c0-4.2,3.3-7.6,7.5-7.6
			c2.2,0,3.7,0.8,5,1.9c1.1-1.1,1-1.2,3.6-3.7c-2.3-2.1-5.3-3.3-8.6-3.3c-7.1,0-12.8,5.7-12.8,12.8c0,7.1,5.7,12.8,12.8,12.8
			c10.6,0,13.2-9.2,12.3-15.4L82.4,1093.5L82.4,1093.5z"/>
		<polygon class="st4" points="105.5,1093.7 105.5,1089.3 102.4,1089.3 102.4,1093.7 97.8,1093.7 97.8,1096.9 102.4,1096.9 
			102.4,1101.5 105.5,1101.5 105.5,1096.9 110,1096.9 110,1093.7 		"/>
	</g>
</g>
<g id="Vimeo_5_">
	<path class="st4" d="M991.1,929.2c-21,0-38,17-38,38s17,38,38,38s38-17,38-38S1012.1,929.2,991.1,929.2z M1002,973.4
		c-5,6.4-9.2,9.6-12.7,9.6c-2.1,0-3.9-1.9-5.4-5.9c-1-3.6-2-7.2-3-10.7c-1.1-3.9-2.3-5.9-3.5-5.9c-0.3,0-1.2,0.6-2.9,1.7l-1.7-2.2
		c1.8-1.6,3.6-3.1,5.3-4.7c2.4-2.1,4.2-3.1,5.4-3.3c2.9-0.3,4.6,1.7,5.3,5.8c0.7,4.4,1.2,7.2,1.5,8.3c0.8,3.7,1.7,5.5,2.7,5.5
		c0.8,0,1.9-1.2,3.5-3.6c1.5-2.4,2.3-4.2,2.5-5.5c0.2-2.1-0.6-3.1-2.5-3.1c-0.9,0-1.8,0.2-2.7,0.6c1.8-5.8,5.3-8.6,10.4-8.5
		c3.8,0.1,5.6,2.5,5.3,7.2C1009.3,962.4,1006.8,967.3,1002,973.4z"/>
</g>
<g id="Instagram_5_">
	<path class="st4" d="M855.1,967.1c0-3.9,3.2-7,7-7c3.9,0,7.1,3.1,7.1,7s-3.2,7-7.1,7C858.2,974.2,855.1,971,855.1,967.1z"/>
	<path class="st4" d="M875.6,957.9c0,0.6-0.5,1.2-1.1,1.2h-3.7c-0.6,0-1.2-0.5-1.2-1.2v-3.7c0-0.6,0.5-1.2,1.2-1.2h3.7
		c0.6,0,1.1,0.5,1.1,1.2V957.9z"/>
	<path class="st4" d="M872.4,964.1h4.2v16.7c0,0.6-0.1,1.3-0.8,1.3h-27.5c-0.6,0-0.7-0.6-0.7-1.3v-16.7h4.2c-0.6,0-0.8,2.2-0.8,3.3
		c0,6.1,5,11,11.2,11s11.2-4.8,11.2-11C873.3,966.4,873.1,964.1,872.4,964.1z"/>
	<path class="st4" d="M861.1,929.2c-21,0-38,17-38,38s17,38,38,38s38-17,38-38S882.1,929.2,861.1,929.2z M880.6,981.1
		c0,2.4-2.1,4-4.5,4h-28c-2.4,0-4.5-1.6-4.5-4v-28c0-2.4,2.1-4,4.5-4h28c2.4,0,4.5,1.6,4.5,4V981.1z"/>
</g>
<g id="Twitter_5_">
	<path class="st4" d="M734.1,929.2c-21,0-38,17-38,38s17,38,38,38s38-17,38-38S755.1,929.2,734.1,929.2z M748.6,959.1
		c0,0.3,0,0.7,0,1c0,10.4-7.7,22.4-21.9,22.4c-4.3,0-8.4-1.3-11.8-3.5c0.6,0.1,1.2,0.1,1.8,0.1c3.6,0,6.9-1.3,9.5-3.4
		c-3.4-0.1-6.2-2.3-7.2-5.5c0.5,0.1,1,0.1,1.4,0.1c0.7,0,1.5-0.1,2.1-0.3c-3.5-0.7-6.1-3.9-6.1-7.7v0.1c1,0.6,2.1,0.9,3.4,1
		c-2.1-1.4-3.5-3.8-3.5-6.6c0-1.4,0.4-2.8,1-4c3.8,4.8,9.4,7.9,15.8,8.2c-0.1-0.6-0.2-1.2-0.2-1.8c0-4.3,3.4-7.9,7.7-7.9
		c2.2,0,4.2,1,5.6,2.5c1.8-0.4,3.4-1,4.9-1.9c-0.6,1.8-1.8,3.4-3.4,4.4c1.6-0.2,3-0.6,4.4-1.2C751.4,956.6,750.1,958,748.6,959.1z"
		/>
</g>
<g id="LinKeDin">
	<path class="st4" d="M605.1,929.2c-21,0-38,17-38,38s17,38,38,38s38-17,38-38S626.1,929.2,605.1,929.2z M595.6,984.1h-7v-23h7
		V984.1z M591.7,959.1L591.7,959.1c-2.7,0-4.3-2-4.3-4.2s1.7-4.1,4.4-4.1c2.6,0,4.3,1.9,4.3,4.1
		C596.1,957.2,594.4,959.1,591.7,959.1z M624.6,984.1h-9v-11.7c0-3.1-1-5.2-3.8-5.2c-2.1,0-3.4,1.4-3.9,2.8
		c-0.2,0.5-0.2,1.2-0.2,1.9v12.2H600c0,0,0.1-21,0-23h7.7v3.9c1-1.6,3.4-3.8,7.5-3.8c5.1,0,9.5,3.3,9.5,10.3L624.6,984.1
		L624.6,984.1z"/>
</g>
<g id="Behance_5_">
	<path class="st4" d="M468.4,965.1h-5.8v-5h5.2c1.1,0,2-0.1,2.7,0.2c0.8,0.3,1.2,0.9,1.2,2c0,0.9-0.3,1.8-0.9,2.1
		C470.1,964.7,469.3,965.1,468.4,965.1z"/>
	<path class="st4" d="M472.1,971.1c0,1.4-0.5,2.2-1.5,2.7c-0.5,0.3-1.3,0.3-2.3,0.3h-5.8v-6h5.8c1,0,1.7,0.2,2.3,0.5
		C471.7,969,472.1,969.9,472.1,971.1z"/>
	<path class="st4" d="M476.1,929.2c-21,0-38,17-38,38s17,38,38,38s38-17,38-38S497.1,929.2,476.1,929.2z M481.6,957.1h10v3h-10
		V957.1z M475.9,975c-0.4,0.7-1,1.3-1.6,1.8c-0.7,0.5-1.6,0.9-2.6,1.1c-1,0.2-2,0.3-3.2,0.3h-10v-22h10.7c2.8,0,4.7,0.7,5.9,2.2
		c0.7,1,1,2,1,3.3c0,1.4-0.3,2.4-1,3.2c-0.4,0.5-1,0.9-1.7,1.3c1.1,0.4,2,1.1,2.6,2s0.9,2,0.9,3.3
		C476.9,972.7,476.6,973.9,475.9,975z M495,971.1h-12.2c0.1,2,0.7,2.8,1.8,3.5c0.7,0.4,1.5,0.6,2.4,0.6c1,0,1.8-0.3,2.4-0.8
		c0.3-0.3,0.6-0.2,0.9-1.2h4.5c-0.1,1-0.7,2.1-1.6,3.1c-1.5,1.6-3.6,2.5-6.3,2.5c-2.2,0-4.2-0.7-5.9-2c-1.7-1.4-2.6-3.6-2.6-6.6
		c0-2.9,0.8-5,2.3-6.6c1.5-1.5,3.5-2.3,6-2.3c1.5,0,2.8,0.3,3.9,0.8c1.2,0.5,2.1,1.3,2.9,2.5c0.7,1,1.1,2.1,1.3,3.4
		C495,968.6,495,970.1,495,971.1z M486.7,964.7c-1.1,0-2,0.3-2.6,0.9c-0.6,0.6-1,1.5-1.2,2.5h7.6c-0.1-1-0.5-2-1.2-2.5
		C488.6,965,487.7,964.7,486.7,964.7z"/>
</g>
<g id="Dribbble_5_">
	<path class="st4" d="M332.8,963.9c1-4.8,4.3-8.9,8.6-10.9c0.2,0.3,3.1,4.2,5.8,9C339.7,963.9,333.2,963.9,332.8,963.9z"/>
	<path class="st4" d="M336.5,977.5c-2.5-2.8-4-6.4-4-10.5c0-0.2,0-0.3,0-0.5c0.3,0,8,0.2,16.1-2.2c0.4,0.9,0.9,1.8,1.3,2.7
		c-0.2,0.1-0.4,0.1-0.6,0.2C340.8,969.9,336.5,977.5,336.5,977.5z"/>
	<path class="st4" d="M350.9,969.6c2.2,5.7,3.1,10.5,3.3,11.9c-1.9,0.8-3.9,1.2-6.1,1.2c-3.6,0-7-1.2-9.6-3.3
		C338.5,979.4,341.5,972.9,350.9,969.6C350.8,969.6,350.9,969.6,350.9,969.6z"/>
	<path class="st4" d="M350.3,961c-2.7-4.9-5.6-8.8-5.8-9.1c1.2-0.3,2.4-0.5,3.7-0.5c4,0,7.6,1.5,10.3,3.9
		C358.4,955.4,356.2,958.8,350.3,961z"/>
	<path class="st4" d="M363.6,969.6c-0.7,4.4-3.2,8.1-6.7,10.5c-0.2-0.9-1-5.5-3.1-11.2C358.9,968.1,363.3,969.5,363.6,969.6z"/>
	<path class="st4" d="M360.2,957.1c2.2,2.7,3.5,6.1,3.6,9.8c-0.2,0-5.5-1.2-10.9-0.5c-0.1-0.3-0.2-0.5-0.3-0.8
		c-0.3-0.8-0.7-1.5-1-2.3C357.7,960.8,360.2,957.2,360.2,957.1z"/>
	<path class="st4" d="M348.1,929.2c-21,0-38,17-38,38s17,38,38,38s38-17,38-38S369.1,929.2,348.1,929.2z M366.1,970.8
		c-0.2,1.2-0.6,2.3-1.1,3.4c-0.5,1.1-1,2.1-1.7,3.1c-0.6,1-1.4,1.9-2.2,2.7s-1.7,1.6-2.7,2.2c-1,0.7-2,1.2-3.1,1.7s-2.3,0.8-3.5,1.1
		c-1.2,0.2-2.4,0.4-3.7,0.4c-1.2,0-2.5-0.1-3.7-0.4c-1.2-0.2-2.3-0.6-3.4-1.1c-1.1-0.5-2.1-1-3.1-1.7s-1.9-1.4-2.7-2.2
		s-1.6-1.7-2.2-2.7c-0.7-1-1.2-2-1.7-3.1s-0.8-2.3-1.1-3.4c-0.2-1.2-0.4-2.5-0.4-3.7s0.1-2.5,0.4-3.7c0.2-1.2,0.6-2.3,1.1-3.4
		c0.5-1.1,1-2.1,1.7-3.1s1.4-1.9,2.2-2.7s1.7-1.6,2.7-2.2c1-0.7,2-1.2,3.1-1.7s2.3-0.8,3.4-1.1c1.2-0.2,2.5-0.4,3.7-0.4
		s2.5,0.1,3.7,0.4c1.2,0.2,2.3,0.6,3.5,1.1c1.1,0.5,2.1,1,3.1,1.7s1.9,1.4,2.7,2.2s1.6,1.7,2.2,2.7c0.7,1,1.2,2,1.7,3.1
		s0.8,2.3,1.1,3.4c0.2,1.2,0.4,2.5,0.4,3.7S366.3,969.6,366.1,970.8z"/>
</g>
<g id="Facebook_4_">
	<path class="st4" d="M219.1,927.8c-21,0-38,17-38,38s17,38,38,38c21,0,38-17,38-38S240.1,927.8,219.1,927.8z M237.6,981.8
		c0,1.1-0.5,2.3-1.7,2.3h-9.3v-14h4.8l0.7-6h-5.5v-3.6c0-1.6,0.4-2.4,2.7-2.4h3.3v-5.2c-1-0.1-2.6-0.2-4.6-0.2
		c-4.2,0-7.4,2.6-7.4,7.3v4.1h-5v6h5v14h-17.3c-1.1,0-1.7-1.2-1.7-2.3v-32.7c0-1.1,0.6-2,1.7-2H236c1.1,0,1.7,0.9,1.7,2v32.7
		L237.6,981.8L237.6,981.8z"/>
</g>
<g id="Google_x2B__3_">
	<path class="st4" d="M89.8,927.9c-21,0-38,17-38,38s17,38,38,38s38-17,38-38S110.8,927.9,89.8,927.9z M82.4,979.2
		c-7.1,0-12.8-5.9-12.8-13s5.7-12.9,12.8-12.9c3.3,0,6.4,1.2,8.6,3.3c-2.7,2.5-2.6,2.7-3.6,3.7c-1.3-1.1-2.8-1.9-5-1.9
		c-4.2,0-7.5,3.4-7.5,7.6c0,4.2,3.3,7.9,7.5,7.9s5.8-1.8,6.9-4.8c-2,0-6.8,0-6.8,0v-5h12.2C95.6,970.1,93,979.2,82.4,979.2z
		 M109.6,967.1h-4v5h-3v-5h-5v-3h5v-4h3v4h4V967.1z"/>
</g>
<g id="_x30_4-FULL-COLOR">
	<g id="Vimeo_6_">
		<circle class="st5" cx="991.1" cy="835.2" r="38"/>
		<g id="Vimeo_2_">
			<path class="st4" d="M1004.1,819.7c-5.1-0.2-8.5,2.7-10.4,8.5c0.9-0.4,1.8-0.6,2.7-0.6c1.9,0,2.7,1,2.5,3.1
				c-0.1,1.3-0.9,3.1-2.5,5.5c-1.5,2.4-2.7,3.6-3.5,3.6c-1,0-1.9-1.8-2.7-5.5c-0.3-1.1-0.8-3.8-1.5-8.3c-0.7-4.1-2.4-6-5.3-5.8
				c-1.2,0.1-3,1.2-5.4,3.3c-1.8,1.6-3.5,3.1-5.3,4.7l1.7,2.2c1.6-1.1,2.6-1.7,2.9-1.7c1.3,0,2.4,2,3.5,5.9c1,3.6,2,7.2,3,10.7
				c1.5,3.9,3.3,5.8,5.4,5.8c3.5,0,7.7-3.2,12.7-9.6c4.8-6.1,7.3-10.9,7.5-14.5C1009.7,822.2,1007.9,819.8,1004.1,819.7z"/>
		</g>
	</g>
	<g id="Instagram_6_">
		<circle class="st6" cx="861.1" cy="835.2" r="38"/>
		<path id="Instagram_2_" class="st4" d="M876.1,816.8h-27.9c-2.4,0-4.4,1.9-4.4,4.3v28c0,2.4,2,4.3,4.4,4.3h27.9
			c2.4,0,4.4-1.9,4.4-4.3v-28C880.4,818.7,878.5,816.8,876.1,816.8z M870.1,822.5c0-0.6,0.5-1.1,1.1-1.1h3.4c0.6,0,1.1,0.5,1.1,1.1
			v3.4c0,0.6-0.5,1.1-1.1,1.1h-3.4c-0.6,0-1.1-0.5-1.1-1.1V822.5z M862.1,828.1c3.9,0,7.1,3.1,7.1,7s-3.2,7-7.1,7s-7-3.1-7-7
			C855.1,831.3,858.2,828.1,862.1,828.1z M877,848.8c0,0.6-0.5,1.1-1.1,1.1h-27.5c-0.6,0-1.1-0.5-1.1-1.1v-17.2h4.6
			c-0.6,0.9-0.8,2.5-0.8,3.5c0,6.1,5,11.1,11.2,11.1s11.2-5,11.2-11.1c0-1-0.1-2.6-0.9-3.5h4.6v17.2H877z"/>
	</g>
	<g id="Twitter_6_">
		<circle class="st3" cx="734.1" cy="835.2" r="38"/>
		<path id="Twitter_2_" class="st4" d="M751.4,820c-1.5,0.9-3.1,1.6-4.9,1.9c-1.4-1.5-3.4-2.5-5.6-2.5c-4.2,0-7.7,3.5-7.7,7.9
			c0,0.6,0.1,1.2,0.2,1.8c-6.4-0.3-12-3.5-15.8-8.2c-0.7,1.2-1,2.5-1,4c0,2.7,1.4,5.1,3.4,6.6c-1.3,0-2.4-0.4-3.5-1v0.1
			c0,3.8,2.6,7,6.2,7.7c-0.6,0.2-1.3,0.3-2,0.3c-0.5,0-1,0-1.4-0.1c1,3.1,3.8,5.4,7.2,5.5c-2.6,2.1-5.9,3.4-9.5,3.4
			c-0.6,0-1.2,0-1.8-0.1c3.4,2.2,7.4,3.5,11.8,3.5c14.1,0,21.9-12,21.9-22.4c0-0.3,0-0.7,0-1c1.5-1.1,2.8-2.5,3.8-4.1
			c-1.4,0.6-2.9,1.1-4.4,1.2C749.6,823.3,750.8,821.8,751.4,820z"/>
	</g>
	<g id="LinKeDin_1_">
		<circle class="st7" cx="605.1" cy="835.2" r="38"/>
		<g id="LinkedIn_2_">
			<rect x="588.3" y="829.5" class="st4" width="7.2" height="22.8"/>
			<path class="st4" d="M615.1,829.2c-4.1,0-6.7,2.2-7.2,3.8v-3.6h-8.1c0.1,1.9,0,22.8,0,22.8h8.1v-12.3c0-0.7,0-1.4,0.2-1.9
				c0.6-1.4,1.7-2.8,3.9-2.8c2.8,0,4.1,2.1,4.1,5.2v11.8h8.2v-12.7C624.2,832.5,620.2,829.2,615.1,829.2z"/>
			<path class="st4" d="M591.7,818.7c-2.7,0-4.4,1.7-4.4,4c0,2.2,1.7,3.9,4.3,3.9h0.1c2.7,0,4.4-1.7,4.4-4
				C596,820.4,594.4,818.7,591.7,818.7z"/>
		</g>
	</g>
	<g id="Behance_6_">
		<circle class="st8" cx="476.1" cy="835.2" r="38"/>
		<g id="Behance_2_">
			<path class="st4" d="M473.4,834.2c0.8-0.4,1.3-0.8,1.7-1.3c0.7-0.8,1-1.9,1-3.3c0-1.3-0.3-2.5-1-3.4c-1.2-1.5-3.1-2.3-5.9-2.4
				h-10.9v22.3h10.2c1.2,0,2.2-0.1,3.2-0.3s1.8-0.6,2.6-1.1c0.6-0.5,1.2-1.1,1.6-1.8c0.7-1,1-2.2,1-3.6c0-1.3-0.3-2.4-0.9-3.3
				C475.4,835.2,474.6,834.6,473.4,834.2z M462.9,827.7h4.9c1.1,0,2,0.1,2.7,0.3c0.8,0.3,1.2,1,1.2,2.1c0,0.9-0.3,1.6-0.9,2
				c-0.6,0.4-1.4,0.6-2.4,0.6h-5.5V827.7z M470.7,841.9c-0.5,0.3-1.3,0.4-2.3,0.4h-5.5v-6h5.6c1,0,1.7,0.1,2.3,0.4
				c1,0.4,1.4,1.2,1.4,2.4C472.1,840.5,471.6,841.4,470.7,841.9z"/>
			<rect x="481.8" y="824.9" class="st4" width="9.7" height="2.8"/>
			<path class="st4" d="M493.5,832.4c-0.8-1.1-1.7-1.9-2.9-2.4s-2.5-0.8-3.9-0.8c-2.5,0-4.4,0.8-6,2.3c-1.5,1.5-2.3,3.7-2.3,6.6
				c0,3.1,0.8,5.3,2.6,6.6c1.7,1.4,3.7,2,5.9,2c2.7,0,4.8-0.8,6.3-2.4c1-1,1.5-2,1.6-3h-4.5c-0.3,0.5-0.6,0.9-0.9,1.1
				c-0.6,0.5-1.4,0.8-2.4,0.8c-0.9,0-1.7-0.2-2.4-0.6c-1.1-0.7-1.7-1.8-1.8-3.5H495c0-1.4,0-2.5-0.1-3.3
				C494.6,834.5,494.2,833.4,493.5,832.4z M482.9,836.3c0.2-1.1,0.5-1.9,1.2-2.6c0.6-0.6,1.5-0.9,2.6-0.9c1,0,1.9,0.3,2.6,0.9
				c0.7,0.6,1.1,1.5,1.2,2.6H482.9z"/>
		</g>
	</g>
	<g id="Dribbble_6_">
		<circle class="st9" cx="348.1" cy="835.2" r="38"/>
		<g>
			<path id="Dribbble_2_" class="st4" d="M365,828c-0.5-1.1-1-2.1-1.7-3.1s-1.4-1.9-2.2-2.7s-1.7-1.6-2.7-2.2c-1-0.7-2-1.2-3.1-1.7
				s-2.3-0.8-3.4-1.1c-1.2-0.2-2.4-0.4-3.7-0.4c-1.2,0-2.5,0.1-3.7,0.4c-1.2,0.2-2.3,0.6-3.4,1.1c-1.1,0.5-2.1,1-3.1,1.7
				s-1.9,1.4-2.7,2.2s-1.6,1.7-2.2,2.7c-0.7,1-1.2,2-1.7,3.1s-0.8,2.3-1.1,3.4c-0.2,1.2-0.4,2.4-0.4,3.7c0,1.2,0.1,2.5,0.4,3.7
				c0.2,1.2,0.6,2.3,1.1,3.4s1,2.1,1.7,3.1s1.4,1.9,2.2,2.7s1.7,1.6,2.7,2.2c1,0.7,2,1.2,3.1,1.7s2.3,0.8,3.4,1.1
				c1.2,0.3,2.4,0.4,3.7,0.4c1.2,0,2.5-0.1,3.7-0.4c1.2-0.2,2.3-0.6,3.4-1.1c1.1-0.5,2.1-1,3.1-1.7s1.9-1.4,2.7-2.2s1.6-1.7,2.2-2.7
				c0.7-1,1.2-2,1.7-3.1s0.8-2.3,1.1-3.4c0.2-1.2,0.4-2.4,0.4-3.7c0-1.2-0.1-2.5-0.4-3.7C365.8,830.2,365.5,829.1,365,828z
				 M348.1,819.4c4,0,7.6,1.5,10.3,3.9c0,0.1-2.3,3.5-8.2,5.7c-2.7-4.9-5.6-8.8-5.9-9.1C345.6,819.6,346.9,819.4,348.1,819.4z
				 M344.4,819.9L344.4,819.9L344.4,819.9C344.3,819.9,344.4,819.9,344.4,819.9z M341.4,820.9c0.2,0.3,3.1,4.2,5.8,9
				c-7.5,2-14,1.9-14.5,1.9C333.8,827,337.1,823,341.4,820.9z M336.5,845.6c-2.5-2.8-4-6.4-4-10.5c0-0.2,0-0.3,0-0.5
				c0.3,0,8,0.2,16.1-2.2c0.4,0.9,0.9,1.8,1.3,2.7c-0.2,0.1-0.4,0.1-0.6,0.2C340.8,837.9,336.5,845.5,336.5,845.6
				C336.5,845.5,336.5,845.6,336.5,845.6z M348.1,850.8c-3.7,0-7.1-1.3-9.8-3.4c-0.1,0-0.1-0.1-0.2-0.2c0.1,0.1,0.1,0.1,0.2,0.2
				c0.1,0.1,0.2,0.1,0.2,0.1s3-6.5,12.3-9.8h0.1c2.2,5.7,3.1,10.5,3.3,11.9C352.4,850.3,350.3,850.8,348.1,850.8z M356.9,848.1
				c-0.2-0.9-1-5.5-3-11.2c5.1-0.8,9.4,0.6,9.8,0.7C362.9,841.9,360.4,845.7,356.9,848.1z M352.9,834.4c-0.1-0.3-0.2-0.5-0.3-0.8
				c-0.3-0.8-0.7-1.5-1-2.3c6.2-2.5,8.7-6.2,8.7-6.2c2.2,2.7,3.5,6.1,3.6,9.8C363.6,834.9,358.3,833.7,352.9,834.4z"/>
		</g>
	</g>
	<g id="Facebook_5_">
		<path class="st10" d="M219.1,797.2c-21,0-38,17-38,38s17,38,38,38c21,0,38-17,38-38S240.1,797.2,219.1,797.2z M237.6,851.2
			c0,1.1-0.5,1.9-1.7,1.9h-9.3v-14h4.8l0.7-6h-5.5V830c0-1.6,0.4-2.9,2.7-2.9h3.3v-4.8c-1-0.1-2.6-0.2-4.6-0.2
			c-4.2,0-7.4,2.6-7.4,7.3v3.7h-5v6h5v14h-17.3c-1.1,0-1.7-0.7-1.7-1.9v-32.7c0-1.1,0.6-2.5,1.7-2.5H236c1.1,0,1.7,1.4,1.7,2.5v32.7
			L237.6,851.2L237.6,851.2z"/>
	</g>
	<g id="Google_x2B__4_">
		<path class="st11" d="M89.8,797.2c-21,0-38,17-38,38s17,38,38,38s38-17,38-38S110.8,797.2,89.8,797.2z M82.4,848.3
			c-7.1,0-12.8-5.8-12.8-12.9c0-7.1,5.7-12.9,12.8-12.9c3.3,0,6.4,1.3,8.6,3.3c-2.7,2.5-2.6,2.7-3.6,3.7c-1.3-1.1-2.8-1.9-5-1.9
			c-4.2,0-7.5,3.4-7.5,7.6s3.3,7.7,7.5,7.7s5.8-2,6.9-5c-2,0-6.8,0-6.8,0v-5h12.2C95.6,839.1,93,848.3,82.4,848.3z M109.6,836.1h-4
			v5h-3v-5h-5v-3h5v-4h3v4h4V836.1z"/>
	</g>
</g>
<g id="_x30_3-SINGLE-COLOR">
	<path id="Vimeo_4_" class="st5" d="M1004.1,691.4c-5.1-0.2-8.5,2.7-10.4,8.5c0.9-0.4,1.8-0.6,2.7-0.6c1.9,0,2.7,1,2.5,3.1
		c-0.1,1.3-0.9,3.1-2.5,5.5c-1.5,2.4-2.7,3.6-3.5,3.6c-1,0-1.9-1.8-2.7-5.5c-0.3-1.1-0.8-3.8-1.5-8.3c-0.7-4.1-2.4-6-5.3-5.8
		c-1.2,0.1-3,1.2-5.4,3.3c-1.8,1.6-3.5,3.1-5.3,4.7l1.7,2.2c1.6-1.1,2.6-1.7,2.9-1.7c1.3,0,2.4,2,3.5,5.9c1,3.6,2,7.2,3,10.7
		c1.5,3.9,3.3,5.8,5.4,5.8c3.5,0,7.7-3.2,12.7-9.6c4.8-6.1,7.3-10.9,7.5-14.5C1009.7,694,1007.9,691.6,1004.1,691.4z"/>
	<path id="Instagram_4_" class="st6" d="M876.1,688.5h-27.9c-2.4,0-4.4,1.9-4.4,4.3v28c0,2.4,2,4.3,4.4,4.3h27.9
		c2.4,0,4.4-1.9,4.4-4.3v-28C880.4,690.5,878.5,688.5,876.1,688.5z M870.1,694.3c0-0.6,0.5-1.1,1.1-1.1h3.4c0.6,0,1.1,0.5,1.1,1.1
		v3.4c0,0.6-0.5,1.1-1.1,1.1h-3.4c-0.6,0-1.1-0.5-1.1-1.1V694.3z M862.1,699.9c3.9,0,7.1,3.1,7.1,7c0,3.9-3.2,7-7.1,7s-7-3.1-7-7
		C855.1,703,858.2,699.9,862.1,699.9z M877,720.6c0,0.6-0.5,1.1-1.1,1.1h-27.5c-0.6,0-1.1-0.5-1.1-1.1v-17.2h4.6
		c-0.6,0.9-0.8,2.5-0.8,3.5c0,6.1,5,11.1,11.2,11.1s11.2-5,11.2-11.1c0-1-0.1-2.6-0.9-3.5h4.6v17.2H877z"/>
	<path id="Twitter_4_" class="st3" d="M751.4,691.7c-1.5,0.9-3.1,1.6-4.9,1.9c-1.4-1.5-3.4-2.5-5.6-2.5c-4.2,0-7.7,3.5-7.7,7.9
		c0,0.6,0.1,1.2,0.2,1.8c-6.4-0.3-12-3.5-15.8-8.2c-0.7,1.2-1,2.5-1,4c0,2.7,1.4,5.1,3.4,6.6c-1.3,0-2.4-0.4-3.5-1v0.1
		c0,3.8,2.6,7,6.2,7.7c-0.6,0.2-1.3,0.3-2,0.3c-0.5,0-1,0-1.4-0.1c1,3.1,3.8,5.4,7.2,5.5c-2.6,2.1-5.9,3.4-9.5,3.4
		c-0.6,0-1.2,0-1.8-0.1c3.4,2.2,7.4,3.5,11.8,3.5c14.1,0,21.9-12,21.9-22.4c0-0.3,0-0.7,0-1c1.5-1.1,2.8-2.5,3.8-4.1
		c-1.4,0.6-2.9,1.1-4.4,1.2C749.6,695.1,750.8,693.6,751.4,691.7z"/>
	<g id="LinkedIn_4_">
		<rect x="588.3" y="701.2" class="st7" width="7.2" height="22.8"/>
		<path class="st7" d="M615.1,701c-4.1,0-6.7,2.2-7.2,3.8v-3.6h-8.1c0.1,1.9,0,22.8,0,22.8h8.1v-12.3c0-0.7,0-1.4,0.2-1.9
			c0.6-1.4,1.7-2.8,3.9-2.8c2.8,0,4.1,2.1,4.1,5.2V724h8.2v-12.7C624.2,704.3,620.2,701,615.1,701z"/>
		<path class="st7" d="M591.7,690.5c-2.7,0-4.4,1.7-4.4,4c0,2.2,1.7,3.9,4.3,3.9h0.1c2.7,0,4.4-1.7,4.4-4
			C596,692.2,594.4,690.5,591.7,690.5z"/>
	</g>
	<g id="Behance_4_">
		<path class="st8" d="M473.4,705.9c0.8-0.4,1.3-0.8,1.7-1.3c0.7-0.8,1-1.9,1-3.3c0-1.3-0.3-2.5-1-3.4c-1.2-1.5-3.1-2.3-5.9-2.4
			h-10.9v22.3h10.2c1.2,0,2.2-0.1,3.2-0.3c1-0.2,1.8-0.6,2.6-1.1c0.6-0.5,1.2-1.1,1.6-1.8c0.7-1,1-2.2,1-3.6c0-1.3-0.3-2.4-0.9-3.3
			C475.4,707,474.6,706.3,473.4,705.9z M462.9,699.5h4.9c1.1,0,2,0.1,2.7,0.3c0.8,0.3,1.2,1,1.2,2.1c0,0.9-0.3,1.6-0.9,2
			c-0.6,0.4-1.4,0.6-2.4,0.6h-5.5V699.5z M470.7,713.6c-0.5,0.3-1.3,0.4-2.3,0.4h-5.5v-6h5.6c1,0,1.7,0.1,2.3,0.4
			c1,0.4,1.4,1.2,1.4,2.4C472.1,712.2,471.6,713.2,470.7,713.6z"/>
		<rect x="481.8" y="696.6" class="st8" width="9.7" height="2.8"/>
		<path class="st8" d="M493.5,704.2c-0.8-1.1-1.7-1.9-2.9-2.4s-2.5-0.8-3.9-0.8c-2.5,0-4.4,0.8-6,2.3c-1.5,1.5-2.3,3.7-2.3,6.6
			c0,3.1,0.8,5.3,2.6,6.6c1.7,1.4,3.7,2,5.9,2c2.7,0,4.8-0.8,6.3-2.4c1-1,1.5-2,1.6-3h-4.5c-0.3,0.5-0.6,0.9-0.9,1.1
			c-0.6,0.5-1.4,0.8-2.4,0.8c-0.9,0-1.7-0.2-2.4-0.6c-1.1-0.7-1.7-1.8-1.8-3.5H495c0-1.4,0-2.5-0.1-3.3
			C494.6,706.3,494.2,705.2,493.5,704.2z M482.9,708c0.2-1.1,0.5-1.9,1.2-2.6c0.6-0.6,1.5-0.9,2.6-0.9c1,0,1.9,0.3,2.6,0.9
			c0.7,0.6,1.1,1.5,1.2,2.6H482.9z"/>
	</g>
	<path id="Dribbble_4_" class="st9" d="M365,699.7c-0.5-1.1-1-2.1-1.7-3.1s-1.4-1.9-2.2-2.7c-0.8-0.8-1.7-1.6-2.7-2.2
		c-1-0.7-2-1.2-3.1-1.7s-2.3-0.8-3.4-1.1c-1.2-0.2-2.4-0.4-3.7-0.4c-1.2,0-2.5,0.1-3.7,0.4c-1.2,0.2-2.3,0.6-3.4,1.1
		c-1.1,0.5-2.1,1-3.1,1.7c-1,0.7-1.9,1.4-2.7,2.2c-0.8,0.8-1.6,1.7-2.2,2.7c-0.7,1-1.2,2-1.7,3.1s-0.8,2.3-1.1,3.4
		c-0.2,1.2-0.4,2.4-0.4,3.7c0,1.2,0.1,2.5,0.4,3.7c0.2,1.2,0.6,2.3,1.1,3.4s1,2.1,1.7,3.1s1.4,1.9,2.2,2.7c0.8,0.8,1.7,1.6,2.7,2.2
		c1,0.7,2,1.2,3.1,1.7s2.3,0.8,3.4,1.1c1.2,0.3,2.4,0.4,3.7,0.4c1.2,0,2.5-0.1,3.7-0.4c1.2-0.2,2.3-0.6,3.4-1.1
		c1.1-0.5,2.1-1,3.1-1.7c1-0.7,1.9-1.4,2.7-2.2c0.8-0.8,1.6-1.7,2.2-2.7c0.7-1,1.2-2,1.7-3.1s0.8-2.3,1.1-3.4
		c0.2-1.2,0.4-2.4,0.4-3.7c0-1.2-0.1-2.5-0.4-3.7C365.8,702,365.5,700.8,365,699.7z M348.1,691.2c4,0,7.6,1.5,10.3,3.9
		c0,0.1-2.3,3.5-8.2,5.7c-2.7-4.9-5.6-8.8-5.9-9.1C345.6,691.4,346.9,691.2,348.1,691.2z M344.4,691.6
		C344.4,691.7,344.4,691.7,344.4,691.6C344.4,691.7,344.4,691.7,344.4,691.6C344.3,691.7,344.4,691.7,344.4,691.6z M341.4,692.7
		c0.2,0.3,3.1,4.2,5.8,9c-7.5,2-14,1.9-14.5,1.9C333.8,698.8,337.1,694.8,341.4,692.7z M336.5,717.3c-2.5-2.8-4-6.4-4-10.5
		c0-0.2,0-0.3,0-0.5c0.3,0,8,0.2,16.1-2.2c0.4,0.9,0.9,1.8,1.3,2.7c-0.2,0.1-0.4,0.1-0.6,0.2C340.8,709.7,336.5,717.3,336.5,717.3
		L336.5,717.3z M348.1,722.5c-3.7,0-7.1-1.3-9.8-3.4c-0.1,0-0.1-0.1-0.2-0.2c0.1,0.1,0.1,0.1,0.2,0.2c0.1,0.1,0.2,0.1,0.2,0.1
		s3-6.5,12.3-9.8h0.1c2.2,5.7,3.1,10.5,3.3,11.9C352.4,722.1,350.3,722.5,348.1,722.5z M356.9,719.8c-0.2-0.9-1-5.5-3-11.2
		c5.1-0.8,9.4,0.6,9.8,0.7C362.9,713.7,360.4,717.5,356.9,719.8z M352.9,706.2c-0.1-0.3-0.2-0.5-0.3-0.8c-0.3-0.8-0.7-1.5-1-2.3
		c6.2-2.5,8.7-6.2,8.7-6.2c2.2,2.7,3.5,6.1,3.6,9.8C363.6,706.6,358.3,705.5,352.9,706.2z"/>
	<path id="Facebook_3_" class="st10" d="M237.7,723c0,1.1-0.9,2-2,2h-9.4v-14.2h4.8l0.7-5.5h-5.5v-3.5c0-1.6,0.4-2.7,2.7-2.7h2.9v-5
		c-0.5-0.1-2.2-0.2-4.3-0.2c-4.2,0-7.1,2.6-7.1,7.3v4.1h-4.8v5.5h4.8V725h-17.6c-1.1,0-2-0.9-2-2v-32.6c0-1.1,0.9-2,2-2h32.7
		c1.1,0,2,0.9,2,2L237.7,723L237.7,723z"/>
	<g id="Google_x2B__1_">
		<path class="st11" d="M82.4,704.6v5.1c0,0,4.9,0,6.9,0c-1.1,3.3-2.8,5.1-6.9,5.1c-4.2,0-7.5-3.4-7.5-7.6s3.3-7.6,7.5-7.6
			c2.2,0,3.7,0.8,5,1.9c1.1-1.1,1-1.2,3.6-3.7c-2.3-2.1-5.3-3.3-8.6-3.3c-7.1,0-12.8,5.7-12.8,12.8c0,7.1,5.7,12.8,12.8,12.8
			c10.6,0,13.2-9.2,12.3-15.4L82.4,704.6L82.4,704.6z"/>
		<polygon class="st11" points="105.5,704.9 105.5,700.4 102.4,700.4 102.4,704.9 97.8,704.9 97.8,708 102.4,708 102.4,712.6 
			105.5,712.6 105.5,708 110,708 110,704.9 		"/>
	</g>
</g>
<g id="Vimeo_7_">
	<g id="Vimeo_1_">
		<path class="st5" d="M1004.1,561.7c-5.1-0.2-8.5,2.7-10.4,8.5c0.9-0.4,1.8-0.6,2.7-0.6c1.9,0,2.7,1,2.5,3.1
			c-0.1,1.3-0.9,3.1-2.5,5.5c-1.5,2.4-2.7,3.6-3.5,3.6c-1,0-1.9-1.8-2.7-5.5c-0.3-1.1-0.8-3.8-1.5-8.3c-0.7-4.1-2.4-6-5.3-5.8
			c-1.2,0.1-3,1.2-5.4,3.3c-1.8,1.6-3.5,3.1-5.3,4.7l1.7,2.2c1.6-1.1,2.6-1.7,2.9-1.7c1.3,0,2.4,2,3.5,5.9c1,3.6,2,7.2,3,10.7
			c1.5,3.9,3.3,5.8,5.4,5.8c3.5,0,7.7-3.2,12.7-9.6c4.8-6.1,7.3-10.9,7.5-14.5C1009.7,564.2,1007.9,561.8,1004.1,561.7z"/>
	</g>
	<path class="st5" d="M991.1,616.7c-21.8,0-39.5-17.7-39.5-39.5s17.7-39.5,39.5-39.5s39.5,17.7,39.5,39.5S1012.9,616.7,991.1,616.7z
		 M991.1,540.7c-20.1,0-36.5,16.4-36.5,36.5s16.4,36.5,36.5,36.5s36.5-16.4,36.5-36.5S1011.2,540.7,991.1,540.7z"/>
</g>
<g id="Instagram_7_">
	<path id="Instagram_1_" class="st6" d="M876.1,558.8h-27.9c-2.4,0-4.4,1.9-4.4,4.3v28c0,2.4,2,4.3,4.4,4.3h27.9
		c2.4,0,4.4-1.9,4.4-4.3v-28C880.4,560.7,878.5,558.8,876.1,558.8z M870.1,564.5c0-0.6,0.5-1.1,1.1-1.1h3.4c0.6,0,1.1,0.5,1.1,1.1
		v3.4c0,0.6-0.5,1.1-1.1,1.1h-3.4c-0.6,0-1.1-0.5-1.1-1.1V564.5z M862.1,570.1c3.9,0,7.1,3.1,7.1,7c0,3.9-3.2,7-7.1,7s-7-3.1-7-7
		C855.1,573.3,858.2,570.1,862.1,570.1z M877,590.8c0,0.6-0.5,1.1-1.1,1.1h-27.5c-0.6,0-1.1-0.5-1.1-1.1v-17.2h4.6
		c-0.6,0.9-0.8,2.5-0.8,3.5c0,6.1,5,11.1,11.2,11.1s11.2-5,11.2-11.1c0-1-0.1-2.6-0.9-3.5h4.6v17.2H877z"/>
	<path class="st6" d="M861.1,616.7c-21.8,0-39.5-17.7-39.5-39.5s17.7-39.5,39.5-39.5s39.5,17.7,39.5,39.5S882.9,616.7,861.1,616.7z
		 M861.1,540.7c-20.1,0-36.5,16.4-36.5,36.5s16.4,36.5,36.5,36.5s36.5-16.4,36.5-36.5S881.2,540.7,861.1,540.7z"/>
</g>
<g id="Twitter_7_">
	<path id="Twitter_1_" class="st3" d="M751.4,562c-1.5,0.9-3.1,1.6-4.9,1.9c-1.4-1.5-3.4-2.5-5.6-2.5c-4.2,0-7.7,3.5-7.7,7.9
		c0,0.6,0.1,1.2,0.2,1.8c-6.4-0.3-12-3.5-15.8-8.2c-0.7,1.2-1,2.5-1,4c0,2.7,1.4,5.1,3.4,6.6c-1.3,0-2.4-0.4-3.5-1v0.1
		c0,3.8,2.6,7,6.2,7.7c-0.6,0.2-1.3,0.3-2,0.3c-0.5,0-1,0-1.4-0.1c1,3.1,3.8,5.4,7.2,5.5c-2.6,2.1-5.9,3.4-9.5,3.4
		c-0.6,0-1.2,0-1.8-0.1c3.4,2.2,7.4,3.5,11.8,3.5c14.1,0,21.9-12,21.9-22.4c0-0.3,0-0.7,0-1c1.5-1.1,2.8-2.5,3.8-4.1
		c-1.4,0.6-2.9,1.1-4.4,1.2C749.6,565.3,750.8,563.8,751.4,562z"/>
	<path class="st3" d="M734.1,616.7c-21.8,0-39.5-17.7-39.5-39.5s17.7-39.5,39.5-39.5c21.8,0,39.5,17.7,39.5,39.5
		S755.9,616.7,734.1,616.7z M734.1,540.7c-20.1,0-36.5,16.4-36.5,36.5s16.4,36.5,36.5,36.5s36.5-16.4,36.5-36.5
		S754.2,540.7,734.1,540.7z"/>
</g>
<g id="Behance_7_">
	<g id="Behance_1_">
		<path class="st8" d="M473.4,576.2c0.8-0.4,1.3-0.8,1.7-1.3c0.7-0.8,1-1.9,1-3.3c0-1.3-0.3-2.5-1-3.4c-1.2-1.5-3.1-2.3-5.9-2.4
			h-10.9v22.3h10.2c1.2,0,2.2-0.1,3.2-0.3c1-0.2,1.8-0.6,2.6-1.1c0.6-0.5,1.2-1.1,1.6-1.8c0.7-1,1-2.2,1-3.6c0-1.3-0.3-2.4-0.9-3.3
			C475.4,577.2,474.6,576.6,473.4,576.2z M462.9,569.7h4.9c1.1,0,2,0.1,2.7,0.3c0.8,0.3,1.2,1,1.2,2.1c0,0.9-0.3,1.6-0.9,2
			c-0.6,0.4-1.4,0.6-2.4,0.6h-5.5V569.7z M470.7,583.9c-0.5,0.3-1.3,0.4-2.3,0.4h-5.5v-6h5.6c1,0,1.7,0.1,2.3,0.4
			c1,0.4,1.4,1.2,1.4,2.4C472.1,582.5,471.6,583.4,470.7,583.9z"/>
		<rect x="481.8" y="566.9" class="st8" width="9.7" height="2.8"/>
		<path class="st8" d="M493.5,574.4c-0.8-1.1-1.7-1.9-2.9-2.4s-2.5-0.8-3.9-0.8c-2.5,0-4.4,0.8-6,2.3c-1.5,1.5-2.3,3.7-2.3,6.6
			c0,3.1,0.8,5.3,2.6,6.6c1.7,1.4,3.7,2,5.9,2c2.7,0,4.8-0.8,6.3-2.4c1-1,1.5-2,1.6-3h-4.5c-0.3,0.5-0.6,0.9-0.9,1.1
			c-0.6,0.5-1.4,0.8-2.4,0.8c-0.9,0-1.7-0.2-2.4-0.6c-1.1-0.7-1.7-1.8-1.8-3.5H495c0-1.4,0-2.5-0.1-3.3
			C494.6,576.5,494.2,575.4,493.5,574.4z M482.9,578.3c0.2-1.1,0.5-1.9,1.2-2.6c0.6-0.6,1.5-0.9,2.6-0.9c1,0,1.9,0.3,2.6,0.9
			c0.7,0.6,1.1,1.5,1.2,2.6H482.9z"/>
	</g>
	<path class="st8" d="M476.1,616.7c-21.8,0-39.5-17.7-39.5-39.5s17.7-39.5,39.5-39.5s39.5,17.7,39.5,39.5S497.9,616.7,476.1,616.7z
		 M476.1,540.7c-20.1,0-36.5,16.4-36.5,36.5s16.4,36.5,36.5,36.5s36.5-16.4,36.5-36.5S496.2,540.7,476.1,540.7z"/>
</g>
<g id="Dribbble_7_">
	<g>
		<path id="Dribbble_1_" class="st9" d="M365,570c-0.5-1.1-1-2.1-1.7-3.1s-1.4-1.9-2.2-2.7c-0.8-0.8-1.7-1.6-2.7-2.2
			c-1-0.7-2-1.2-3.1-1.7s-2.3-0.8-3.4-1.1c-1.2-0.2-2.4-0.4-3.7-0.4c-1.2,0-2.5,0.1-3.7,0.4c-1.2,0.2-2.3,0.6-3.4,1.1
			c-1.1,0.5-2.1,1-3.1,1.7c-1,0.7-1.9,1.4-2.7,2.2c-0.8,0.8-1.6,1.7-2.2,2.7c-0.7,1-1.2,2-1.7,3.1s-0.8,2.3-1.1,3.4
			c-0.2,1.2-0.4,2.4-0.4,3.7c0,1.2,0.1,2.5,0.4,3.7c0.2,1.2,0.6,2.3,1.1,3.4s1,2.1,1.7,3.1s1.4,1.9,2.2,2.7c0.8,0.8,1.7,1.6,2.7,2.2
			c1,0.7,2,1.2,3.1,1.7s2.3,0.8,3.4,1.1c1.2,0.3,2.4,0.4,3.7,0.4c1.2,0,2.5-0.1,3.7-0.4c1.2-0.2,2.3-0.6,3.4-1.1
			c1.1-0.5,2.1-1,3.1-1.7c1-0.7,1.9-1.4,2.7-2.2c0.8-0.8,1.6-1.7,2.2-2.7c0.7-1,1.2-2,1.7-3.1s0.8-2.3,1.1-3.4
			c0.2-1.2,0.4-2.4,0.4-3.7c0-1.2-0.1-2.5-0.4-3.7C365.8,572.2,365.5,571.1,365,570z M348.1,561.4c4,0,7.6,1.5,10.3,3.9
			c0,0.1-2.3,3.5-8.2,5.7c-2.7-4.9-5.6-8.8-5.9-9.1C345.6,561.6,346.9,561.4,348.1,561.4z M344.4,561.9L344.4,561.9L344.4,561.9
			C344.3,561.9,344.4,561.9,344.4,561.9z M341.4,562.9c0.2,0.3,3.1,4.2,5.8,9c-7.5,2-14,1.9-14.5,1.9
			C333.8,569,337.1,565,341.4,562.9z M336.5,587.6c-2.5-2.8-4-6.4-4-10.5c0-0.2,0-0.3,0-0.5c0.3,0,8,0.2,16.1-2.2
			c0.4,0.9,0.9,1.8,1.3,2.7c-0.2,0.1-0.4,0.1-0.6,0.2C340.8,579.9,336.5,587.5,336.5,587.6C336.5,587.5,336.5,587.6,336.5,587.6z
			 M348.1,592.8c-3.7,0-7.1-1.3-9.8-3.4c-0.1,0-0.1-0.1-0.2-0.2c0.1,0.1,0.1,0.1,0.2,0.2c0.1,0.1,0.2,0.1,0.2,0.1s3-6.5,12.3-9.8
			h0.1c2.2,5.7,3.1,10.5,3.3,11.9C352.4,592.3,350.3,592.8,348.1,592.8z M356.9,590.1c-0.2-0.9-1-5.5-3-11.2
			c5.1-0.8,9.4,0.6,9.8,0.7C362.9,583.9,360.4,587.7,356.9,590.1z M352.9,576.4c-0.1-0.3-0.2-0.5-0.3-0.8c-0.3-0.8-0.7-1.5-1-2.3
			c6.2-2.5,8.7-6.2,8.7-6.2c2.2,2.7,3.5,6.1,3.6,9.8C363.6,576.9,358.3,575.7,352.9,576.4z"/>
	</g>
	<path class="st9" d="M348.1,616.7c-21.8,0-39.5-17.7-39.5-39.5s17.7-39.5,39.5-39.5s39.5,17.7,39.5,39.5S369.9,616.7,348.1,616.7z
		 M348.1,540.7c-20.1,0-36.5,16.4-36.5,36.5s16.4,36.5,36.5,36.5s36.5-16.4,36.5-36.5S368.2,540.7,348.1,540.7z"/>
</g>
<g id="Facebook_6_">
	<path class="st10" d="M220.1,615.7c-21.8,0-39.5-17.7-39.5-39.5s17.7-39.5,39.5-39.5c21.8,0,39.5,17.7,39.5,39.5
		S241.9,615.7,220.1,615.7z M220.1,539.7c-20.1,0-36.5,16.4-36.5,36.5s16.4,36.5,36.5,36.5s36.5-16.4,36.5-36.5
		S240.2,539.7,220.1,539.7z"/>
	<path id="Facebook_1_" class="st10" d="M238.2,591.8c0,1.1-0.9,2-2,2h-9.4v-14.2h4.8l0.7-5.5h-5.5v-3.5c0-1.6,0.4-2.7,2.7-2.7h2.9
		v-5c-0.5-0.1-2.2-0.2-4.3-0.2c-4.2,0-7.1,2.6-7.1,7.3v4.1h-4.8v5.5h4.8v14.2h-17.6c-1.1,0-2-0.9-2-2v-32.7c0-1.1,0.9-2,2-2h32.7
		c1.1,0,2,0.9,2,2L238.2,591.8L238.2,591.8z"/>
</g>
<g id="Google_x2B__5_">
	<path class="st11" d="M90.1,615.7c-21.8,0-39.5-17.7-39.5-39.5s17.7-39.5,39.5-39.5s39.5,17.7,39.5,39.5S111.9,615.7,90.1,615.7z
		 M90.1,539.7c-20.1,0-36.5,16.4-36.5,36.5s16.4,36.5,36.5,36.5s36.5-16.4,36.5-36.5S110.2,539.7,90.1,539.7z"/>
	<path class="st11" d="M82.4,573.3v5.1c0,0,4.9,0,6.9,0c-1.1,3.3-2.8,5.1-6.9,5.1c-4.2,0-7.5-3.4-7.5-7.6c0-4.2,3.3-7.6,7.5-7.6
		c2.2,0,3.7,0.8,5,1.9c1.1-1.1,1-1.2,3.6-3.7c-2.3-2.1-5.3-3.3-8.6-3.3c-7.1,0-12.8,5.7-12.8,12.8s5.7,12.8,12.8,12.8
		c10.6,0,13.2-9.2,12.3-15.4L82.4,573.3L82.4,573.3z"/>
	<polygon class="st11" points="105.5,573.6 105.5,569.1 102.4,569.1 102.4,573.6 97.8,573.6 97.8,576.8 102.4,576.8 102.4,581.3 
		105.5,581.3 105.5,576.8 110,576.8 110,573.6 	"/>
</g>
<g id="_x30_1-SINGLE-GREY">
	<path id="Vimeo" class="st2" d="M1004.1,432.4c-5.1-0.2-8.5,2.7-10.4,8.5c0.9-0.4,1.8-0.6,2.7-0.6c1.9,0,2.7,1,2.5,3.1
		c-0.1,1.3-0.9,3.1-2.5,5.5c-1.5,2.4-2.7,3.6-3.5,3.6c-1,0-1.9-1.8-2.7-5.5c-0.3-1.1-0.8-3.8-1.5-8.3c-0.7-4.1-2.4-6-5.3-5.8
		c-1.2,0.1-3,1.2-5.4,3.3c-1.8,1.6-3.5,3.1-5.3,4.7l1.7,2.2c1.6-1.1,2.6-1.7,2.9-1.7c1.3,0,2.4,2,3.5,5.9c1,3.6,2,7.2,3,10.7
		c1.5,3.9,3.3,5.8,5.4,5.8c3.5,0,7.7-3.2,12.7-9.6c4.8-6.1,7.3-10.9,7.5-14.5C1009.7,435,1007.9,432.6,1004.1,432.4z"/>
	<path id="Instagram" class="st2" d="M876.1,429.5h-27.9c-2.4,0-4.4,1.9-4.4,4.3v28c0,2.4,2,4.3,4.4,4.3h27.9c2.4,0,4.4-1.9,4.4-4.3
		v-28C880.4,431.5,878.5,429.5,876.1,429.5z M870.1,435.3c0-0.6,0.5-1.1,1.1-1.1h3.4c0.6,0,1.1,0.5,1.1,1.1v3.4
		c0,0.6-0.5,1.1-1.1,1.1h-3.4c-0.6,0-1.1-0.5-1.1-1.1V435.3z M862.1,440.9c3.9,0,7.1,3.1,7.1,7s-3.2,7-7.1,7s-7-3.1-7-7
		S858.2,440.9,862.1,440.9z M877,461.6c0,0.6-0.5,1.1-1.1,1.1h-27.5c-0.6,0-1.1-0.5-1.1-1.1v-17.2h4.6c-0.6,0.9-0.8,2.5-0.8,3.5
		c0,6.1,5,11.1,11.2,11.1s11.2-5,11.2-11.1c0-1-0.1-2.6-0.9-3.5h4.6v17.2C877.2,461.6,877,461.6,877,461.6z"/>
	<path id="Twitter" class="st2" d="M751.4,432.7c-1.5,0.9-3.1,1.6-4.9,1.9c-1.4-1.5-3.4-2.5-5.6-2.5c-4.2,0-7.7,3.5-7.7,7.9
		c0,0.6,0.1,1.2,0.2,1.8c-6.4-0.3-12-3.5-15.8-8.2c-0.7,1.2-1,2.5-1,4c0,2.7,1.4,5.1,3.4,6.6c-1.3,0-2.4-0.4-3.5-1v0.1
		c0,3.8,2.6,7,6.2,7.7c-0.6,0.2-1.3,0.3-2,0.3c-0.5,0-1,0-1.4-0.1c1,3.1,3.8,5.4,7.2,5.5c-2.6,2.1-5.9,3.4-9.5,3.4
		c-0.6,0-1.2,0-1.8-0.1c3.4,2.2,7.4,3.5,11.8,3.5c14.1,0,21.9-12,21.9-22.4c0-0.3,0-0.7,0-1c1.5-1.1,2.8-2.5,3.8-4.1
		c-1.4,0.6-2.9,1.1-4.4,1.2C749.6,436.1,750.8,434.6,751.4,432.7z"/>
	<g id="LinkedIn">
		<rect x="588.3" y="442.2" class="st2" width="7.2" height="22.8"/>
		<path class="st2" d="M615.1,442c-4.1,0-6.7,2.2-7.2,3.8v-3.6h-8.1c0.1,1.9,0,22.8,0,22.8h8.1v-12.3c0-0.7,0-1.4,0.2-1.9
			c0.6-1.4,1.7-2.8,3.9-2.8c2.8,0,4.1,2.1,4.1,5.2V465h8.2v-12.7C624.2,445.3,620.2,442,615.1,442z"/>
		<path class="st2" d="M591.7,431.5c-2.7,0-4.4,1.7-4.4,4c0,2.2,1.7,3.9,4.3,3.9h0.1c2.7,0,4.4-1.7,4.4-4
			C596,433.2,594.4,431.5,591.7,431.5z"/>
	</g>
	<g id="Behance">
		<path class="st2" d="M473.4,446.9c0.8-0.4,1.3-0.8,1.7-1.3c0.7-0.8,1-1.9,1-3.3c0-1.3-0.3-2.5-1-3.4c-1.2-1.5-3.1-2.3-5.9-2.4
			h-10.9v22.3h10.2c1.2,0,2.2-0.1,3.2-0.3s1.8-0.6,2.6-1.1c0.6-0.5,1.2-1.1,1.6-1.8c0.7-1,1-2.2,1-3.6c0-1.3-0.3-2.4-0.9-3.3
			C475.4,448,474.6,447.3,473.4,446.9z M462.9,440.5h4.9c1.1,0,2,0.1,2.7,0.3c0.8,0.3,1.2,1,1.2,2.1c0,0.9-0.3,1.6-0.9,2
			c-0.6,0.4-1.4,0.6-2.4,0.6h-5.5V440.5z M470.7,454.6c-0.5,0.3-1.3,0.4-2.3,0.4h-5.5v-6h5.6c1,0,1.7,0.1,2.3,0.4
			c1,0.4,1.4,1.2,1.4,2.4C472.1,453.2,471.6,454.2,470.7,454.6z"/>
		<rect x="481.8" y="437.6" class="st2" width="9.7" height="2.8"/>
		<path class="st2" d="M493.5,445.2c-0.8-1.1-1.7-1.9-2.9-2.4s-2.5-0.8-3.9-0.8c-2.5,0-4.4,0.8-6,2.3c-1.5,1.5-2.3,3.7-2.3,6.6
			c0,3.1,0.8,5.3,2.6,6.6c1.7,1.4,3.7,2,5.9,2c2.7,0,4.8-0.8,6.3-2.4c1-1,1.5-2,1.6-3h-4.5c-0.3,0.5-0.6,0.9-0.9,1.1
			c-0.6,0.5-1.4,0.8-2.4,0.8c-0.9,0-1.7-0.2-2.4-0.6c-1.1-0.7-1.7-1.8-1.8-3.5H495c0-1.4,0-2.5-0.1-3.3
			C494.6,447.3,494.2,446.2,493.5,445.2z M482.9,449c0.2-1.1,0.5-1.9,1.2-2.6c0.6-0.6,1.5-0.9,2.6-0.9c1,0,1.9,0.3,2.6,0.9
			c0.7,0.6,1.1,1.5,1.2,2.6H482.9z"/>
	</g>
	<path id="Dribbble" class="st2" d="M365,440.7c-0.5-1.1-1-2.1-1.7-3.1s-1.4-1.9-2.2-2.7s-1.7-1.6-2.7-2.2c-1-0.7-2-1.2-3.1-1.7
		s-2.3-0.8-3.4-1.1c-1.2-0.2-2.4-0.4-3.7-0.4c-1.2,0-2.5,0.1-3.7,0.4c-1.2,0.2-2.3,0.6-3.4,1.1c-1.1,0.5-2.1,1-3.1,1.7
		c-1,0.7-1.9,1.4-2.7,2.2s-1.6,1.7-2.2,2.7c-0.7,1-1.2,2-1.7,3.1c-0.5,1.1-0.8,2.3-1.1,3.4c-0.2,1.2-0.4,2.4-0.4,3.7
		c0,1.2,0.1,2.5,0.4,3.7c0.2,1.2,0.6,2.3,1.1,3.4c0.5,1.1,1,2.1,1.7,3.1s1.4,1.9,2.2,2.7s1.7,1.6,2.7,2.2c1,0.7,2,1.2,3.1,1.7
		s2.3,0.8,3.4,1.1c1.2,0.3,2.4,0.4,3.7,0.4c1.2,0,2.5-0.1,3.7-0.4c1.2-0.2,2.3-0.6,3.4-1.1c1.1-0.5,2.1-1,3.1-1.7
		c1-0.7,1.9-1.4,2.7-2.2s1.6-1.7,2.2-2.7c0.7-1,1.2-2,1.7-3.1c0.5-1.1,0.8-2.3,1.1-3.4c0.2-1.2,0.4-2.4,0.4-3.7
		c0-1.2-0.1-2.5-0.4-3.7C365.8,443,365.5,441.8,365,440.7z M348.1,432.2c4,0,7.6,1.5,10.3,3.9c0,0.1-2.3,3.5-8.2,5.7
		c-2.7-4.9-5.6-8.8-5.9-9.1C345.6,432.4,346.9,432.2,348.1,432.2z M344.4,432.6C344.4,432.7,344.4,432.7,344.4,432.6
		C344.4,432.7,344.4,432.7,344.4,432.6C344.3,432.7,344.4,432.7,344.4,432.6z M341.4,433.7c0.2,0.3,3.1,4.2,5.8,9
		c-7.5,2-14,1.9-14.5,1.9C333.8,439.8,337.1,435.8,341.4,433.7z M336.5,458.3c-2.5-2.8-4-6.4-4-10.5c0-0.2,0-0.3,0-0.5
		c0.3,0,8,0.2,16.1-2.2c0.4,0.9,0.9,1.8,1.3,2.7c-0.2,0.1-0.4,0.1-0.6,0.2C340.8,450.7,336.5,458.3,336.5,458.3L336.5,458.3z
		 M348.1,463.5c-3.7,0-7.1-1.3-9.8-3.4c-0.1,0-0.1-0.1-0.2-0.2c0.1,0.1,0.1,0.1,0.2,0.2c0.1,0.1,0.2,0.1,0.2,0.1s3-6.5,12.3-9.8h0.1
		c2.2,5.7,3.1,10.5,3.3,11.9C352.4,463.1,350.3,463.5,348.1,463.5z M356.9,460.8c-0.2-0.9-1-5.5-3-11.2c5.1-0.8,9.4,0.6,9.8,0.7
		C362.9,454.7,360.4,458.5,356.9,460.8z M352.9,447.2c-0.1-0.3-0.2-0.5-0.3-0.8c-0.3-0.8-0.7-1.5-1-2.3c6.2-2.5,8.7-6.2,8.7-6.2
		c2.2,2.7,3.5,6.1,3.6,9.8C363.6,447.6,358.3,446.5,352.9,447.2z"/>
	<path id="Facebook" class="st2" d="M237.7,464c0,1.1-0.9,2-2,2h-9.4v-14.2h4.8l0.7-5.5h-5.5v-3.5c0-1.6,0.4-2.7,2.7-2.7h2.9v-5
		c-0.5-0.1-2.2-0.2-4.3-0.2c-4.2,0-7.1,2.6-7.1,7.3v4.1h-4.8v5.5h4.8V466h-17.6c-1.1,0-2-0.9-2-2v-32.6c0-1.1,0.9-2,2-2h32.7
		c1.1,0,2,0.9,2,2L237.7,464L237.7,464z"/>
	<g id="Google_x2B_">
		<path class="st2" d="M82.4,445.6v5.1c0,0,4.9,0,6.9,0c-1.1,3.3-2.8,5.1-6.9,5.1c-4.2,0-7.5-3.4-7.5-7.6s3.3-7.6,7.5-7.6
			c2.2,0,3.7,0.8,5,1.9c1.1-1.1,1-1.2,3.6-3.7c-2.3-2.1-5.3-3.3-8.6-3.3c-7.1,0-12.8,5.7-12.8,12.8c0,7.1,5.7,12.8,12.8,12.8
			c10.6,0,13.2-9.2,12.3-15.4H82.4V445.6z"/>
		<polygon class="st2" points="105.5,445.9 105.5,441.4 102.4,441.4 102.4,445.9 97.8,445.9 97.8,449 102.4,449 102.4,453.6 
			105.5,453.6 105.5,449 110,449 110,445.9 		"/>
	</g>
</g>
<g id="Facebook_7_">
	<path class="st4" d="M-259,320.6c-10.8,0-19.6-8.8-19.6-19.6s8.8-19.6,19.6-19.6c10.8,0,19.6,8.8,19.6,19.6S-248.2,320.6-259,320.6
		z M-259,282.9c-10,0-18.1,8.1-18.1,18.1s8.1,18.1,18.1,18.1s18.1-8.1,18.1-18.1S-249,282.9-259,282.9z"/>
	<path id="Facebook_8_" class="st4" d="M-250,308.7c0,0.5-0.4,1-1,1h-4.7v-7h2.4l0.3-2.7h-2.7v-1.7c0-0.8,0.2-1.3,1.3-1.3h1.4v-2.5
		c-0.2,0-1.1-0.1-2.1-0.1c-2.1,0-3.5,1.3-3.5,3.6v2h-2.4v2.7h2.4v7h-8.7c-0.5,0-1-0.4-1-1v-16.2c0-0.5,0.4-1,1-1h16.2
		c0.5,0,1,0.4,1,1L-250,308.7L-250,308.7z"/>
</g>
</svg>
