<?xml version="1.0" encoding="utf-8"?>
<!-- Generator: Adobe Illustrator 19.1.0, SVG Export Plug-In . SVG Version: 6.00 Build 0)  -->
<!DOCTYPE svg PUBLIC "-//W3C//DTD SVG 1.1//EN" "http://www.w3.org/Graphics/SVG/1.1/DTD/svg11.dtd">
<svg version="1.1" id="Layer_1" xmlns="http://www.w3.org/2000/svg" xmlns:xlink="http://www.w3.org/1999/xlink" x="0px" y="0px"
	 width="40px" height="40px" viewBox="-219 261 40 40" style="enable-background:new -219 261 40 40;" xml:space="preserve">
<style type="text/css">
	.st0{fill:none;}
	.st1{enable-background:new    ;}
	.st2{fill:#8E99A8;}
	.st3{fill:#24A9E6;}
	.st4{fill:#FFFFFF;}
	.st5{fill:#1CB1E6;}
	.st6{fill:#2A5B83;}
	.st7{fill:#187FB8;}
	.st8{fill:#1A70F9;}
	.st9{fill:#E64C87;}
	.st10{fill:#43619C;}
	.st11{fill:#F24033;}
</style>
<g id="SIGNATURE">
	<rect x="330.1" y="1020.4" class="st0" width="459.6" height="82.7"/>
	<text transform="matrix(1 0 0 1 330.142 1039.5969)" class="st2" style="font-family:'MyriadPro-Regular'; font-size:27px;">CHRISTOPHE KEREBEL</text>
	<rect x="929.2" y="1021.2" class="st0" width="384.4" height="82.7"/>
	<text transform="matrix(1 0 0 1 1055.2455 1040.3501)" class="st2" style="font-family:'MyriadPro-Regular'; font-size:27px;">My Twitter </text>
	<text transform="matrix(1 0 0 1 1180.9454 1040.3501)" class="st3" style="font-family:'MyriadPro-Regular'; font-size:27px;">: @chriskere</text>
</g>
<g id="BACKGROUND">
	<rect x="132.7" y="619.5" class="st2" width="1372.9" height="332"/>
</g>
<g id="_x30_6-SINGLE-WHITE">
	<path id="Vimeo_3_" class="st4" d="M1283.1,799.5c-5.1-0.2-8.5,2.7-10.4,8.5c0.9-0.4,1.8-0.6,2.7-0.6c1.9,0,2.7,1,2.5,3.1
		c-0.1,1.3-0.9,3.1-2.5,5.5c-1.5,2.4-2.7,3.6-3.5,3.6c-1,0-1.9-1.8-2.7-5.5c-0.3-1.1-0.8-3.8-1.5-8.3c-0.7-4.1-2.4-6-5.3-5.8
		c-1.2,0.1-3,1.2-5.4,3.3c-1.8,1.6-3.5,3.1-5.3,4.7l1.7,2.2c1.6-1.1,2.6-1.7,2.9-1.7c1.3,0,2.4,2,3.5,5.9c1,3.6,2,7.2,3,10.7
		c1.5,3.9,3.3,5.8,5.4,5.8c3.5,0,7.7-3.2,12.7-9.6c4.8-6.1,7.3-10.9,7.5-14.5C1288.7,802,1286.9,799.6,1283.1,799.5z"/>
	<path id="Instagram_3_" class="st4" d="M1155.1,796.6h-27.9c-2.4,0-4.4,1.9-4.4,4.3v28c0,2.4,2,4.3,4.4,4.3h27.9
		c2.4,0,4.4-1.9,4.4-4.3v-28C1159.4,798.5,1157.5,796.6,1155.1,796.6z M1149.1,802.3c0-0.6,0.5-1.1,1.1-1.1h3.4
		c0.6,0,1.1,0.5,1.1,1.1v3.4c0,0.6-0.5,1.1-1.1,1.1h-3.4c-0.6,0-1.1-0.5-1.1-1.1V802.3z M1141.1,807.9c3.9,0,7.1,3.1,7.1,7
		s-3.2,7-7.1,7s-7-3.1-7-7C1134.1,811.1,1137.2,807.9,1141.1,807.9z M1156,828.7c0,0.6-0.5,1.1-1.1,1.1h-27.5
		c-0.6,0-1.1-0.5-1.1-1.1v-17.2h4.6c-0.6,0.9-0.8,2.5-0.8,3.5c0,6.1,5,11.1,11.2,11.1s11.2-5,11.2-11.1c0-1-0.1-2.6-0.9-3.5h4.6
		v17.2H1156z"/>
	<path id="Twitter_3_" class="st4" d="M1030.4,799.8c-1.5,0.9-3.1,1.6-4.9,1.9c-1.4-1.5-3.4-2.5-5.6-2.5c-4.2,0-7.7,3.5-7.7,7.9
		c0,0.6,0.1,1.2,0.2,1.8c-6.4-0.3-12-3.5-15.8-8.2c-0.7,1.2-1,2.5-1,4c0,2.7,1.4,5.1,3.4,6.6c-1.3,0-2.4-0.4-3.5-1v0.1
		c0,3.8,2.6,7,6.2,7.7c-0.6,0.2-1.3,0.3-2,0.3c-0.5,0-1,0-1.4-0.1c1,3.1,3.8,5.4,7.2,5.5c-2.6,2.1-5.9,3.4-9.5,3.4
		c-0.6,0-1.2,0-1.8-0.1c3.4,2.2,7.4,3.5,11.8,3.5c14.1,0,21.9-12,21.9-22.4c0-0.3,0-0.7,0-1c1.5-1.1,2.8-2.5,3.8-4.1
		c-1.4,0.6-2.9,1.1-4.4,1.2C1028.6,803.1,1029.8,801.6,1030.4,799.8z"/>
	<g id="LinkedIn_3_">
		<rect x="867.3" y="809.3" class="st4" width="7.2" height="22.8"/>
		<path class="st4" d="M894.1,809c-4.1,0-6.7,2.2-7.2,3.8v-3.6h-8.1c0.1,1.9,0,22.8,0,22.8h8.1v-12.3c0-0.7,0-1.4,0.2-1.9
			c0.6-1.4,1.7-2.8,3.9-2.8c2.8,0,4.1,2.1,4.1,5.2V832h8.2v-12.6C903.2,812.3,899.2,809,894.1,809z"/>
		<path class="st4" d="M870.7,798.5c-2.7,0-4.4,1.7-4.4,4c0,2.2,1.7,3.9,4.3,3.9h0.1c2.7,0,4.4-1.7,4.4-4
			C875,800.2,873.4,798.5,870.7,798.5z"/>
	</g>
	<g id="Behance_3_">
		<path class="st4" d="M752.4,814c0.8-0.4,1.3-0.8,1.7-1.3c0.7-0.8,1-1.9,1-3.3c0-1.3-0.3-2.5-1-3.4c-1.2-1.5-3.1-2.3-5.9-2.4h-10.9
			v22.3h10.2c1.2,0,2.2-0.1,3.2-0.3s1.8-0.6,2.6-1.1c0.6-0.5,1.2-1.1,1.6-1.8c0.7-1,1-2.2,1-3.6c0-1.3-0.3-2.4-0.9-3.3
			C754.4,815.1,753.6,814.4,752.4,814z M741.9,807.5h4.9c1.1,0,2,0.1,2.7,0.3c0.8,0.3,1.2,1,1.2,2.1c0,0.9-0.3,1.6-0.9,2
			c-0.6,0.4-1.4,0.6-2.4,0.6h-5.5V807.5z M749.7,821.7c-0.5,0.3-1.3,0.4-2.3,0.4h-5.5v-6h5.6c1,0,1.7,0.1,2.3,0.4
			c1,0.4,1.4,1.2,1.4,2.4C751.1,820.3,750.6,821.2,749.7,821.7z"/>
		<rect x="760.8" y="804.7" class="st4" width="9.7" height="2.8"/>
		<path class="st4" d="M772.5,812.2c-0.8-1.1-1.7-1.9-2.9-2.4c-1.2-0.5-2.5-0.8-3.9-0.8c-2.5,0-4.4,0.8-6,2.3
			c-1.5,1.5-2.3,3.7-2.3,6.6c0,3.1,0.8,5.3,2.6,6.6c1.7,1.4,3.7,2,5.9,2c2.7,0,4.8-0.8,6.3-2.4c1-1,1.5-2,1.6-3h-4.5
			c-0.3,0.5-0.6,0.9-0.9,1.1c-0.6,0.5-1.4,0.8-2.4,0.8c-0.9,0-1.7-0.2-2.4-0.6c-1.1-0.7-1.7-1.8-1.8-3.5H774c0-1.4,0-2.5-0.1-3.3
			C773.6,814.3,773.2,813.2,772.5,812.2z M761.9,816.1c0.2-1.1,0.5-1.9,1.2-2.6c0.6-0.6,1.5-0.9,2.6-0.9c1,0,1.9,0.3,2.6,0.9
			c0.7,0.6,1.1,1.5,1.2,2.6H761.9z"/>
	</g>
	<path id="Dribbble_3_" class="st4" d="M644,807.8c-0.5-1.1-1-2.1-1.7-3.1s-1.4-1.9-2.2-2.7s-1.7-1.6-2.7-2.2c-1-0.7-2-1.2-3.1-1.7
		s-2.3-0.8-3.4-1.1c-1.2-0.2-2.4-0.4-3.7-0.4c-1.2,0-2.5,0.1-3.7,0.4c-1.2,0.2-2.3,0.6-3.4,1.1c-1.1,0.5-2.1,1-3.1,1.7
		s-1.9,1.4-2.7,2.2s-1.6,1.7-2.2,2.7c-0.7,1-1.2,2-1.7,3.1s-0.8,2.3-1.1,3.4c-0.2,1.2-0.4,2.4-0.4,3.7c0,1.2,0.1,2.5,0.4,3.7
		c0.2,1.2,0.6,2.3,1.1,3.4c0.5,1.1,1,2.1,1.7,3.1s1.4,1.9,2.2,2.7s1.7,1.6,2.7,2.2c1,0.7,2,1.2,3.1,1.7s2.3,0.8,3.4,1.1
		c1.2,0.3,2.4,0.4,3.7,0.4c1.2,0,2.5-0.1,3.7-0.4c1.2-0.2,2.3-0.6,3.4-1.1c1.1-0.5,2.1-1,3.1-1.7s1.9-1.4,2.7-2.2s1.6-1.7,2.2-2.7
		c0.7-1,1.2-2,1.7-3.1s0.8-2.3,1.1-3.4c0.2-1.2,0.4-2.4,0.4-3.7c0-1.2-0.1-2.5-0.4-3.7C644.8,810,644.5,808.9,644,807.8z
		 M627.1,799.2c4,0,7.6,1.5,10.3,3.9c0,0.1-2.3,3.5-8.2,5.7c-2.7-4.9-5.6-8.8-5.9-9.1C624.6,799.4,625.9,799.2,627.1,799.2z
		 M623.4,799.7L623.4,799.7L623.4,799.7C623.3,799.7,623.4,799.7,623.4,799.7z M620.4,800.7c0.2,0.3,3.1,4.2,5.8,9
		c-7.5,2-14,1.9-14.5,1.9C612.8,806.8,616.1,802.8,620.4,800.7z M615.5,825.4c-2.5-2.8-4-6.4-4-10.5c0-0.2,0-0.3,0-0.5
		c0.3,0,8,0.2,16.1-2.2c0.4,0.9,0.9,1.8,1.3,2.7c-0.2,0.1-0.4,0.1-0.6,0.2C619.8,817.8,615.5,825.4,615.5,825.4L615.5,825.4z
		 M627.1,830.6c-3.7,0-7.1-1.3-9.8-3.4c-0.1,0-0.1-0.1-0.2-0.2c0.1,0.1,0.1,0.1,0.2,0.2c0.1,0.1,0.2,0.1,0.2,0.1s3-6.5,12.3-9.8h0.1
		c2.2,5.7,3.1,10.5,3.3,11.9C631.4,830.1,629.3,830.6,627.1,830.6z M635.9,827.9c-0.2-0.9-1-5.5-3-11.2c5.1-0.8,9.4,0.6,9.8,0.7
		C641.9,821.8,639.4,825.5,635.9,827.9z M631.9,814.2c-0.1-0.3-0.2-0.5-0.3-0.8c-0.3-0.8-0.7-1.5-1-2.3c6.2-2.5,8.7-6.2,8.7-6.2
		c2.2,2.7,3.5,6.1,3.6,9.8C642.6,814.7,637.3,813.6,631.9,814.2z"/>
	<path id="Facebook_2_" class="st4" d="M516.7,831.7c0,1.1-0.9,2-2,2h-9.4v-14.2h4.8l0.7-5.5h-5.5v-3.5c0-1.6,0.4-2.7,2.7-2.7h2.9
		v-5c-0.5-0.1-2.2-0.2-4.3-0.2c-4.2,0-7.1,2.6-7.1,7.3v4.1h-4.8v5.5h4.8v14.2h-17.6c-1.1,0-2-0.9-2-2V799c0-1.1,0.9-2,2-2h32.7
		c1.1,0,2,0.9,2,2L516.7,831.7L516.7,831.7z"/>
	<g id="Google_x2B__2_">
		<path class="st4" d="M361.4,812.5v5.1c0,0,4.9,0,6.9,0c-1.1,3.3-2.8,5.1-6.9,5.1c-4.2,0-7.5-3.4-7.5-7.6c0-4.2,3.3-7.6,7.5-7.6
			c2.2,0,3.7,0.8,5,1.9c1.1-1.1,1-1.2,3.6-3.7c-2.3-2.1-5.3-3.3-8.6-3.3c-7.1,0-12.8,5.7-12.8,12.8s5.7,12.8,12.8,12.8
			c10.6,0,13.2-9.2,12.3-15.4L361.4,812.5L361.4,812.5z"/>
		<polygon class="st4" points="384.5,812.7 384.5,808.3 381.4,808.3 381.4,812.7 376.8,812.7 376.8,815.9 381.4,815.9 381.4,820.5 
			384.5,820.5 384.5,815.9 389,815.9 389,812.7 		"/>
	</g>
</g>
<g id="Vimeo_5_">
	<path class="st4" d="M1270.1,648.2c-21,0-38,17-38,38s17,38,38,38s38-17,38-38S1291.1,648.2,1270.1,648.2z M1281,692.4
		c-5,6.4-9.2,9.6-12.7,9.6c-2.1,0-3.9-1.9-5.4-5.9c-1-3.6-2-7.2-3-10.7c-1.1-3.9-2.3-5.9-3.5-5.9c-0.3,0-1.2,0.6-2.9,1.7l-1.7-2.2
		c1.8-1.6,3.6-3.1,5.3-4.7c2.4-2.1,4.2-3.1,5.4-3.3c2.9-0.3,4.6,1.7,5.3,5.8c0.7,4.4,1.2,7.2,1.5,8.3c0.8,3.7,1.7,5.5,2.7,5.5
		c0.8,0,1.9-1.2,3.5-3.6c1.5-2.4,2.3-4.2,2.5-5.5c0.2-2.1-0.6-3.1-2.5-3.1c-0.9,0-1.8,0.2-2.7,0.6c1.8-5.8,5.3-8.6,10.4-8.5
		c3.8,0.1,5.6,2.5,5.3,7.2C1288.3,681.4,1285.8,686.3,1281,692.4z"/>
</g>
<g id="Instagram_5_">
	<path class="st4" d="M1134.1,686.1c0-3.9,3.2-7,7-7c3.9,0,7.1,3.1,7.1,7c0,3.9-3.2,7-7.1,7C1137.2,693.2,1134.1,690,1134.1,686.1z"
		/>
	<path class="st4" d="M1154.6,676.9c0,0.6-0.5,1.2-1.1,1.2h-3.7c-0.6,0-1.2-0.5-1.2-1.2v-3.7c0-0.6,0.5-1.2,1.2-1.2h3.7
		c0.6,0,1.1,0.5,1.1,1.2V676.9z"/>
	<path class="st4" d="M1151.4,683.1h4.2v16.7c0,0.6-0.1,1.3-0.8,1.3h-27.5c-0.6,0-0.7-0.6-0.7-1.3v-16.7h4.2c-0.6,0-0.8,2.2-0.8,3.3
		c0,6.1,5,11,11.2,11s11.2-4.8,11.2-11C1152.3,685.4,1152.1,683.1,1151.4,683.1z"/>
	<path class="st4" d="M1140.1,648.2c-21,0-38,17-38,38s17,38,38,38s38-17,38-38S1161.1,648.2,1140.1,648.2z M1159.6,700.1
		c0,2.4-2.1,4-4.5,4h-28c-2.4,0-4.5-1.6-4.5-4v-28c0-2.4,2.1-4,4.5-4h28c2.4,0,4.5,1.6,4.5,4V700.1z"/>
</g>
<g id="Twitter_5_">
	<path class="st4" d="M1013.1,648.2c-21,0-38,17-38,38s17,38,38,38s38-17,38-38S1034.1,648.2,1013.1,648.2z M1027.6,678.1
		c0,0.3,0,0.7,0,1c0,10.4-7.7,22.4-21.9,22.4c-4.3,0-8.4-1.3-11.8-3.5c0.6,0.1,1.2,0.1,1.8,0.1c3.6,0,6.9-1.3,9.5-3.4
		c-3.4-0.1-6.2-2.3-7.2-5.5c0.5,0.1,1,0.1,1.4,0.1c0.7,0,1.5-0.1,2.1-0.3c-3.5-0.7-6.1-3.9-6.1-7.7v0.1c1,0.6,2.1,0.9,3.4,1
		c-2.1-1.4-3.5-3.8-3.5-6.6c0-1.4,0.4-2.8,1-4c3.8,4.8,9.4,7.9,15.8,8.2c-0.1-0.6-0.2-1.2-0.2-1.8c0-4.3,3.4-7.9,7.7-7.9
		c2.2,0,4.2,1,5.6,2.5c1.8-0.4,3.4-1,4.9-1.9c-0.6,1.8-1.8,3.4-3.4,4.4c1.6-0.2,3-0.6,4.4-1.2C1030.4,675.6,1029.1,677,1027.6,678.1
		z"/>
</g>
<g id="LinKeDin">
	<path class="st4" d="M884.1,648.2c-21,0-38,17-38,38s17,38,38,38s38-17,38-38S905.1,648.2,884.1,648.2z M874.6,703.1h-7v-23h7
		V703.1z M870.7,678.1L870.7,678.1c-2.7,0-4.3-2-4.3-4.2c0-2.2,1.7-4.1,4.4-4.1c2.6,0,4.3,1.9,4.3,4.1
		C875.1,676.2,873.4,678.1,870.7,678.1z M903.6,703.1h-9v-11.7c0-3.1-1-5.2-3.8-5.2c-2.1,0-3.4,1.4-3.9,2.8
		c-0.2,0.5-0.2,1.2-0.2,1.9v12.2H879c0,0,0.1-21,0-23h7.7v3.9c1-1.6,3.4-3.8,7.5-3.8c5.1,0,9.5,3.3,9.5,10.3L903.6,703.1
		L903.6,703.1z"/>
</g>
<g id="Behance_5_">
	<path class="st4" d="M747.4,684.1h-5.8v-5h5.2c1.1,0,2-0.1,2.7,0.2c0.8,0.3,1.2,0.9,1.2,2c0,0.9-0.3,1.8-0.9,2.1
		C749.1,683.7,748.3,684.1,747.4,684.1z"/>
	<path class="st4" d="M751.1,690.1c0,1.4-0.5,2.2-1.5,2.7c-0.5,0.3-1.3,0.3-2.3,0.3h-5.8v-6h5.8c1,0,1.7,0.2,2.3,0.5
		C750.7,688,751.1,688.9,751.1,690.1z"/>
	<path class="st4" d="M755.1,648.2c-21,0-38,17-38,38s17,38,38,38s38-17,38-38S776.1,648.2,755.1,648.2z M760.6,676.1h10v3h-10
		V676.1z M754.9,694c-0.4,0.7-1,1.3-1.6,1.8c-0.7,0.5-1.6,0.9-2.6,1.1c-1,0.2-2,0.3-3.2,0.3h-10v-22h10.7c2.8,0,4.7,0.7,5.9,2.2
		c0.7,1,1,2,1,3.3c0,1.4-0.3,2.4-1,3.2c-0.4,0.5-1,0.9-1.7,1.3c1.1,0.4,2,1.1,2.6,2c0.6,0.9,0.9,2,0.9,3.3
		C755.9,691.7,755.6,692.9,754.9,694z M774,690.1h-12.2c0.1,2,0.7,2.8,1.8,3.5c0.7,0.4,1.5,0.6,2.4,0.6c1,0,1.8-0.3,2.4-0.8
		c0.3-0.3,0.6-0.2,0.9-1.2h4.5c-0.1,1-0.7,2.1-1.6,3.1c-1.5,1.6-3.6,2.5-6.3,2.5c-2.2,0-4.2-0.7-5.9-2c-1.7-1.4-2.6-3.6-2.6-6.6
		c0-2.9,0.8-5,2.3-6.6c1.5-1.5,3.5-2.3,6-2.3c1.5,0,2.8,0.3,3.9,0.8c1.2,0.5,2.1,1.3,2.9,2.5c0.7,1,1.1,2.1,1.3,3.4
		C774,687.6,774,689.1,774,690.1z M765.7,683.7c-1.1,0-2,0.3-2.6,0.9c-0.6,0.6-1,1.5-1.2,2.5h7.6c-0.1-1-0.5-2-1.2-2.5
		C767.6,684,766.7,683.7,765.7,683.7z"/>
</g>
<g id="Dribbble_5_">
	<path class="st4" d="M611.8,682.9c1-4.8,4.3-8.9,8.6-10.9c0.2,0.3,3.1,4.2,5.8,9C618.7,682.9,612.2,682.9,611.8,682.9z"/>
	<path class="st4" d="M615.5,696.5c-2.5-2.8-4-6.4-4-10.5c0-0.2,0-0.3,0-0.5c0.3,0,8,0.2,16.1-2.2c0.4,0.9,0.9,1.8,1.3,2.7
		c-0.2,0.1-0.4,0.1-0.6,0.2C619.8,688.9,615.5,696.5,615.5,696.5z"/>
	<path class="st4" d="M629.9,688.6c2.2,5.7,3.1,10.5,3.3,11.9c-1.9,0.8-3.9,1.2-6.1,1.2c-3.6,0-7-1.2-9.6-3.3
		C617.5,698.4,620.5,691.9,629.9,688.6C629.8,688.6,629.9,688.6,629.9,688.6z"/>
	<path class="st4" d="M629.3,680c-2.7-4.9-5.6-8.8-5.8-9.1c1.2-0.3,2.4-0.5,3.7-0.5c4,0,7.6,1.5,10.3,3.9
		C637.4,674.4,635.2,677.8,629.3,680z"/>
	<path class="st4" d="M642.6,688.6c-0.7,4.4-3.2,8.1-6.7,10.5c-0.2-0.9-1-5.5-3.1-11.2C637.9,687.1,642.3,688.5,642.6,688.6z"/>
	<path class="st4" d="M639.2,676.1c2.2,2.7,3.5,6.1,3.6,9.8c-0.2,0-5.5-1.2-10.9-0.5c-0.1-0.3-0.2-0.5-0.3-0.8
		c-0.3-0.8-0.7-1.5-1-2.3C636.7,679.8,639.2,676.2,639.2,676.1z"/>
	<path class="st4" d="M627.1,648.2c-21,0-38,17-38,38s17,38,38,38s38-17,38-38S648.1,648.2,627.1,648.2z M645.1,689.8
		c-0.2,1.2-0.6,2.3-1.1,3.4c-0.5,1.1-1,2.1-1.7,3.1c-0.6,1-1.4,1.9-2.2,2.7s-1.7,1.6-2.7,2.2c-1,0.7-2,1.2-3.1,1.7s-2.3,0.8-3.5,1.1
		c-1.2,0.2-2.4,0.4-3.7,0.4c-1.2,0-2.5-0.1-3.7-0.4c-1.2-0.2-2.3-0.6-3.4-1.1c-1.1-0.5-2.1-1-3.1-1.7s-1.9-1.4-2.7-2.2
		c-0.8-0.8-1.6-1.7-2.2-2.7c-0.7-1-1.2-2-1.7-3.1c-0.5-1.1-0.8-2.3-1.1-3.4c-0.2-1.2-0.4-2.5-0.4-3.7s0.1-2.5,0.4-3.7
		c0.2-1.2,0.6-2.3,1.1-3.4c0.5-1.1,1-2.1,1.7-3.1s1.4-1.9,2.2-2.7s1.7-1.6,2.7-2.2c1-0.7,2-1.2,3.1-1.7s2.3-0.8,3.4-1.1
		c1.2-0.2,2.5-0.4,3.7-0.4s2.5,0.1,3.7,0.4c1.2,0.2,2.3,0.6,3.5,1.1c1.1,0.5,2.1,1,3.1,1.7s1.9,1.4,2.7,2.2c0.8,0.8,1.6,1.7,2.2,2.7
		c0.7,1,1.2,2,1.7,3.1c0.5,1.1,0.8,2.3,1.1,3.4c0.2,1.2,0.4,2.5,0.4,3.7S645.3,688.6,645.1,689.8z"/>
</g>
<g id="Facebook_4_">
	<path class="st4" d="M498.1,646.8c-21,0-38,17-38,38s17,38,38,38s38-17,38-38S519.1,646.8,498.1,646.8z M516.6,700.8
		c0,1.1-0.5,2.3-1.7,2.3h-9.3v-14h4.8l0.7-6h-5.5v-3.6c0-1.6,0.4-2.4,2.7-2.4h3.3v-5.2c-1-0.1-2.6-0.2-4.6-0.2
		c-4.2,0-7.4,2.6-7.4,7.3v4.1h-5v6h5v14h-17.3c-1.1,0-1.7-1.2-1.7-2.3v-32.7c0-1.1,0.6-2,1.7-2H515c1.1,0,1.7,0.9,1.7,2v32.7
		L516.6,700.8L516.6,700.8z"/>
</g>
<g id="Google_x2B__3_">
	<path class="st4" d="M368.8,646.9c-21,0-38,17-38,38s17,38,38,38s38-17,38-38S389.8,646.9,368.8,646.9z M361.4,698.2
		c-7.1,0-12.8-5.9-12.8-13s5.7-12.9,12.8-12.9c3.3,0,6.4,1.2,8.6,3.3c-2.7,2.5-2.6,2.7-3.6,3.7c-1.3-1.1-2.8-1.9-5-1.9
		c-4.2,0-7.5,3.4-7.5,7.6c0,4.2,3.3,7.9,7.5,7.9s5.8-1.8,6.9-4.8c-2,0-6.8,0-6.8,0v-5h12.2C374.6,689.1,372,698.2,361.4,698.2z
		 M388.6,686.1h-4v5h-3v-5h-5v-3h5v-4h3v4h4V686.1z"/>
</g>
<g id="_x30_4-FULL-COLOR">
	<g id="Vimeo_6_">
		<circle class="st5" cx="1270.1" cy="554.2" r="38"/>
		<g id="Vimeo_2_">
			<path class="st4" d="M1283.1,538.7c-5.1-0.2-8.5,2.7-10.4,8.5c0.9-0.4,1.8-0.6,2.7-0.6c1.9,0,2.7,1,2.5,3.1
				c-0.1,1.3-0.9,3.1-2.5,5.5c-1.5,2.4-2.7,3.6-3.5,3.6c-1,0-1.9-1.8-2.7-5.5c-0.3-1.1-0.8-3.8-1.5-8.3c-0.7-4.1-2.4-6-5.3-5.8
				c-1.2,0.1-3,1.2-5.4,3.3c-1.8,1.6-3.5,3.1-5.3,4.7l1.7,2.2c1.6-1.1,2.6-1.7,2.9-1.7c1.3,0,2.4,2,3.5,5.9c1,3.6,2,7.2,3,10.7
				c1.5,3.9,3.3,5.8,5.4,5.8c3.5,0,7.7-3.2,12.7-9.6c4.8-6.1,7.3-10.9,7.5-14.5C1288.7,541.2,1286.9,538.8,1283.1,538.7z"/>
		</g>
	</g>
	<g id="Instagram_6_">
		<circle class="st6" cx="1140.1" cy="554.2" r="38"/>
		<path id="Instagram_2_" class="st4" d="M1155.1,535.8h-27.9c-2.4,0-4.4,1.9-4.4,4.3v28c0,2.4,2,4.3,4.4,4.3h27.9
			c2.4,0,4.4-1.9,4.4-4.3v-28C1159.4,537.7,1157.5,535.8,1155.1,535.8z M1149.1,541.5c0-0.6,0.5-1.1,1.1-1.1h3.4
			c0.6,0,1.1,0.5,1.1,1.1v3.4c0,0.6-0.5,1.1-1.1,1.1h-3.4c-0.6,0-1.1-0.5-1.1-1.1V541.5z M1141.1,547.1c3.9,0,7.1,3.1,7.1,7
			c0,3.9-3.2,7-7.1,7s-7-3.1-7-7C1134.1,550.3,1137.2,547.1,1141.1,547.1z M1156,567.8c0,0.6-0.5,1.1-1.1,1.1h-27.5
			c-0.6,0-1.1-0.5-1.1-1.1v-17.2h4.6c-0.6,0.9-0.8,2.5-0.8,3.5c0,6.1,5,11.1,11.2,11.1s11.2-5,11.2-11.1c0-1-0.1-2.6-0.9-3.5h4.6
			v17.2H1156z"/>
	</g>
	<g id="Twitter_6_">
		<circle class="st3" cx="1013.1" cy="554.2" r="38"/>
		<path id="Twitter_2_" class="st4" d="M1030.4,539c-1.5,0.9-3.1,1.6-4.9,1.9c-1.4-1.5-3.4-2.5-5.6-2.5c-4.2,0-7.7,3.5-7.7,7.9
			c0,0.6,0.1,1.2,0.2,1.8c-6.4-0.3-12-3.5-15.8-8.2c-0.7,1.2-1,2.5-1,4c0,2.7,1.4,5.1,3.4,6.6c-1.3,0-2.4-0.4-3.5-1v0.1
			c0,3.8,2.6,7,6.2,7.7c-0.6,0.2-1.3,0.3-2,0.3c-0.5,0-1,0-1.4-0.1c1,3.1,3.8,5.4,7.2,5.5c-2.6,2.1-5.9,3.4-9.5,3.4
			c-0.6,0-1.2,0-1.8-0.1c3.4,2.2,7.4,3.5,11.8,3.5c14.1,0,21.9-12,21.9-22.4c0-0.3,0-0.7,0-1c1.5-1.1,2.8-2.5,3.8-4.1
			c-1.4,0.6-2.9,1.1-4.4,1.2C1028.6,542.3,1029.8,540.8,1030.4,539z"/>
	</g>
	<g id="LinKeDin_1_">
		<circle class="st7" cx="884.1" cy="554.2" r="38"/>
		<g id="LinkedIn_2_">
			<rect x="867.3" y="548.5" class="st4" width="7.2" height="22.8"/>
			<path class="st4" d="M894.1,548.2c-4.1,0-6.7,2.2-7.2,3.8v-3.6h-8.1c0.1,1.9,0,22.8,0,22.8h8.1v-12.3c0-0.7,0-1.4,0.2-1.9
				c0.6-1.4,1.7-2.8,3.9-2.8c2.8,0,4.1,2.1,4.1,5.2v11.8h8.2v-12.7C903.2,551.5,899.2,548.2,894.1,548.2z"/>
			<path class="st4" d="M870.7,537.7c-2.7,0-4.4,1.7-4.4,4c0,2.2,1.7,3.9,4.3,3.9h0.1c2.7,0,4.4-1.7,4.4-4
				C875,539.4,873.4,537.7,870.7,537.7z"/>
		</g>
	</g>
	<g id="Behance_6_">
		<circle class="st8" cx="755.1" cy="554.2" r="38"/>
		<g id="Behance_2_">
			<path class="st4" d="M752.4,553.2c0.8-0.4,1.3-0.8,1.7-1.3c0.7-0.8,1-1.9,1-3.3c0-1.3-0.3-2.5-1-3.4c-1.2-1.5-3.1-2.3-5.9-2.4
				h-10.9v22.3h10.2c1.2,0,2.2-0.1,3.2-0.3s1.8-0.6,2.6-1.1c0.6-0.5,1.2-1.1,1.6-1.8c0.7-1,1-2.2,1-3.6c0-1.3-0.3-2.4-0.9-3.3
				C754.4,554.2,753.6,553.6,752.4,553.2z M741.9,546.7h4.9c1.1,0,2,0.1,2.7,0.3c0.8,0.3,1.2,1,1.2,2.1c0,0.9-0.3,1.6-0.9,2
				c-0.6,0.4-1.4,0.6-2.4,0.6h-5.5V546.7z M749.7,560.9c-0.5,0.3-1.3,0.4-2.3,0.4h-5.5v-6h5.6c1,0,1.7,0.1,2.3,0.4
				c1,0.4,1.4,1.2,1.4,2.4C751.1,559.5,750.6,560.4,749.7,560.9z"/>
			<rect x="760.8" y="543.9" class="st4" width="9.7" height="2.8"/>
			<path class="st4" d="M772.5,551.4c-0.8-1.1-1.7-1.9-2.9-2.4c-1.2-0.5-2.5-0.8-3.9-0.8c-2.5,0-4.4,0.8-6,2.3
				c-1.5,1.5-2.3,3.7-2.3,6.6c0,3.1,0.8,5.3,2.6,6.6c1.7,1.4,3.7,2,5.9,2c2.7,0,4.8-0.8,6.3-2.4c1-1,1.5-2,1.6-3h-4.5
				c-0.3,0.5-0.6,0.9-0.9,1.1c-0.6,0.5-1.4,0.8-2.4,0.8c-0.9,0-1.7-0.2-2.4-0.6c-1.1-0.7-1.7-1.8-1.8-3.5H774c0-1.4,0-2.5-0.1-3.3
				C773.6,553.5,773.2,552.4,772.5,551.4z M761.9,555.3c0.2-1.1,0.5-1.9,1.2-2.6c0.6-0.6,1.5-0.9,2.6-0.9c1,0,1.9,0.3,2.6,0.9
				c0.7,0.6,1.1,1.5,1.2,2.6H761.9z"/>
		</g>
	</g>
	<g id="Dribbble_6_">
		<circle class="st9" cx="627.1" cy="554.2" r="38"/>
		<g>
			<path id="Dribbble_2_" class="st4" d="M644,547c-0.5-1.1-1-2.1-1.7-3.1s-1.4-1.9-2.2-2.7c-0.8-0.8-1.7-1.6-2.7-2.2
				c-1-0.7-2-1.2-3.1-1.7s-2.3-0.8-3.4-1.1c-1.2-0.2-2.4-0.4-3.7-0.4c-1.2,0-2.5,0.1-3.7,0.4c-1.2,0.2-2.3,0.6-3.4,1.1
				c-1.1,0.5-2.1,1-3.1,1.7c-1,0.7-1.9,1.4-2.7,2.2c-0.8,0.8-1.6,1.7-2.2,2.7c-0.7,1-1.2,2-1.7,3.1s-0.8,2.3-1.1,3.4
				c-0.2,1.2-0.4,2.4-0.4,3.7c0,1.2,0.1,2.5,0.4,3.7c0.2,1.2,0.6,2.3,1.1,3.4s1,2.1,1.7,3.1s1.4,1.9,2.2,2.7
				c0.8,0.8,1.7,1.6,2.7,2.2c1,0.7,2,1.2,3.1,1.7s2.3,0.8,3.4,1.1c1.2,0.3,2.4,0.4,3.7,0.4c1.2,0,2.5-0.1,3.7-0.4
				c1.2-0.2,2.3-0.6,3.4-1.1c1.1-0.5,2.1-1,3.1-1.7c1-0.7,1.9-1.4,2.7-2.2c0.8-0.8,1.6-1.7,2.2-2.7c0.7-1,1.2-2,1.7-3.1
				s0.8-2.3,1.1-3.4c0.2-1.2,0.4-2.4,0.4-3.7c0-1.2-0.1-2.5-0.4-3.7C644.8,549.2,644.5,548.1,644,547z M627.1,538.4
				c4,0,7.6,1.5,10.3,3.9c0,0.1-2.3,3.5-8.2,5.7c-2.7-4.9-5.6-8.8-5.9-9.1C624.6,538.6,625.9,538.4,627.1,538.4z M623.4,538.9
				L623.4,538.9L623.4,538.9C623.3,538.9,623.4,538.9,623.4,538.9z M620.4,539.9c0.2,0.3,3.1,4.2,5.8,9c-7.5,2-14,1.9-14.5,1.9
				C612.8,546,616.1,542,620.4,539.9z M615.5,564.6c-2.5-2.8-4-6.4-4-10.5c0-0.2,0-0.3,0-0.5c0.3,0,8,0.2,16.1-2.2
				c0.4,0.9,0.9,1.8,1.3,2.7c-0.2,0.1-0.4,0.1-0.6,0.2C619.8,556.9,615.5,564.5,615.5,564.6C615.5,564.5,615.5,564.6,615.5,564.6z
				 M627.1,569.8c-3.7,0-7.1-1.3-9.8-3.4c-0.1,0-0.1-0.1-0.2-0.2c0.1,0.1,0.1,0.1,0.2,0.2c0.1,0.1,0.2,0.1,0.2,0.1s3-6.5,12.3-9.8
				h0.1c2.2,5.7,3.1,10.5,3.3,11.9C631.4,569.3,629.3,569.8,627.1,569.8z M635.9,567.1c-0.2-0.9-1-5.5-3-11.2
				c5.1-0.8,9.4,0.6,9.8,0.7C641.9,560.9,639.4,564.7,635.9,567.1z M631.9,553.4c-0.1-0.3-0.2-0.5-0.3-0.8c-0.3-0.8-0.7-1.5-1-2.3
				c6.2-2.5,8.7-6.2,8.7-6.2c2.2,2.7,3.5,6.1,3.6,9.8C642.6,553.9,637.3,552.7,631.9,553.4z"/>
		</g>
	</g>
	<g id="Facebook_5_">
		<path class="st10" d="M498.1,516.2c-21,0-38,17-38,38s17,38,38,38s38-17,38-38S519.1,516.2,498.1,516.2z M516.6,570.2
			c0,1.1-0.5,1.9-1.7,1.9h-9.3v-14h4.8l0.7-6h-5.5V549c0-1.6,0.4-2.9,2.7-2.9h3.3v-4.8c-1-0.1-2.6-0.2-4.6-0.2
			c-4.2,0-7.4,2.6-7.4,7.3v3.7h-5v6h5v14h-17.3c-1.1,0-1.7-0.7-1.7-1.9v-32.7c0-1.1,0.6-2.5,1.7-2.5H515c1.1,0,1.7,1.4,1.7,2.5v32.7
			H516.6z"/>
	</g>
	<g id="Google_x2B__4_">
		<path class="st11" d="M368.8,516.2c-21,0-38,17-38,38s17,38,38,38s38-17,38-38S389.8,516.2,368.8,516.2z M361.4,567.3
			c-7.1,0-12.8-5.8-12.8-12.9c0-7.1,5.7-12.9,12.8-12.9c3.3,0,6.4,1.3,8.6,3.3c-2.7,2.5-2.6,2.7-3.6,3.7c-1.3-1.1-2.8-1.9-5-1.9
			c-4.2,0-7.5,3.4-7.5,7.6s3.3,7.7,7.5,7.7s5.8-2,6.9-5c-2,0-6.8,0-6.8,0v-5h12.2C374.6,558.1,372,567.3,361.4,567.3z M388.6,555.1
			h-4v5h-3v-5h-5v-3h5v-4h3v4h4V555.1z"/>
	</g>
</g>
<g id="_x30_3-SINGLE-COLOR">
	<path id="Vimeo_4_" class="st5" d="M1283.1,410.4c-5.1-0.2-8.5,2.7-10.4,8.5c0.9-0.4,1.8-0.6,2.7-0.6c1.9,0,2.7,1,2.5,3.1
		c-0.1,1.3-0.9,3.1-2.5,5.5c-1.5,2.4-2.7,3.6-3.5,3.6c-1,0-1.9-1.8-2.7-5.5c-0.3-1.1-0.8-3.8-1.5-8.3c-0.7-4.1-2.4-6-5.3-5.8
		c-1.2,0.1-3,1.2-5.4,3.3c-1.8,1.6-3.5,3.1-5.3,4.7l1.7,2.2c1.6-1.1,2.6-1.7,2.9-1.7c1.3,0,2.4,2,3.5,5.9c1,3.6,2,7.2,3,10.7
		c1.5,3.9,3.3,5.8,5.4,5.8c3.5,0,7.7-3.2,12.7-9.6c4.8-6.1,7.3-10.9,7.5-14.5C1288.7,413,1286.9,410.6,1283.1,410.4z"/>
	<path id="Instagram_4_" class="st6" d="M1155.1,407.5h-27.9c-2.4,0-4.4,1.9-4.4,4.3v28c0,2.4,2,4.3,4.4,4.3h27.9
		c2.4,0,4.4-1.9,4.4-4.3v-28C1159.4,409.5,1157.5,407.5,1155.1,407.5z M1149.1,413.3c0-0.6,0.5-1.1,1.1-1.1h3.4
		c0.6,0,1.1,0.5,1.1,1.1v3.4c0,0.6-0.5,1.1-1.1,1.1h-3.4c-0.6,0-1.1-0.5-1.1-1.1V413.3z M1141.1,418.9c3.9,0,7.1,3.1,7.1,7
		s-3.2,7-7.1,7s-7-3.1-7-7S1137.2,418.9,1141.1,418.9z M1156,439.6c0,0.6-0.5,1.1-1.1,1.1h-27.5c-0.6,0-1.1-0.5-1.1-1.1v-17.2h4.6
		c-0.6,0.9-0.8,2.5-0.8,3.5c0,6.1,5,11.1,11.2,11.1s11.2-5,11.2-11.1c0-1-0.1-2.6-0.9-3.5h4.6v17.2H1156z"/>
	<path id="Twitter_4_" class="st3" d="M1030.4,410.7c-1.5,0.9-3.1,1.6-4.9,1.9c-1.4-1.5-3.4-2.5-5.6-2.5c-4.2,0-7.7,3.5-7.7,7.9
		c0,0.6,0.1,1.2,0.2,1.8c-6.4-0.3-12-3.5-15.8-8.2c-0.7,1.2-1,2.5-1,4c0,2.7,1.4,5.1,3.4,6.6c-1.3,0-2.4-0.4-3.5-1v0.1
		c0,3.8,2.6,7,6.2,7.7c-0.6,0.2-1.3,0.3-2,0.3c-0.5,0-1,0-1.4-0.1c1,3.1,3.8,5.4,7.2,5.5c-2.6,2.1-5.9,3.4-9.5,3.4
		c-0.6,0-1.2,0-1.8-0.1c3.4,2.2,7.4,3.5,11.8,3.5c14.1,0,21.9-12,21.9-22.4c0-0.3,0-0.7,0-1c1.5-1.1,2.8-2.5,3.8-4.1
		c-1.4,0.6-2.9,1.1-4.4,1.2C1028.6,414.1,1029.8,412.6,1030.4,410.7z"/>
	<g id="LinkedIn_4_">
		<rect x="867.3" y="420.2" class="st7" width="7.2" height="22.8"/>
		<path class="st7" d="M894.1,420c-4.1,0-6.7,2.2-7.2,3.8v-3.6h-8.1c0.1,1.9,0,22.8,0,22.8h8.1v-12.3c0-0.7,0-1.4,0.2-1.9
			c0.6-1.4,1.7-2.8,3.9-2.8c2.8,0,4.1,2.1,4.1,5.2V443h8.2v-12.7C903.2,423.3,899.2,420,894.1,420z"/>
		<path class="st7" d="M870.7,409.5c-2.7,0-4.4,1.7-4.4,4c0,2.2,1.7,3.9,4.3,3.9h0.1c2.7,0,4.4-1.7,4.4-4
			C875,411.2,873.4,409.5,870.7,409.5z"/>
	</g>
	<g id="Behance_4_">
		<path class="st8" d="M752.4,424.9c0.8-0.4,1.3-0.8,1.7-1.3c0.7-0.8,1-1.9,1-3.3c0-1.3-0.3-2.5-1-3.4c-1.2-1.5-3.1-2.3-5.9-2.4
			h-10.9v22.3h10.2c1.2,0,2.2-0.1,3.2-0.3s1.8-0.6,2.6-1.1c0.6-0.5,1.2-1.1,1.6-1.8c0.7-1,1-2.2,1-3.6c0-1.3-0.3-2.4-0.9-3.3
			C754.4,426,753.6,425.3,752.4,424.9z M741.9,418.5h4.9c1.1,0,2,0.1,2.7,0.3c0.8,0.3,1.2,1,1.2,2.1c0,0.9-0.3,1.6-0.9,2
			c-0.6,0.4-1.4,0.6-2.4,0.6h-5.5V418.5z M749.7,432.6c-0.5,0.3-1.3,0.4-2.3,0.4h-5.5v-6h5.6c1,0,1.7,0.1,2.3,0.4
			c1,0.4,1.4,1.2,1.4,2.4C751.1,431.2,750.6,432.2,749.7,432.6z"/>
		<rect x="760.8" y="415.6" class="st8" width="9.7" height="2.8"/>
		<path class="st8" d="M772.5,423.2c-0.8-1.1-1.7-1.9-2.9-2.4c-1.2-0.5-2.5-0.8-3.9-0.8c-2.5,0-4.4,0.8-6,2.3
			c-1.5,1.5-2.3,3.7-2.3,6.6c0,3.1,0.8,5.3,2.6,6.6c1.7,1.4,3.7,2,5.9,2c2.7,0,4.8-0.8,6.3-2.4c1-1,1.5-2,1.6-3h-4.5
			c-0.3,0.5-0.6,0.9-0.9,1.1c-0.6,0.5-1.4,0.8-2.4,0.8c-0.9,0-1.7-0.2-2.4-0.6c-1.1-0.7-1.7-1.8-1.8-3.5H774c0-1.4,0-2.5-0.1-3.3
			C773.6,425.3,773.2,424.2,772.5,423.2z M761.9,427c0.2-1.1,0.5-1.9,1.2-2.6c0.6-0.6,1.5-0.9,2.6-0.9c1,0,1.9,0.3,2.6,0.9
			s1.1,1.5,1.2,2.6H761.9z"/>
	</g>
	<path id="Dribbble_4_" class="st9" d="M644,418.7c-0.5-1.1-1-2.1-1.7-3.1s-1.4-1.9-2.2-2.7s-1.7-1.6-2.7-2.2c-1-0.7-2-1.2-3.1-1.7
		s-2.3-0.8-3.4-1.1c-1.2-0.2-2.4-0.4-3.7-0.4c-1.2,0-2.5,0.1-3.7,0.4c-1.2,0.2-2.3,0.6-3.4,1.1c-1.1,0.5-2.1,1-3.1,1.7
		c-1,0.7-1.9,1.4-2.7,2.2s-1.6,1.7-2.2,2.7c-0.7,1-1.2,2-1.7,3.1c-0.5,1.1-0.8,2.3-1.1,3.4c-0.2,1.2-0.4,2.4-0.4,3.7
		c0,1.2,0.1,2.5,0.4,3.7c0.2,1.2,0.6,2.3,1.1,3.4c0.5,1.1,1,2.1,1.7,3.1s1.4,1.9,2.2,2.7s1.7,1.6,2.7,2.2c1,0.7,2,1.2,3.1,1.7
		s2.3,0.8,3.4,1.1c1.2,0.3,2.4,0.4,3.7,0.4c1.2,0,2.5-0.1,3.7-0.4c1.2-0.2,2.3-0.6,3.4-1.1c1.1-0.5,2.1-1,3.1-1.7
		c1-0.7,1.9-1.4,2.7-2.2s1.6-1.7,2.2-2.7c0.7-1,1.2-2,1.7-3.1c0.5-1.1,0.8-2.3,1.1-3.4c0.2-1.2,0.4-2.4,0.4-3.7
		c0-1.2-0.1-2.5-0.4-3.7C644.8,421,644.5,419.8,644,418.7z M627.1,410.2c4,0,7.6,1.5,10.3,3.9c0,0.1-2.3,3.5-8.2,5.7
		c-2.7-4.9-5.6-8.8-5.9-9.1C624.6,410.4,625.9,410.2,627.1,410.2z M623.4,410.6C623.4,410.7,623.4,410.7,623.4,410.6
		C623.4,410.7,623.4,410.7,623.4,410.6C623.3,410.7,623.4,410.7,623.4,410.6z M620.4,411.7c0.2,0.3,3.1,4.2,5.8,9
		c-7.5,2-14,1.9-14.5,1.9C612.8,417.8,616.1,413.8,620.4,411.7z M615.5,436.3c-2.5-2.8-4-6.4-4-10.5c0-0.2,0-0.3,0-0.5
		c0.3,0,8,0.2,16.1-2.2c0.4,0.9,0.9,1.8,1.3,2.7c-0.2,0.1-0.4,0.1-0.6,0.2C619.8,428.7,615.5,436.3,615.5,436.3L615.5,436.3z
		 M627.1,441.5c-3.7,0-7.1-1.3-9.8-3.4c-0.1,0-0.1-0.1-0.2-0.2c0.1,0.1,0.1,0.1,0.2,0.2c0.1,0.1,0.2,0.1,0.2,0.1s3-6.5,12.3-9.8h0.1
		c2.2,5.7,3.1,10.5,3.3,11.9C631.4,441.1,629.3,441.5,627.1,441.5z M635.9,438.8c-0.2-0.9-1-5.5-3-11.2c5.1-0.8,9.4,0.6,9.8,0.7
		C641.9,432.7,639.4,436.5,635.9,438.8z M631.9,425.2c-0.1-0.3-0.2-0.5-0.3-0.8c-0.3-0.8-0.7-1.5-1-2.3c6.2-2.5,8.7-6.2,8.7-6.2
		c2.2,2.7,3.5,6.1,3.6,9.8C642.6,425.6,637.3,424.5,631.9,425.2z"/>
	<path id="Facebook_3_" class="st10" d="M516.7,442c0,1.1-0.9,2-2,2h-9.4v-14.2h4.8l0.7-5.5h-5.5v-3.5c0-1.6,0.4-2.7,2.7-2.7h2.9v-5
		c-0.5-0.1-2.2-0.2-4.3-0.2c-4.2,0-7.1,2.6-7.1,7.3v4.1h-4.8v5.5h4.8V444h-17.6c-1.1,0-2-0.9-2-2v-32.6c0-1.1,0.9-2,2-2h32.7
		c1.1,0,2,0.9,2,2L516.7,442L516.7,442z"/>
	<g id="Google_x2B__1_">
		<path class="st11" d="M361.4,423.6v5.1c0,0,4.9,0,6.9,0c-1.1,3.3-2.8,5.1-6.9,5.1c-4.2,0-7.5-3.4-7.5-7.6s3.3-7.6,7.5-7.6
			c2.2,0,3.7,0.8,5,1.9c1.1-1.1,1-1.2,3.6-3.7c-2.3-2.1-5.3-3.3-8.6-3.3c-7.1,0-12.8,5.7-12.8,12.8c0,7.1,5.7,12.8,12.8,12.8
			c10.6,0,13.2-9.2,12.3-15.4L361.4,423.6L361.4,423.6z"/>
		<polygon class="st11" points="384.5,423.9 384.5,419.4 381.4,419.4 381.4,423.9 376.8,423.9 376.8,427 381.4,427 381.4,431.6 
			384.5,431.6 384.5,427 389,427 389,423.9 		"/>
	</g>
</g>
<g id="Vimeo_7_">
	<g id="Vimeo_1_">
		<path class="st5" d="M1283.1,280.7c-5.1-0.2-8.5,2.7-10.4,8.5c0.9-0.4,1.8-0.6,2.7-0.6c1.9,0,2.7,1,2.5,3.1
			c-0.1,1.3-0.9,3.1-2.5,5.5c-1.5,2.4-2.7,3.6-3.5,3.6c-1,0-1.9-1.8-2.7-5.5c-0.3-1.1-0.8-3.8-1.5-8.3c-0.7-4.1-2.4-6-5.3-5.8
			c-1.2,0.1-3,1.2-5.4,3.3c-1.8,1.6-3.5,3.1-5.3,4.7l1.7,2.2c1.6-1.1,2.6-1.7,2.9-1.7c1.3,0,2.4,2,3.5,5.9c1,3.6,2,7.2,3,10.7
			c1.5,3.9,3.3,5.8,5.4,5.8c3.5,0,7.7-3.2,12.7-9.6c4.8-6.1,7.3-10.9,7.5-14.5C1288.7,283.2,1286.9,280.8,1283.1,280.7z"/>
	</g>
	<path class="st5" d="M1270.1,335.7c-21.8,0-39.5-17.7-39.5-39.5c0-21.8,17.7-39.5,39.5-39.5s39.5,17.7,39.5,39.5
		C1309.6,318,1291.9,335.7,1270.1,335.7z M1270.1,259.7c-20.1,0-36.5,16.4-36.5,36.5c0,20.1,16.4,36.5,36.5,36.5
		s36.5-16.4,36.5-36.5C1306.6,276.1,1290.2,259.7,1270.1,259.7z"/>
</g>
<g id="Instagram_7_">
	<path id="Instagram_1_" class="st6" d="M1155.1,277.8h-27.9c-2.4,0-4.4,1.9-4.4,4.3v28c0,2.4,2,4.3,4.4,4.3h27.9
		c2.4,0,4.4-1.9,4.4-4.3v-28C1159.4,279.7,1157.5,277.8,1155.1,277.8z M1149.1,283.5c0-0.6,0.5-1.1,1.1-1.1h3.4
		c0.6,0,1.1,0.5,1.1,1.1v3.4c0,0.6-0.5,1.1-1.1,1.1h-3.4c-0.6,0-1.1-0.5-1.1-1.1V283.5z M1141.1,289.1c3.9,0,7.1,3.1,7.1,7
		s-3.2,7-7.1,7s-7-3.1-7-7C1134.1,292.3,1137.2,289.1,1141.1,289.1z M1156,309.8c0,0.6-0.5,1.1-1.1,1.1h-27.5
		c-0.6,0-1.1-0.5-1.1-1.1v-17.2h4.6c-0.6,0.9-0.8,2.5-0.8,3.5c0,6.1,5,11.1,11.2,11.1s11.2-5,11.2-11.1c0-1-0.1-2.6-0.9-3.5h4.6
		v17.2H1156z"/>
	<path class="st6" d="M1140.1,335.7c-21.8,0-39.5-17.7-39.5-39.5c0-21.8,17.7-39.5,39.5-39.5s39.5,17.7,39.5,39.5
		C1179.6,318,1161.9,335.7,1140.1,335.7z M1140.1,259.7c-20.1,0-36.5,16.4-36.5,36.5c0,20.1,16.4,36.5,36.5,36.5
		s36.5-16.4,36.5-36.5C1176.6,276.1,1160.2,259.7,1140.1,259.7z"/>
</g>
<g id="Twitter_7_">
	<path id="Twitter_1_" class="st3" d="M1030.4,281c-1.5,0.9-3.1,1.6-4.9,1.9c-1.4-1.5-3.4-2.5-5.6-2.5c-4.2,0-7.7,3.5-7.7,7.9
		c0,0.6,0.1,1.2,0.2,1.8c-6.4-0.3-12-3.5-15.8-8.2c-0.7,1.2-1,2.5-1,4c0,2.7,1.4,5.1,3.4,6.6c-1.3,0-2.4-0.4-3.5-1v0.1
		c0,3.8,2.6,7,6.2,7.7c-0.6,0.2-1.3,0.3-2,0.3c-0.5,0-1,0-1.4-0.1c1,3.1,3.8,5.4,7.2,5.5c-2.6,2.1-5.9,3.4-9.5,3.4
		c-0.6,0-1.2,0-1.8-0.1c3.4,2.2,7.4,3.5,11.8,3.5c14.1,0,21.9-12,21.9-22.4c0-0.3,0-0.7,0-1c1.5-1.1,2.8-2.5,3.8-4.1
		c-1.4,0.6-2.9,1.1-4.4,1.2C1028.6,284.3,1029.8,282.8,1030.4,281z"/>
	<path class="st3" d="M1013.1,335.7c-21.8,0-39.5-17.7-39.5-39.5c0-21.8,17.7-39.5,39.5-39.5s39.5,17.7,39.5,39.5
		C1052.6,318,1034.9,335.7,1013.1,335.7z M1013.1,259.7c-20.1,0-36.5,16.4-36.5,36.5c0,20.1,16.4,36.5,36.5,36.5
		s36.5-16.4,36.5-36.5C1049.6,276.1,1033.2,259.7,1013.1,259.7z"/>
</g>
<g id="Behance_7_">
	<g id="Behance_1_">
		<path class="st8" d="M752.4,295.2c0.8-0.4,1.3-0.8,1.7-1.3c0.7-0.8,1-1.9,1-3.3c0-1.3-0.3-2.5-1-3.4c-1.2-1.5-3.1-2.3-5.9-2.4
			h-10.9v22.3h10.2c1.2,0,2.2-0.1,3.2-0.3c1-0.2,1.8-0.6,2.6-1.1c0.6-0.5,1.2-1.1,1.6-1.8c0.7-1,1-2.2,1-3.6c0-1.3-0.3-2.4-0.9-3.3
			C754.4,296.2,753.6,295.6,752.4,295.2z M741.9,288.7h4.9c1.1,0,2,0.1,2.7,0.3c0.8,0.3,1.2,1,1.2,2.1c0,0.9-0.3,1.6-0.9,2
			c-0.6,0.4-1.4,0.6-2.4,0.6h-5.5V288.7z M749.7,302.9c-0.5,0.3-1.3,0.4-2.3,0.4h-5.5v-6h5.6c1,0,1.7,0.1,2.3,0.4
			c1,0.4,1.4,1.2,1.4,2.4C751.1,301.5,750.6,302.4,749.7,302.9z"/>
		<rect x="760.8" y="285.9" class="st8" width="9.7" height="2.8"/>
		<path class="st8" d="M772.5,293.4c-0.8-1.1-1.7-1.9-2.9-2.4c-1.2-0.5-2.5-0.8-3.9-0.8c-2.5,0-4.4,0.8-6,2.3
			c-1.5,1.5-2.3,3.7-2.3,6.6c0,3.1,0.8,5.3,2.6,6.6c1.7,1.4,3.7,2,5.9,2c2.7,0,4.8-0.8,6.3-2.4c1-1,1.5-2,1.6-3h-4.5
			c-0.3,0.5-0.6,0.9-0.9,1.1c-0.6,0.5-1.4,0.8-2.4,0.8c-0.9,0-1.7-0.2-2.4-0.6c-1.1-0.7-1.7-1.8-1.8-3.5H774c0-1.4,0-2.5-0.1-3.3
			C773.6,295.5,773.2,294.4,772.5,293.4z M761.9,297.3c0.2-1.1,0.5-1.9,1.2-2.6c0.6-0.6,1.5-0.9,2.6-0.9c1,0,1.9,0.3,2.6,0.9
			c0.7,0.6,1.1,1.5,1.2,2.6H761.9z"/>
	</g>
	<path class="st8" d="M755.1,335.7c-21.8,0-39.5-17.7-39.5-39.5c0-21.8,17.7-39.5,39.5-39.5c21.8,0,39.5,17.7,39.5,39.5
		C794.6,318,776.9,335.7,755.1,335.7z M755.1,259.7c-20.1,0-36.5,16.4-36.5,36.5c0,20.1,16.4,36.5,36.5,36.5s36.5-16.4,36.5-36.5
		C791.6,276.1,775.2,259.7,755.1,259.7z"/>
</g>
<g id="Dribbble_7_">
	<g>
		<path id="Dribbble_1_" class="st9" d="M644,289c-0.5-1.1-1-2.1-1.7-3.1s-1.4-1.9-2.2-2.7c-0.8-0.8-1.7-1.6-2.7-2.2
			c-1-0.7-2-1.2-3.1-1.7s-2.3-0.8-3.4-1.1c-1.2-0.2-2.4-0.4-3.7-0.4c-1.2,0-2.5,0.1-3.7,0.4c-1.2,0.2-2.3,0.6-3.4,1.1
			c-1.1,0.5-2.1,1-3.1,1.7s-1.9,1.4-2.7,2.2c-0.8,0.8-1.6,1.7-2.2,2.7c-0.7,1-1.2,2-1.7,3.1s-0.8,2.3-1.1,3.4
			c-0.2,1.2-0.4,2.4-0.4,3.7c0,1.2,0.1,2.5,0.4,3.7c0.2,1.2,0.6,2.3,1.1,3.4c0.5,1.1,1,2.1,1.7,3.1s1.4,1.9,2.2,2.7s1.7,1.6,2.7,2.2
			c1,0.7,2,1.2,3.1,1.7s2.3,0.8,3.4,1.1c1.2,0.3,2.4,0.4,3.7,0.4c1.2,0,2.5-0.1,3.7-0.4c1.2-0.2,2.3-0.6,3.4-1.1
			c1.1-0.5,2.1-1,3.1-1.7c1-0.7,1.9-1.4,2.7-2.2s1.6-1.7,2.2-2.7c0.7-1,1.2-2,1.7-3.1c0.5-1.1,0.8-2.3,1.1-3.4
			c0.2-1.2,0.4-2.4,0.4-3.7c0-1.2-0.1-2.5-0.4-3.7C644.8,291.2,644.5,290.1,644,289z M627.1,280.4c4,0,7.6,1.5,10.3,3.9
			c0,0.1-2.3,3.5-8.2,5.7c-2.7-4.9-5.6-8.8-5.9-9.1C624.6,280.6,625.9,280.4,627.1,280.4z M623.4,280.9L623.4,280.9L623.4,280.9
			C623.3,280.9,623.4,280.9,623.4,280.9z M620.4,281.9c0.2,0.3,3.1,4.2,5.8,9c-7.5,2-14,1.9-14.5,1.9
			C612.8,288,616.1,284,620.4,281.9z M615.5,306.6c-2.5-2.8-4-6.4-4-10.5c0-0.2,0-0.3,0-0.5c0.3,0,8,0.2,16.1-2.2
			c0.4,0.9,0.9,1.8,1.3,2.7c-0.2,0.1-0.4,0.1-0.6,0.2C619.8,298.9,615.5,306.5,615.5,306.6C615.5,306.5,615.5,306.6,615.5,306.6z
			 M627.1,311.8c-3.7,0-7.1-1.3-9.8-3.4c-0.1,0-0.1-0.1-0.2-0.2c0.1,0.1,0.1,0.1,0.2,0.2c0.1,0.1,0.2,0.1,0.2,0.1s3-6.5,12.3-9.8
			h0.1c2.2,5.7,3.1,10.5,3.3,11.9C631.4,311.3,629.3,311.8,627.1,311.8z M635.9,309.1c-0.2-0.9-1-5.5-3-11.2
			c5.1-0.8,9.4,0.6,9.8,0.7C641.9,302.9,639.4,306.7,635.9,309.1z M631.9,295.4c-0.1-0.3-0.2-0.5-0.3-0.8c-0.3-0.8-0.7-1.5-1-2.3
			c6.2-2.5,8.7-6.2,8.7-6.2c2.2,2.7,3.5,6.1,3.6,9.8C642.6,295.9,637.3,294.7,631.9,295.4z"/>
	</g>
	<path class="st9" d="M627.1,335.7c-21.8,0-39.5-17.7-39.5-39.5c0-21.8,17.7-39.5,39.5-39.5s39.5,17.7,39.5,39.5
		C666.6,318,648.9,335.7,627.1,335.7z M627.1,259.7c-20.1,0-36.5,16.4-36.5,36.5c0,20.1,16.4,36.5,36.5,36.5s36.5-16.4,36.5-36.5
		C663.6,276.1,647.2,259.7,627.1,259.7z"/>
</g>
<g id="Facebook_6_">
	<path class="st10" d="M499.1,334.7c-21.8,0-39.5-17.7-39.5-39.5c0-21.8,17.7-39.5,39.5-39.5s39.5,17.7,39.5,39.5
		C538.6,317,520.9,334.7,499.1,334.7z M499.1,258.7c-20.1,0-36.5,16.4-36.5,36.5c0,20.1,16.4,36.5,36.5,36.5s36.5-16.4,36.5-36.5
		C535.6,275.1,519.2,258.7,499.1,258.7z"/>
	<path id="Facebook_1_" class="st10" d="M517.2,310.8c0,1.1-0.9,2-2,2h-9.4v-14.2h4.8l0.7-5.5h-5.5v-3.5c0-1.6,0.4-2.7,2.7-2.7h2.9
		v-5c-0.5-0.1-2.2-0.2-4.3-0.2c-4.2,0-7.1,2.6-7.1,7.3v4.1h-4.8v5.5h4.8v14.2h-17.6c-1.1,0-2-0.9-2-2v-32.7c0-1.1,0.9-2,2-2h32.7
		c1.1,0,2,0.9,2,2L517.2,310.8L517.2,310.8z"/>
</g>
<g id="Google_x2B__5_">
	<path class="st11" d="M369.1,334.7c-21.8,0-39.5-17.7-39.5-39.5c0-21.8,17.7-39.5,39.5-39.5s39.5,17.7,39.5,39.5
		C408.6,317,390.9,334.7,369.1,334.7z M369.1,258.7c-20.1,0-36.5,16.4-36.5,36.5c0,20.1,16.4,36.5,36.5,36.5s36.5-16.4,36.5-36.5
		C405.6,275.1,389.2,258.7,369.1,258.7z"/>
	<path class="st11" d="M361.4,292.3v5.1c0,0,4.9,0,6.9,0c-1.1,3.3-2.8,5.1-6.9,5.1c-4.2,0-7.5-3.4-7.5-7.6c0-4.2,3.3-7.6,7.5-7.6
		c2.2,0,3.7,0.8,5,1.9c1.1-1.1,1-1.2,3.6-3.7c-2.3-2.1-5.3-3.3-8.6-3.3c-7.1,0-12.8,5.7-12.8,12.8s5.7,12.8,12.8,12.8
		c10.6,0,13.2-9.2,12.3-15.4L361.4,292.3L361.4,292.3z"/>
	<polygon class="st11" points="384.5,292.6 384.5,288.1 381.4,288.1 381.4,292.6 376.8,292.6 376.8,295.8 381.4,295.8 381.4,300.3 
		384.5,300.3 384.5,295.8 389,295.8 389,292.6 	"/>
</g>
<g id="_x30_1-SINGLE-GREY">
	<path id="Vimeo" class="st2" d="M1283.1,151.4c-5.1-0.2-8.5,2.7-10.4,8.5c0.9-0.4,1.8-0.6,2.7-0.6c1.9,0,2.7,1,2.5,3.1
		c-0.1,1.3-0.9,3.1-2.5,5.5c-1.5,2.4-2.7,3.6-3.5,3.6c-1,0-1.9-1.8-2.7-5.5c-0.3-1.1-0.8-3.8-1.5-8.3c-0.7-4.1-2.4-6-5.3-5.8
		c-1.2,0.1-3,1.2-5.4,3.3c-1.8,1.6-3.5,3.1-5.3,4.7l1.7,2.2c1.6-1.1,2.6-1.7,2.9-1.7c1.3,0,2.4,2,3.5,5.9c1,3.6,2,7.2,3,10.7
		c1.5,3.9,3.3,5.8,5.4,5.8c3.5,0,7.7-3.2,12.7-9.6c4.8-6.1,7.3-10.9,7.5-14.5C1288.7,154,1286.9,151.6,1283.1,151.4z"/>
	<path id="Instagram" class="st2" d="M1155.1,148.5h-27.9c-2.4,0-4.4,1.9-4.4,4.3v28c0,2.4,2,4.3,4.4,4.3h27.9
		c2.4,0,4.4-1.9,4.4-4.3v-28C1159.4,150.5,1157.5,148.5,1155.1,148.5z M1149.1,154.3c0-0.6,0.5-1.1,1.1-1.1h3.4
		c0.6,0,1.1,0.5,1.1,1.1v3.4c0,0.6-0.5,1.1-1.1,1.1h-3.4c-0.6,0-1.1-0.5-1.1-1.1V154.3z M1141.1,159.9c3.9,0,7.1,3.1,7.1,7
		c0,3.9-3.2,7-7.1,7s-7-3.1-7-7C1134.1,163,1137.2,159.9,1141.1,159.9z M1156,180.6c0,0.6-0.5,1.1-1.1,1.1h-27.5
		c-0.6,0-1.1-0.5-1.1-1.1v-17.2h4.6c-0.6,0.9-0.8,2.5-0.8,3.5c0,6.1,5,11.1,11.2,11.1s11.2-5,11.2-11.1c0-1-0.1-2.6-0.9-3.5h4.6
		v17.2C1156.2,180.6,1156,180.6,1156,180.6z"/>
	<path id="Twitter" class="st2" d="M1030.4,151.7c-1.5,0.9-3.1,1.6-4.9,1.9c-1.4-1.5-3.4-2.5-5.6-2.5c-4.2,0-7.7,3.5-7.7,7.9
		c0,0.6,0.1,1.2,0.2,1.8c-6.4-0.3-12-3.5-15.8-8.2c-0.7,1.2-1,2.5-1,4c0,2.7,1.4,5.1,3.4,6.6c-1.3,0-2.4-0.4-3.5-1v0.1
		c0,3.8,2.6,7,6.2,7.7c-0.6,0.2-1.3,0.3-2,0.3c-0.5,0-1,0-1.4-0.1c1,3.1,3.8,5.4,7.2,5.5c-2.6,2.1-5.9,3.4-9.5,3.4
		c-0.6,0-1.2,0-1.8-0.1c3.4,2.2,7.4,3.5,11.8,3.5c14.1,0,21.9-12,21.9-22.4c0-0.3,0-0.7,0-1c1.5-1.1,2.8-2.5,3.8-4.1
		c-1.4,0.6-2.9,1.1-4.4,1.2C1028.6,155.1,1029.8,153.6,1030.4,151.7z"/>
	<g id="LinkedIn">
		<rect x="867.3" y="161.2" class="st2" width="7.2" height="22.8"/>
		<path class="st2" d="M894.1,161c-4.1,0-6.7,2.2-7.2,3.8v-3.6h-8.1c0.1,1.9,0,22.8,0,22.8h8.1v-12.3c0-0.7,0-1.4,0.2-1.9
			c0.6-1.4,1.7-2.8,3.9-2.8c2.8,0,4.1,2.1,4.1,5.2V184h8.2v-12.7C903.2,164.3,899.2,161,894.1,161z"/>
		<path class="st2" d="M870.7,150.5c-2.7,0-4.4,1.7-4.4,4c0,2.2,1.7,3.9,4.3,3.9h0.1c2.7,0,4.4-1.7,4.4-4
			C875,152.2,873.4,150.5,870.7,150.5z"/>
	</g>
	<g id="Behance">
		<path class="st2" d="M752.4,165.9c0.8-0.4,1.3-0.8,1.7-1.3c0.7-0.8,1-1.9,1-3.3c0-1.3-0.3-2.5-1-3.4c-1.2-1.5-3.1-2.3-5.9-2.4
			h-10.9v22.3h10.2c1.2,0,2.2-0.1,3.2-0.3s1.8-0.6,2.6-1.1c0.6-0.5,1.2-1.1,1.6-1.8c0.7-1,1-2.2,1-3.6c0-1.3-0.3-2.4-0.9-3.3
			C754.4,167,753.6,166.3,752.4,165.9z M741.9,159.5h4.9c1.1,0,2,0.1,2.7,0.3c0.8,0.3,1.2,1,1.2,2.1c0,0.9-0.3,1.6-0.9,2
			c-0.6,0.4-1.4,0.6-2.4,0.6h-5.5V159.5z M749.7,173.6c-0.5,0.3-1.3,0.4-2.3,0.4h-5.5v-6h5.6c1,0,1.7,0.1,2.3,0.4
			c1,0.4,1.4,1.2,1.4,2.4C751.1,172.2,750.6,173.2,749.7,173.6z"/>
		<rect x="760.8" y="156.6" class="st2" width="9.7" height="2.8"/>
		<path class="st2" d="M772.5,164.2c-0.8-1.1-1.7-1.9-2.9-2.4c-1.2-0.5-2.5-0.8-3.9-0.8c-2.5,0-4.4,0.8-6,2.3
			c-1.5,1.5-2.3,3.7-2.3,6.6c0,3.1,0.8,5.3,2.6,6.6c1.7,1.4,3.7,2,5.9,2c2.7,0,4.8-0.8,6.3-2.4c1-1,1.5-2,1.6-3h-4.5
			c-0.3,0.5-0.6,0.9-0.9,1.1c-0.6,0.5-1.4,0.8-2.4,0.8c-0.9,0-1.7-0.2-2.4-0.6c-1.1-0.7-1.7-1.8-1.8-3.5H774c0-1.4,0-2.5-0.1-3.3
			C773.6,166.3,773.2,165.2,772.5,164.2z M761.9,168c0.2-1.1,0.5-1.9,1.2-2.6c0.6-0.6,1.5-0.9,2.6-0.9c1,0,1.9,0.3,2.6,0.9
			c0.7,0.6,1.1,1.5,1.2,2.6H761.9z"/>
	</g>
	<path id="Dribbble" class="st2" d="M644,159.7c-0.5-1.1-1-2.1-1.7-3.1s-1.4-1.9-2.2-2.7c-0.8-0.8-1.7-1.6-2.7-2.2
		c-1-0.7-2-1.2-3.1-1.7s-2.3-0.8-3.4-1.1c-1.2-0.2-2.4-0.4-3.7-0.4c-1.2,0-2.5,0.1-3.7,0.4c-1.2,0.2-2.3,0.6-3.4,1.1
		c-1.1,0.5-2.1,1-3.1,1.7c-1,0.7-1.9,1.4-2.7,2.2c-0.8,0.8-1.6,1.7-2.2,2.7c-0.7,1-1.2,2-1.7,3.1s-0.8,2.3-1.1,3.4
		c-0.2,1.2-0.4,2.4-0.4,3.7c0,1.2,0.1,2.5,0.4,3.7c0.2,1.2,0.6,2.3,1.1,3.4s1,2.1,1.7,3.1s1.4,1.9,2.2,2.7c0.8,0.8,1.7,1.6,2.7,2.2
		c1,0.7,2,1.2,3.1,1.7s2.3,0.8,3.4,1.1c1.2,0.3,2.4,0.4,3.7,0.4c1.2,0,2.5-0.1,3.7-0.4c1.2-0.2,2.3-0.6,3.4-1.1
		c1.1-0.5,2.1-1,3.1-1.7c1-0.7,1.9-1.4,2.7-2.2c0.8-0.8,1.6-1.7,2.2-2.7c0.7-1,1.2-2,1.7-3.1s0.8-2.3,1.1-3.4
		c0.2-1.2,0.4-2.4,0.4-3.7c0-1.2-0.1-2.5-0.4-3.7C644.8,162,644.5,160.8,644,159.7z M627.1,151.2c4,0,7.6,1.5,10.3,3.9
		c0,0.1-2.3,3.5-8.2,5.7c-2.7-4.9-5.6-8.8-5.9-9.1C624.6,151.4,625.9,151.2,627.1,151.2z M623.4,151.6
		C623.4,151.7,623.4,151.7,623.4,151.6C623.4,151.7,623.4,151.7,623.4,151.6C623.3,151.7,623.4,151.7,623.4,151.6z M620.4,152.7
		c0.2,0.3,3.1,4.2,5.8,9c-7.5,2-14,1.9-14.5,1.9C612.8,158.8,616.1,154.8,620.4,152.7z M615.5,177.3c-2.5-2.8-4-6.4-4-10.5
		c0-0.2,0-0.3,0-0.5c0.3,0,8,0.2,16.1-2.2c0.4,0.9,0.9,1.8,1.3,2.7c-0.2,0.1-0.4,0.1-0.6,0.2C619.8,169.7,615.5,177.3,615.5,177.3
		L615.5,177.3z M627.1,182.5c-3.7,0-7.1-1.3-9.8-3.4c-0.1,0-0.1-0.1-0.2-0.2c0.1,0.1,0.1,0.1,0.2,0.2c0.1,0.1,0.2,0.1,0.2,0.1
		s3-6.5,12.3-9.8h0.1c2.2,5.7,3.1,10.5,3.3,11.9C631.4,182.1,629.3,182.5,627.1,182.5z M635.9,179.8c-0.2-0.9-1-5.5-3-11.2
		c5.1-0.8,9.4,0.6,9.8,0.7C641.9,173.7,639.4,177.5,635.9,179.8z M631.9,166.2c-0.1-0.3-0.2-0.5-0.3-0.8c-0.3-0.8-0.7-1.5-1-2.3
		c6.2-2.5,8.7-6.2,8.7-6.2c2.2,2.7,3.5,6.1,3.6,9.8C642.6,166.6,637.3,165.5,631.9,166.2z"/>
	<path id="Facebook" class="st2" d="M516.7,183c0,1.1-0.9,2-2,2h-9.4v-14.2h4.8l0.7-5.5h-5.5v-3.5c0-1.6,0.4-2.7,2.7-2.7h2.9v-5
		c-0.5-0.1-2.2-0.2-4.3-0.2c-4.2,0-7.1,2.6-7.1,7.3v4.1h-4.8v5.5h4.8V185h-17.6c-1.1,0-2-0.9-2-2v-32.6c0-1.1,0.9-2,2-2h32.7
		c1.1,0,2,0.9,2,2L516.7,183L516.7,183z"/>
	<g id="Google_x2B_">
		<path class="st2" d="M361.4,164.6v5.1c0,0,4.9,0,6.9,0c-1.1,3.3-2.8,5.1-6.9,5.1c-4.2,0-7.5-3.4-7.5-7.6s3.3-7.6,7.5-7.6
			c2.2,0,3.7,0.8,5,1.9c1.1-1.1,1-1.2,3.6-3.7c-2.3-2.1-5.3-3.3-8.6-3.3c-7.1,0-12.8,5.7-12.8,12.8s5.7,12.8,12.8,12.8
			c10.6,0,13.2-9.2,12.3-15.4h-12.3V164.6z"/>
		<polygon class="st2" points="384.5,164.9 384.5,160.4 381.4,160.4 381.4,164.9 376.8,164.9 376.8,168 381.4,168 381.4,172.6 
			384.5,172.6 384.5,168 389,168 389,164.9 		"/>
	</g>
</g>
<g id="Instagram_8_">
	<path id="Instagram_9_" class="st6" d="M-191.5,271.8h-14c-1.2,0-2.2,1-2.2,2.2v14c0,1.2,1,2.1,2.2,2.1h14c1.2,0,2.2-0.9,2.2-2.1
		v-14C-189.4,272.8-190.3,271.8-191.5,271.8z M-194.5,274.6c0-0.3,0.2-0.5,0.5-0.5h1.7c0.3,0,0.5,0.2,0.5,0.5v1.7
		c0,0.3-0.2,0.5-0.5,0.5h-1.7c-0.3,0-0.5-0.2-0.5-0.5V274.6z M-198.5,277.5c2,0,3.5,1.5,3.5,3.5c0,1.9-1.6,3.5-3.5,3.5
		s-3.5-1.6-3.5-3.5C-202,279-200.5,277.5-198.5,277.5z M-191.1,287.8c0,0.3-0.2,0.6-0.5,0.6h-13.8c-0.3,0-0.5-0.2-0.5-0.6v-8.6h2.3
		c-0.3,0.4-0.4,1.2-0.4,1.8c0,3,2.5,5.5,5.6,5.5s5.6-2.5,5.6-5.5c0-0.5,0-1.3-0.5-1.8h2.3L-191.1,287.8L-191.1,287.8z"/>
	<path class="st6" d="M-199,300.8c-10.9,0-19.8-8.9-19.8-19.8s8.8-19.8,19.8-19.8s19.8,8.9,19.8,19.8S-188.1,300.8-199,300.8z
		 M-199,262.8c-10,0-18.2,8.2-18.2,18.2s8.2,18.2,18.2,18.2s18.2-8.2,18.2-18.2S-189,262.8-199,262.8z"/>
</g>
</svg>
