<?xml version="1.0" encoding="utf-8"?>
<!-- Generator: Adobe Illustrator 19.1.0, SVG Export Plug-In . SVG Version: 6.00 Build 0)  -->
<!DOCTYPE svg PUBLIC "-//W3C//DTD SVG 1.1//EN" "http://www.w3.org/Graphics/SVG/1.1/DTD/svg11.dtd">
<svg version="1.1" id="Layer_1" xmlns="http://www.w3.org/2000/svg" xmlns:xlink="http://www.w3.org/1999/xlink" x="0px" y="0px"
	 width="40px" height="40px" viewBox="-279 281 40 40" style="enable-background:new -279 281 40 40;" xml:space="preserve">
<style type="text/css">
	.st0{fill:none;}
	.st1{enable-background:new    ;}
	.st2{fill:#8E99A8;}
	.st3{fill:#24A9E6;}
	.st4{fill:#FFFFFF;}
	.st5{fill:#1CB1E6;}
	.st6{fill:#2A5B83;}
	.st7{fill:#187FB8;}
	.st8{fill:#1A70F9;}
	.st9{fill:#E64C87;}
	.st10{fill:#43619C;}
	.st11{fill:#F24033;}
</style>
<g id="SIGNATURE">
	<rect x="51.1" y="1301.1" class="st0" width="459.6" height="82.7"/>
	<text transform="matrix(1 0 0 1 51.1419 1320.2969)" class="st2" style="font-family:'MyriadPro-Regular'; font-size:27px;">CHRISTOPHE KEREBEL</text>
	<rect x="650.2" y="1301.9" class="st0" width="384.4" height="82.7"/>
	<text transform="matrix(1 0 0 1 776.2454 1321.05)" class="st2" style="font-family:'MyriadPro-Regular'; font-size:27px;">My Twitter </text>
	<text transform="matrix(1 0 0 1 901.9454 1321.05)" class="st3" style="font-family:'MyriadPro-Regular'; font-size:27px;">: @chriskere</text>
</g>
<g id="BACKGROUND">
	<rect x="-146.3" y="900.2" class="st2" width="1372.9" height="332"/>
</g>
<g id="_x30_6-SINGLE-WHITE">
	<path id="Vimeo_3_" class="st4" d="M1004.1,1080.2c-5.1-0.2-8.5,2.7-10.4,8.5c0.9-0.4,1.8-0.6,2.7-0.6c1.9,0,2.7,1,2.5,3.1
		c-0.1,1.3-0.9,3.1-2.5,5.5c-1.5,2.4-2.7,3.6-3.5,3.6c-1,0-1.9-1.8-2.7-5.5c-0.3-1.1-0.8-3.8-1.5-8.3c-0.7-4.1-2.4-6-5.3-5.8
		c-1.2,0.1-3,1.2-5.4,3.3c-1.8,1.6-3.5,3.1-5.3,4.7l1.7,2.2c1.6-1.1,2.6-1.7,2.9-1.7c1.3,0,2.4,2,3.5,5.9c1,3.6,2,7.2,3,10.7
		c1.5,3.9,3.3,5.8,5.4,5.8c3.5,0,7.7-3.2,12.7-9.6c4.8-6.1,7.3-10.9,7.5-14.5C1009.7,1082.7,1007.9,1080.3,1004.1,1080.2z"/>
	<path id="Instagram_3_" class="st4" d="M876.1,1077.3h-27.9c-2.4,0-4.4,1.9-4.4,4.3v28c0,2.4,2,4.3,4.4,4.3h27.9
		c2.4,0,4.4-1.9,4.4-4.3v-28C880.4,1079.2,878.5,1077.3,876.1,1077.3z M870.1,1083c0-0.6,0.5-1.1,1.1-1.1h3.4c0.6,0,1.1,0.5,1.1,1.1
		v3.4c0,0.6-0.5,1.1-1.1,1.1h-3.4c-0.6,0-1.1-0.5-1.1-1.1V1083z M862.1,1088.6c3.9,0,7.1,3.1,7.1,7s-3.2,7-7.1,7s-7-3.1-7-7
		C855.1,1091.8,858.2,1088.6,862.1,1088.6z M877,1109.4c0,0.6-0.5,1.1-1.1,1.1h-27.5c-0.6,0-1.1-0.5-1.1-1.1v-17.2h4.6
		c-0.6,0.9-0.8,2.5-0.8,3.5c0,6.1,5,11.1,11.2,11.1s11.2-5,11.2-11.1c0-1-0.1-2.6-0.9-3.5h4.6v17.2H877z"/>
	<path id="Twitter_3_" class="st4" d="M751.4,1080.5c-1.5,0.9-3.1,1.6-4.9,1.9c-1.4-1.5-3.4-2.5-5.6-2.5c-4.2,0-7.7,3.5-7.7,7.9
		c0,0.6,0.1,1.2,0.2,1.8c-6.4-0.3-12-3.5-15.8-8.2c-0.7,1.2-1,2.5-1,4c0,2.7,1.4,5.1,3.4,6.6c-1.3,0-2.4-0.4-3.5-1v0.1
		c0,3.8,2.6,7,6.2,7.7c-0.6,0.2-1.3,0.3-2,0.3c-0.5,0-1,0-1.4-0.1c1,3.1,3.8,5.4,7.2,5.5c-2.6,2.1-5.9,3.4-9.5,3.4
		c-0.6,0-1.2,0-1.8-0.1c3.4,2.2,7.4,3.5,11.8,3.5c14.1,0,21.9-12,21.9-22.4c0-0.3,0-0.7,0-1c1.5-1.1,2.8-2.5,3.8-4.1
		c-1.4,0.6-2.9,1.1-4.4,1.2C749.6,1083.8,750.8,1082.3,751.4,1080.5z"/>
	<g id="LinkedIn_3_">
		<rect x="588.3" y="1090" class="st4" width="7.2" height="22.8"/>
		<path class="st4" d="M615.1,1089.7c-4.1,0-6.7,2.2-7.2,3.8v-3.6h-8.1c0.1,1.9,0,22.8,0,22.8h8.1v-12.3c0-0.7,0-1.4,0.2-1.9
			c0.6-1.4,1.7-2.8,3.9-2.8c2.8,0,4.1,2.1,4.1,5.2v11.8h8.2v-12.6C624.2,1093,620.2,1089.7,615.1,1089.7z"/>
		<path class="st4" d="M591.7,1079.2c-2.7,0-4.4,1.7-4.4,4c0,2.2,1.7,3.9,4.3,3.9h0.1c2.7,0,4.4-1.7,4.4-4
			C596,1080.9,594.4,1079.2,591.7,1079.2z"/>
	</g>
	<g id="Behance_3_">
		<path class="st4" d="M473.4,1094.7c0.8-0.4,1.3-0.8,1.7-1.3c0.7-0.8,1-1.9,1-3.3c0-1.3-0.3-2.5-1-3.4c-1.2-1.5-3.1-2.3-5.9-2.4
			h-10.9v22.3h10.2c1.2,0,2.2-0.1,3.2-0.3c1-0.2,1.8-0.6,2.6-1.1c0.6-0.5,1.2-1.1,1.6-1.8c0.7-1,1-2.2,1-3.6c0-1.3-0.3-2.4-0.9-3.3
			C475.4,1095.8,474.6,1095.1,473.4,1094.7z M462.9,1088.2h4.9c1.1,0,2,0.1,2.7,0.3c0.8,0.3,1.2,1,1.2,2.1c0,0.9-0.3,1.6-0.9,2
			c-0.6,0.4-1.4,0.6-2.4,0.6h-5.5V1088.2z M470.7,1102.4c-0.5,0.3-1.3,0.4-2.3,0.4h-5.5v-6h5.6c1,0,1.7,0.1,2.3,0.4
			c1,0.4,1.4,1.2,1.4,2.4C472.1,1101,471.6,1101.9,470.7,1102.4z"/>
		<rect x="481.8" y="1085.4" class="st4" width="9.7" height="2.8"/>
		<path class="st4" d="M493.5,1092.9c-0.8-1.1-1.7-1.9-2.9-2.4s-2.5-0.8-3.9-0.8c-2.5,0-4.4,0.8-6,2.3c-1.5,1.5-2.3,3.7-2.3,6.6
			c0,3.1,0.8,5.3,2.6,6.6c1.7,1.4,3.7,2,5.9,2c2.7,0,4.8-0.8,6.3-2.4c1-1,1.5-2,1.6-3h-4.5c-0.3,0.5-0.6,0.9-0.9,1.1
			c-0.6,0.5-1.4,0.8-2.4,0.8c-0.9,0-1.7-0.2-2.4-0.6c-1.1-0.7-1.7-1.8-1.8-3.5H495c0-1.4,0-2.5-0.1-3.3
			C494.6,1095,494.2,1093.9,493.5,1092.9z M482.9,1096.8c0.2-1.1,0.5-1.9,1.2-2.6c0.6-0.6,1.5-0.9,2.6-0.9c1,0,1.9,0.3,2.6,0.9
			c0.7,0.6,1.1,1.5,1.2,2.6H482.9z"/>
	</g>
	<path id="Dribbble_3_" class="st4" d="M365,1088.5c-0.5-1.1-1-2.1-1.7-3.1s-1.4-1.9-2.2-2.7c-0.8-0.8-1.7-1.6-2.7-2.2
		c-1-0.7-2-1.2-3.1-1.7s-2.3-0.8-3.4-1.1c-1.2-0.2-2.4-0.4-3.7-0.4c-1.2,0-2.5,0.1-3.7,0.4c-1.2,0.2-2.3,0.6-3.4,1.1
		c-1.1,0.5-2.1,1-3.1,1.7s-1.9,1.4-2.7,2.2c-0.8,0.8-1.6,1.7-2.2,2.7c-0.7,1-1.2,2-1.7,3.1s-0.8,2.3-1.1,3.4
		c-0.2,1.2-0.4,2.4-0.4,3.7c0,1.2,0.1,2.5,0.4,3.7c0.2,1.2,0.6,2.3,1.1,3.4s1,2.1,1.7,3.1s1.4,1.9,2.2,2.7c0.8,0.8,1.7,1.6,2.7,2.2
		c1,0.7,2,1.2,3.1,1.7s2.3,0.8,3.4,1.1c1.2,0.3,2.4,0.4,3.7,0.4c1.2,0,2.5-0.1,3.7-0.4c1.2-0.2,2.3-0.6,3.4-1.1
		c1.1-0.5,2.1-1,3.1-1.7s1.9-1.4,2.7-2.2c0.8-0.8,1.6-1.7,2.2-2.7c0.7-1,1.2-2,1.7-3.1s0.8-2.3,1.1-3.4c0.2-1.2,0.4-2.4,0.4-3.7
		c0-1.2-0.1-2.5-0.4-3.7C365.8,1090.7,365.5,1089.6,365,1088.5z M348.1,1079.9c4,0,7.6,1.5,10.3,3.9c0,0.1-2.3,3.5-8.2,5.7
		c-2.7-4.9-5.6-8.8-5.9-9.1C345.6,1080.1,346.9,1079.9,348.1,1079.9z M344.4,1080.4L344.4,1080.4L344.4,1080.4
		C344.3,1080.4,344.4,1080.4,344.4,1080.4z M341.4,1081.4c0.2,0.3,3.1,4.2,5.8,9c-7.5,2-14,1.9-14.5,1.9
		C333.8,1087.5,337.1,1083.5,341.4,1081.4z M336.5,1106.1c-2.5-2.8-4-6.4-4-10.5c0-0.2,0-0.3,0-0.5c0.3,0,8,0.2,16.1-2.2
		c0.4,0.9,0.9,1.8,1.3,2.7c-0.2,0.1-0.4,0.1-0.6,0.2C340.8,1098.5,336.5,1106.1,336.5,1106.1L336.5,1106.1z M348.1,1111.3
		c-3.7,0-7.1-1.3-9.8-3.4c-0.1,0-0.1-0.1-0.2-0.2c0.1,0.1,0.1,0.1,0.2,0.2c0.1,0.1,0.2,0.1,0.2,0.1s3-6.5,12.3-9.8h0.1
		c2.2,5.7,3.1,10.5,3.3,11.9C352.4,1110.8,350.3,1111.3,348.1,1111.3z M356.9,1108.6c-0.2-0.9-1-5.5-3-11.2c5.1-0.8,9.4,0.6,9.8,0.7
		C362.9,1102.5,360.4,1106.2,356.9,1108.6z M352.9,1094.9c-0.1-0.3-0.2-0.5-0.3-0.8c-0.3-0.8-0.7-1.5-1-2.3c6.2-2.5,8.7-6.2,8.7-6.2
		c2.2,2.7,3.5,6.1,3.6,9.8C363.6,1095.4,358.3,1094.3,352.9,1094.9z"/>
	<path id="Facebook_2_" class="st4" d="M237.7,1112.4c0,1.1-0.9,2-2,2h-9.4v-14.2h4.8l0.7-5.5h-5.5v-3.5c0-1.6,0.4-2.7,2.7-2.7h2.9
		v-5c-0.5-0.1-2.2-0.2-4.3-0.2c-4.2,0-7.1,2.6-7.1,7.3v4.1h-4.8v5.5h4.8v14.2h-17.6c-1.1,0-2-0.9-2-2v-32.7c0-1.1,0.9-2,2-2h32.7
		c1.1,0,2,0.9,2,2L237.7,1112.4L237.7,1112.4z"/>
	<g id="Google_x2B__2_">
		<path class="st4" d="M82.4,1093.2v5.1c0,0,4.9,0,6.9,0c-1.1,3.3-2.8,5.1-6.9,5.1c-4.2,0-7.5-3.4-7.5-7.6c0-4.2,3.3-7.6,7.5-7.6
			c2.2,0,3.7,0.8,5,1.9c1.1-1.1,1-1.2,3.6-3.7c-2.3-2.1-5.3-3.3-8.6-3.3c-7.1,0-12.8,5.7-12.8,12.8s5.7,12.8,12.8,12.8
			c10.6,0,13.2-9.2,12.3-15.4L82.4,1093.2L82.4,1093.2z"/>
		<polygon class="st4" points="105.5,1093.4 105.5,1089 102.4,1089 102.4,1093.4 97.8,1093.4 97.8,1096.6 102.4,1096.6 
			102.4,1101.2 105.5,1101.2 105.5,1096.6 110,1096.6 110,1093.4 		"/>
	</g>
</g>
<g id="Vimeo_5_">
	<path class="st4" d="M991.1,928.9c-21,0-38,17-38,38s17,38,38,38s38-17,38-38S1012.1,928.9,991.1,928.9z M1002,973.1
		c-5,6.4-9.2,9.6-12.7,9.6c-2.1,0-3.9-1.9-5.4-5.9c-1-3.6-2-7.2-3-10.7c-1.1-3.9-2.3-5.9-3.5-5.9c-0.3,0-1.2,0.6-2.9,1.7l-1.7-2.2
		c1.8-1.6,3.6-3.1,5.3-4.7c2.4-2.1,4.2-3.1,5.4-3.3c2.9-0.3,4.6,1.7,5.3,5.8c0.7,4.4,1.2,7.2,1.5,8.3c0.8,3.7,1.7,5.5,2.7,5.5
		c0.8,0,1.9-1.2,3.5-3.6c1.5-2.4,2.3-4.2,2.5-5.5c0.2-2.1-0.6-3.1-2.5-3.1c-0.9,0-1.8,0.2-2.7,0.6c1.8-5.8,5.3-8.6,10.4-8.5
		c3.8,0.1,5.6,2.5,5.3,7.2C1009.3,962.1,1006.8,967,1002,973.1z"/>
</g>
<g id="Instagram_5_">
	<path class="st4" d="M855.1,966.8c0-3.9,3.2-7,7-7c3.9,0,7.1,3.1,7.1,7s-3.2,7-7.1,7C858.2,973.9,855.1,970.7,855.1,966.8z"/>
	<path class="st4" d="M875.6,957.6c0,0.6-0.5,1.2-1.1,1.2h-3.7c-0.6,0-1.2-0.5-1.2-1.2v-3.7c0-0.6,0.5-1.2,1.2-1.2h3.7
		c0.6,0,1.1,0.5,1.1,1.2V957.6z"/>
	<path class="st4" d="M872.4,963.8h4.2v16.7c0,0.6-0.1,1.3-0.8,1.3h-27.5c-0.6,0-0.7-0.6-0.7-1.3v-16.7h4.2c-0.6,0-0.8,2.2-0.8,3.3
		c0,6.1,5,11,11.2,11s11.2-4.8,11.2-11C873.3,966.1,873.1,963.8,872.4,963.8z"/>
	<path class="st4" d="M861.1,928.9c-21,0-38,17-38,38s17,38,38,38s38-17,38-38S882.1,928.9,861.1,928.9z M880.6,980.8
		c0,2.4-2.1,4-4.5,4h-28c-2.4,0-4.5-1.6-4.5-4v-28c0-2.4,2.1-4,4.5-4h28c2.4,0,4.5,1.6,4.5,4V980.8z"/>
</g>
<g id="Twitter_5_">
	<path class="st4" d="M734.1,928.9c-21,0-38,17-38,38s17,38,38,38s38-17,38-38S755.1,928.9,734.1,928.9z M748.6,958.8
		c0,0.3,0,0.7,0,1c0,10.4-7.7,22.4-21.9,22.4c-4.3,0-8.4-1.3-11.8-3.5c0.6,0.1,1.2,0.1,1.8,0.1c3.6,0,6.9-1.3,9.5-3.4
		c-3.4-0.1-6.2-2.3-7.2-5.5c0.5,0.1,1,0.1,1.4,0.1c0.7,0,1.5-0.1,2.1-0.3c-3.5-0.7-6.1-3.9-6.1-7.7v0.1c1,0.6,2.1,0.9,3.4,1
		c-2.1-1.4-3.5-3.8-3.5-6.6c0-1.4,0.4-2.8,1-4c3.8,4.8,9.4,7.9,15.8,8.2c-0.1-0.6-0.2-1.2-0.2-1.8c0-4.3,3.4-7.9,7.7-7.9
		c2.2,0,4.2,1,5.6,2.5c1.8-0.4,3.4-1,4.9-1.9c-0.6,1.8-1.8,3.4-3.4,4.4c1.6-0.2,3-0.6,4.4-1.2C751.4,956.3,750.1,957.7,748.6,958.8z
		"/>
</g>
<g id="LinKeDin">
	<path class="st4" d="M605.1,928.9c-21,0-38,17-38,38s17,38,38,38s38-17,38-38S626.1,928.9,605.1,928.9z M595.6,983.8h-7v-23h7
		V983.8z M591.7,958.8L591.7,958.8c-2.7,0-4.3-2-4.3-4.2s1.7-4.1,4.4-4.1c2.6,0,4.3,1.9,4.3,4.1
		C596.1,956.9,594.4,958.8,591.7,958.8z M624.6,983.8h-9v-11.7c0-3.1-1-5.2-3.8-5.2c-2.1,0-3.4,1.4-3.9,2.8
		c-0.2,0.5-0.2,1.2-0.2,1.9v12.2H600c0,0,0.1-21,0-23h7.7v3.9c1-1.6,3.4-3.8,7.5-3.8c5.1,0,9.5,3.3,9.5,10.3L624.6,983.8
		L624.6,983.8z"/>
</g>
<g id="Behance_5_">
	<path class="st4" d="M468.4,964.8h-5.8v-5h5.2c1.1,0,2-0.1,2.7,0.2c0.8,0.3,1.2,0.9,1.2,2c0,0.9-0.3,1.8-0.9,2.1
		C470.1,964.4,469.3,964.8,468.4,964.8z"/>
	<path class="st4" d="M472.1,970.8c0,1.4-0.5,2.2-1.5,2.7c-0.5,0.3-1.3,0.3-2.3,0.3h-5.8v-6h5.8c1,0,1.7,0.2,2.3,0.5
		C471.7,968.7,472.1,969.6,472.1,970.8z"/>
	<path class="st4" d="M476.1,928.9c-21,0-38,17-38,38s17,38,38,38s38-17,38-38S497.1,928.9,476.1,928.9z M481.6,956.8h10v3h-10
		V956.8z M475.9,974.7c-0.4,0.7-1,1.3-1.6,1.8c-0.7,0.5-1.6,0.9-2.6,1.1c-1,0.2-2,0.3-3.2,0.3h-10v-22h10.7c2.8,0,4.7,0.7,5.9,2.2
		c0.7,1,1,2,1,3.3c0,1.4-0.3,2.4-1,3.2c-0.4,0.5-1,0.9-1.7,1.3c1.1,0.4,2,1.1,2.6,2s0.9,2,0.9,3.3
		C476.9,972.4,476.6,973.6,475.9,974.7z M495,970.8h-12.2c0.1,2,0.7,2.8,1.8,3.5c0.7,0.4,1.5,0.6,2.4,0.6c1,0,1.8-0.3,2.4-0.8
		c0.3-0.3,0.6-0.2,0.9-1.2h4.5c-0.1,1-0.7,2.1-1.6,3.1c-1.5,1.6-3.6,2.5-6.3,2.5c-2.2,0-4.2-0.7-5.9-2c-1.7-1.4-2.6-3.6-2.6-6.6
		c0-2.9,0.8-5,2.3-6.6c1.5-1.5,3.5-2.3,6-2.3c1.5,0,2.8,0.3,3.9,0.8c1.2,0.5,2.1,1.3,2.9,2.5c0.7,1,1.1,2.1,1.3,3.4
		C495,968.3,495,969.8,495,970.8z M486.7,964.4c-1.1,0-2,0.3-2.6,0.9c-0.6,0.6-1,1.5-1.2,2.5h7.6c-0.1-1-0.5-2-1.2-2.5
		C488.6,964.7,487.7,964.4,486.7,964.4z"/>
</g>
<g id="Dribbble_5_">
	<path class="st4" d="M332.8,963.6c1-4.8,4.3-8.9,8.6-10.9c0.2,0.3,3.1,4.2,5.8,9C339.7,963.6,333.2,963.6,332.8,963.6z"/>
	<path class="st4" d="M336.5,977.2c-2.5-2.8-4-6.4-4-10.5c0-0.2,0-0.3,0-0.5c0.3,0,8,0.2,16.1-2.2c0.4,0.9,0.9,1.8,1.3,2.7
		c-0.2,0.1-0.4,0.1-0.6,0.2C340.8,969.6,336.5,977.2,336.5,977.2z"/>
	<path class="st4" d="M350.9,969.3c2.2,5.7,3.1,10.5,3.3,11.9c-1.9,0.8-3.9,1.2-6.1,1.2c-3.6,0-7-1.2-9.6-3.3
		C338.5,979.1,341.5,972.6,350.9,969.3C350.8,969.3,350.9,969.3,350.9,969.3z"/>
	<path class="st4" d="M350.3,960.7c-2.7-4.9-5.6-8.8-5.8-9.1c1.2-0.3,2.4-0.5,3.7-0.5c4,0,7.6,1.5,10.3,3.9
		C358.4,955.1,356.2,958.5,350.3,960.7z"/>
	<path class="st4" d="M363.6,969.3c-0.7,4.4-3.2,8.1-6.7,10.5c-0.2-0.9-1-5.5-3.1-11.2C358.9,967.8,363.3,969.2,363.6,969.3z"/>
	<path class="st4" d="M360.2,956.8c2.2,2.7,3.5,6.1,3.6,9.8c-0.2,0-5.5-1.2-10.9-0.5c-0.1-0.3-0.2-0.5-0.3-0.8
		c-0.3-0.8-0.7-1.5-1-2.3C357.7,960.5,360.2,956.9,360.2,956.8z"/>
	<path class="st4" d="M348.1,928.9c-21,0-38,17-38,38s17,38,38,38s38-17,38-38S369.1,928.9,348.1,928.9z M366.1,970.5
		c-0.2,1.2-0.6,2.3-1.1,3.4c-0.5,1.1-1,2.1-1.7,3.1c-0.6,1-1.4,1.9-2.2,2.7s-1.7,1.6-2.7,2.2c-1,0.7-2,1.2-3.1,1.7s-2.3,0.8-3.5,1.1
		c-1.2,0.2-2.4,0.4-3.7,0.4c-1.2,0-2.5-0.1-3.7-0.4c-1.2-0.2-2.3-0.6-3.4-1.1s-2.1-1-3.1-1.7s-1.9-1.4-2.7-2.2s-1.6-1.7-2.2-2.7
		c-0.7-1-1.2-2-1.7-3.1s-0.8-2.3-1.1-3.4c-0.2-1.2-0.4-2.5-0.4-3.7s0.1-2.5,0.4-3.7c0.2-1.2,0.6-2.3,1.1-3.4c0.5-1.1,1-2.1,1.7-3.1
		s1.4-1.9,2.2-2.7s1.7-1.6,2.7-2.2c1-0.7,2-1.2,3.1-1.7s2.3-0.8,3.4-1.1c1.2-0.2,2.5-0.4,3.7-0.4s2.5,0.1,3.7,0.4
		c1.2,0.2,2.3,0.6,3.5,1.1c1.1,0.5,2.1,1,3.1,1.7s1.9,1.4,2.7,2.2s1.6,1.7,2.2,2.7c0.7,1,1.2,2,1.7,3.1s0.8,2.3,1.1,3.4
		c0.2,1.2,0.4,2.5,0.4,3.7S366.3,969.3,366.1,970.5z"/>
</g>
<g id="Facebook_4_">
	<path class="st4" d="M219.1,927.5c-21,0-38,17-38,38s17,38,38,38c21,0,38-17,38-38S240.1,927.5,219.1,927.5z M237.6,981.5
		c0,1.1-0.5,2.3-1.7,2.3h-9.3v-14h4.8l0.7-6h-5.5v-3.6c0-1.6,0.4-2.4,2.7-2.4h3.3v-5.2c-1-0.1-2.6-0.2-4.6-0.2
		c-4.2,0-7.4,2.6-7.4,7.3v4.1h-5v6h5v14h-17.3c-1.1,0-1.7-1.2-1.7-2.3v-32.7c0-1.1,0.6-2,1.7-2H236c1.1,0,1.7,0.9,1.7,2v32.7
		L237.6,981.5L237.6,981.5z"/>
</g>
<g id="Google_x2B__3_">
	<path class="st4" d="M89.8,927.6c-21,0-38,17-38,38s17,38,38,38s38-17,38-38S110.8,927.6,89.8,927.6z M82.4,978.9
		c-7.1,0-12.8-5.9-12.8-13S75.3,953,82.4,953c3.3,0,6.4,1.2,8.6,3.3c-2.7,2.5-2.6,2.7-3.6,3.7c-1.3-1.1-2.8-1.9-5-1.9
		c-4.2,0-7.5,3.4-7.5,7.6c0,4.2,3.3,7.9,7.5,7.9s5.8-1.8,6.9-4.8c-2,0-6.8,0-6.8,0v-5h12.2C95.6,969.8,93,978.9,82.4,978.9z
		 M109.6,966.8h-4v5h-3v-5h-5v-3h5v-4h3v4h4V966.8z"/>
</g>
<g id="_x30_4-FULL-COLOR">
	<g id="Vimeo_6_">
		<circle class="st5" cx="991.1" cy="834.9" r="38"/>
		<g id="Vimeo_2_">
			<path class="st4" d="M1004.1,819.4c-5.1-0.2-8.5,2.7-10.4,8.5c0.9-0.4,1.8-0.6,2.7-0.6c1.9,0,2.7,1,2.5,3.1
				c-0.1,1.3-0.9,3.1-2.5,5.5c-1.5,2.4-2.7,3.6-3.5,3.6c-1,0-1.9-1.8-2.7-5.5c-0.3-1.1-0.8-3.8-1.5-8.3c-0.7-4.1-2.4-6-5.3-5.8
				c-1.2,0.1-3,1.2-5.4,3.3c-1.8,1.6-3.5,3.1-5.3,4.7l1.7,2.2c1.6-1.1,2.6-1.7,2.9-1.7c1.3,0,2.4,2,3.5,5.9c1,3.6,2,7.2,3,10.7
				c1.5,3.9,3.3,5.8,5.4,5.8c3.5,0,7.7-3.2,12.7-9.6c4.8-6.1,7.3-10.9,7.5-14.5C1009.7,821.9,1007.9,819.5,1004.1,819.4z"/>
		</g>
	</g>
	<g id="Instagram_6_">
		<circle class="st6" cx="861.1" cy="834.9" r="38"/>
		<path id="Instagram_2_" class="st4" d="M876.1,816.5h-27.9c-2.4,0-4.4,1.9-4.4,4.3v28c0,2.4,2,4.3,4.4,4.3h27.9
			c2.4,0,4.4-1.9,4.4-4.3v-28C880.4,818.4,878.5,816.5,876.1,816.5z M870.1,822.2c0-0.6,0.5-1.1,1.1-1.1h3.4c0.6,0,1.1,0.5,1.1,1.1
			v3.4c0,0.6-0.5,1.1-1.1,1.1h-3.4c-0.6,0-1.1-0.5-1.1-1.1V822.2z M862.1,827.8c3.9,0,7.1,3.1,7.1,7s-3.2,7-7.1,7s-7-3.1-7-7
			C855.1,831,858.2,827.8,862.1,827.8z M877,848.5c0,0.6-0.5,1.1-1.1,1.1h-27.5c-0.6,0-1.1-0.5-1.1-1.1v-17.2h4.6
			c-0.6,0.9-0.8,2.5-0.8,3.5c0,6.1,5,11.1,11.2,11.1s11.2-5,11.2-11.1c0-1-0.1-2.6-0.9-3.5h4.6v17.2H877z"/>
	</g>
	<g id="Twitter_6_">
		<circle class="st3" cx="734.1" cy="834.9" r="38"/>
		<path id="Twitter_2_" class="st4" d="M751.4,819.7c-1.5,0.9-3.1,1.6-4.9,1.9c-1.4-1.5-3.4-2.5-5.6-2.5c-4.2,0-7.7,3.5-7.7,7.9
			c0,0.6,0.1,1.2,0.2,1.8c-6.4-0.3-12-3.5-15.8-8.2c-0.7,1.2-1,2.5-1,4c0,2.7,1.4,5.1,3.4,6.6c-1.3,0-2.4-0.4-3.5-1v0.1
			c0,3.8,2.6,7,6.2,7.7c-0.6,0.2-1.3,0.3-2,0.3c-0.5,0-1,0-1.4-0.1c1,3.1,3.8,5.4,7.2,5.5c-2.6,2.1-5.9,3.4-9.5,3.4
			c-0.6,0-1.2,0-1.8-0.1c3.4,2.2,7.4,3.5,11.8,3.5c14.1,0,21.9-12,21.9-22.4c0-0.3,0-0.7,0-1c1.5-1.1,2.8-2.5,3.8-4.1
			c-1.4,0.6-2.9,1.1-4.4,1.2C749.6,823,750.8,821.5,751.4,819.7z"/>
	</g>
	<g id="LinKeDin_1_">
		<circle class="st7" cx="605.1" cy="834.9" r="38"/>
		<g id="LinkedIn_2_">
			<rect x="588.3" y="829.2" class="st4" width="7.2" height="22.8"/>
			<path class="st4" d="M615.1,828.9c-4.1,0-6.7,2.2-7.2,3.8v-3.6h-8.1c0.1,1.9,0,22.8,0,22.8h8.1v-12.3c0-0.7,0-1.4,0.2-1.9
				c0.6-1.4,1.7-2.8,3.9-2.8c2.8,0,4.1,2.1,4.1,5.2v11.8h8.2v-12.7C624.2,832.2,620.2,828.9,615.1,828.9z"/>
			<path class="st4" d="M591.7,818.4c-2.7,0-4.4,1.7-4.4,4c0,2.2,1.7,3.9,4.3,3.9h0.1c2.7,0,4.4-1.7,4.4-4
				C596,820.1,594.4,818.4,591.7,818.4z"/>
		</g>
	</g>
	<g id="Behance_6_">
		<circle class="st8" cx="476.1" cy="834.9" r="38"/>
		<g id="Behance_2_">
			<path class="st4" d="M473.4,833.9c0.8-0.4,1.3-0.8,1.7-1.3c0.7-0.8,1-1.9,1-3.3c0-1.3-0.3-2.5-1-3.4c-1.2-1.5-3.1-2.3-5.9-2.4
				h-10.9v22.3h10.2c1.2,0,2.2-0.1,3.2-0.3s1.8-0.6,2.6-1.1c0.6-0.5,1.2-1.1,1.6-1.8c0.7-1,1-2.2,1-3.6c0-1.3-0.3-2.4-0.9-3.3
				C475.4,834.9,474.6,834.3,473.4,833.9z M462.9,827.4h4.9c1.1,0,2,0.1,2.7,0.3c0.8,0.3,1.2,1,1.2,2.1c0,0.9-0.3,1.6-0.9,2
				c-0.6,0.4-1.4,0.6-2.4,0.6h-5.5V827.4z M470.7,841.6c-0.5,0.3-1.3,0.4-2.3,0.4h-5.5v-6h5.6c1,0,1.7,0.1,2.3,0.4
				c1,0.4,1.4,1.2,1.4,2.4C472.1,840.2,471.6,841.1,470.7,841.6z"/>
			<rect x="481.8" y="824.6" class="st4" width="9.7" height="2.8"/>
			<path class="st4" d="M493.5,832.1c-0.8-1.1-1.7-1.9-2.9-2.4s-2.5-0.8-3.9-0.8c-2.5,0-4.4,0.8-6,2.3c-1.5,1.5-2.3,3.7-2.3,6.6
				c0,3.1,0.8,5.3,2.6,6.6c1.7,1.4,3.7,2,5.9,2c2.7,0,4.8-0.8,6.3-2.4c1-1,1.5-2,1.6-3h-4.5c-0.3,0.5-0.6,0.9-0.9,1.1
				c-0.6,0.5-1.4,0.8-2.4,0.8c-0.9,0-1.7-0.2-2.4-0.6c-1.1-0.7-1.7-1.8-1.8-3.5H495c0-1.4,0-2.5-0.1-3.3
				C494.6,834.2,494.2,833.1,493.5,832.1z M482.9,836c0.2-1.1,0.5-1.9,1.2-2.6c0.6-0.6,1.5-0.9,2.6-0.9c1,0,1.9,0.3,2.6,0.9
				c0.7,0.6,1.1,1.5,1.2,2.6H482.9z"/>
		</g>
	</g>
	<g id="Dribbble_6_">
		<circle class="st9" cx="348.1" cy="834.9" r="38"/>
		<g>
			<path id="Dribbble_2_" class="st4" d="M365,827.7c-0.5-1.1-1-2.1-1.7-3.1s-1.4-1.9-2.2-2.7s-1.7-1.6-2.7-2.2
				c-1-0.7-2-1.2-3.1-1.7s-2.3-0.8-3.4-1.1c-1.2-0.2-2.4-0.4-3.7-0.4c-1.2,0-2.5,0.1-3.7,0.4c-1.2,0.2-2.3,0.6-3.4,1.1
				c-1.1,0.5-2.1,1-3.1,1.7s-1.9,1.4-2.7,2.2s-1.6,1.7-2.2,2.7c-0.7,1-1.2,2-1.7,3.1s-0.8,2.3-1.1,3.4c-0.2,1.2-0.4,2.4-0.4,3.7
				c0,1.2,0.1,2.5,0.4,3.7c0.2,1.2,0.6,2.3,1.1,3.4s1,2.1,1.7,3.1s1.4,1.9,2.2,2.7s1.7,1.6,2.7,2.2c1,0.7,2,1.2,3.1,1.7
				s2.3,0.8,3.4,1.1c1.2,0.3,2.4,0.4,3.7,0.4c1.2,0,2.5-0.1,3.7-0.4c1.2-0.2,2.3-0.6,3.4-1.1c1.1-0.5,2.1-1,3.1-1.7s1.9-1.4,2.7-2.2
				s1.6-1.7,2.2-2.7c0.7-1,1.2-2,1.7-3.1s0.8-2.3,1.1-3.4c0.2-1.2,0.4-2.4,0.4-3.7c0-1.2-0.1-2.5-0.4-3.7
				C365.8,829.9,365.5,828.8,365,827.7z M348.1,819.1c4,0,7.6,1.5,10.3,3.9c0,0.1-2.3,3.5-8.2,5.7c-2.7-4.9-5.6-8.8-5.9-9.1
				C345.6,819.3,346.9,819.1,348.1,819.1z M344.4,819.6L344.4,819.6L344.4,819.6C344.3,819.6,344.4,819.6,344.4,819.6z M341.4,820.6
				c0.2,0.3,3.1,4.2,5.8,9c-7.5,2-14,1.9-14.5,1.9C333.8,826.7,337.1,822.7,341.4,820.6z M336.5,845.3c-2.5-2.8-4-6.4-4-10.5
				c0-0.2,0-0.3,0-0.5c0.3,0,8,0.2,16.1-2.2c0.4,0.9,0.9,1.8,1.3,2.7c-0.2,0.1-0.4,0.1-0.6,0.2C340.8,837.6,336.5,845.2,336.5,845.3
				C336.5,845.2,336.5,845.3,336.5,845.3z M348.1,850.5c-3.7,0-7.1-1.3-9.8-3.4c-0.1,0-0.1-0.1-0.2-0.2c0.1,0.1,0.1,0.1,0.2,0.2
				c0.1,0.1,0.2,0.1,0.2,0.1s3-6.5,12.3-9.8h0.1c2.2,5.7,3.1,10.5,3.3,11.9C352.4,850,350.3,850.5,348.1,850.5z M356.9,847.8
				c-0.2-0.9-1-5.5-3-11.2c5.1-0.8,9.4,0.6,9.8,0.7C362.9,841.6,360.4,845.4,356.9,847.8z M352.9,834.1c-0.1-0.3-0.2-0.5-0.3-0.8
				c-0.3-0.8-0.7-1.5-1-2.3c6.2-2.5,8.7-6.2,8.7-6.2c2.2,2.7,3.5,6.1,3.6,9.8C363.6,834.6,358.3,833.4,352.9,834.1z"/>
		</g>
	</g>
	<g id="Facebook_5_">
		<path class="st10" d="M219.1,796.9c-21,0-38,17-38,38s17,38,38,38c21,0,38-17,38-38S240.1,796.9,219.1,796.9z M237.6,850.9
			c0,1.1-0.5,1.9-1.7,1.9h-9.3v-14h4.8l0.7-6h-5.5v-3.1c0-1.6,0.4-2.9,2.7-2.9h3.3V822c-1-0.1-2.6-0.2-4.6-0.2
			c-4.2,0-7.4,2.6-7.4,7.3v3.7h-5v6h5v14h-17.3c-1.1,0-1.7-0.7-1.7-1.9v-32.7c0-1.1,0.6-2.5,1.7-2.5H236c1.1,0,1.7,1.4,1.7,2.5v32.7
			L237.6,850.9L237.6,850.9z"/>
	</g>
	<g id="Google_x2B__4_">
		<path class="st11" d="M89.8,796.9c-21,0-38,17-38,38s17,38,38,38s38-17,38-38S110.8,796.9,89.8,796.9z M82.4,848
			c-7.1,0-12.8-5.8-12.8-12.9c0-7.1,5.7-12.9,12.8-12.9c3.3,0,6.4,1.3,8.6,3.3c-2.7,2.5-2.6,2.7-3.6,3.7c-1.3-1.1-2.8-1.9-5-1.9
			c-4.2,0-7.5,3.4-7.5,7.6s3.3,7.7,7.5,7.7s5.8-2,6.9-5c-2,0-6.8,0-6.8,0v-5h12.2C95.6,838.8,93,848,82.4,848z M109.6,835.8h-4v5h-3
			v-5h-5v-3h5v-4h3v4h4V835.8z"/>
	</g>
</g>
<g id="_x30_3-SINGLE-COLOR">
	<path id="Vimeo_4_" class="st5" d="M1004.1,691.1c-5.1-0.2-8.5,2.7-10.4,8.5c0.9-0.4,1.8-0.6,2.7-0.6c1.9,0,2.7,1,2.5,3.1
		c-0.1,1.3-0.9,3.1-2.5,5.5c-1.5,2.4-2.7,3.6-3.5,3.6c-1,0-1.9-1.8-2.7-5.5c-0.3-1.1-0.8-3.8-1.5-8.3c-0.7-4.1-2.4-6-5.3-5.8
		c-1.2,0.1-3,1.2-5.4,3.3c-1.8,1.6-3.5,3.1-5.3,4.7l1.7,2.2c1.6-1.1,2.6-1.7,2.9-1.7c1.3,0,2.4,2,3.5,5.9c1,3.6,2,7.2,3,10.7
		c1.5,3.9,3.3,5.8,5.4,5.8c3.5,0,7.7-3.2,12.7-9.6c4.8-6.1,7.3-10.9,7.5-14.5C1009.7,693.7,1007.9,691.3,1004.1,691.1z"/>
	<path id="Instagram_4_" class="st6" d="M876.1,688.2h-27.9c-2.4,0-4.4,1.9-4.4,4.3v28c0,2.4,2,4.3,4.4,4.3h27.9
		c2.4,0,4.4-1.9,4.4-4.3v-28C880.4,690.2,878.5,688.2,876.1,688.2z M870.1,694c0-0.6,0.5-1.1,1.1-1.1h3.4c0.6,0,1.1,0.5,1.1,1.1v3.4
		c0,0.6-0.5,1.1-1.1,1.1h-3.4c-0.6,0-1.1-0.5-1.1-1.1V694z M862.1,699.6c3.9,0,7.1,3.1,7.1,7c0,3.9-3.2,7-7.1,7s-7-3.1-7-7
		C855.1,702.7,858.2,699.6,862.1,699.6z M877,720.3c0,0.6-0.5,1.1-1.1,1.1h-27.5c-0.6,0-1.1-0.5-1.1-1.1v-17.2h4.6
		c-0.6,0.9-0.8,2.5-0.8,3.5c0,6.1,5,11.1,11.2,11.1s11.2-5,11.2-11.1c0-1-0.1-2.6-0.9-3.5h4.6v17.2H877z"/>
	<path id="Twitter_4_" class="st3" d="M751.4,691.4c-1.5,0.9-3.1,1.6-4.9,1.9c-1.4-1.5-3.4-2.5-5.6-2.5c-4.2,0-7.7,3.5-7.7,7.9
		c0,0.6,0.1,1.2,0.2,1.8c-6.4-0.3-12-3.5-15.8-8.2c-0.7,1.2-1,2.5-1,4c0,2.7,1.4,5.1,3.4,6.6c-1.3,0-2.4-0.4-3.5-1v0.1
		c0,3.8,2.6,7,6.2,7.7c-0.6,0.2-1.3,0.3-2,0.3c-0.5,0-1,0-1.4-0.1c1,3.1,3.8,5.4,7.2,5.5c-2.6,2.1-5.9,3.4-9.5,3.4
		c-0.6,0-1.2,0-1.8-0.1c3.4,2.2,7.4,3.5,11.8,3.5c14.1,0,21.9-12,21.9-22.4c0-0.3,0-0.7,0-1c1.5-1.1,2.8-2.5,3.8-4.1
		c-1.4,0.6-2.9,1.1-4.4,1.2C749.6,694.8,750.8,693.3,751.4,691.4z"/>
	<g id="LinkedIn_4_">
		<rect x="588.3" y="700.9" class="st7" width="7.2" height="22.8"/>
		<path class="st7" d="M615.1,700.7c-4.1,0-6.7,2.2-7.2,3.8v-3.6h-8.1c0.1,1.9,0,22.8,0,22.8h8.1v-12.3c0-0.7,0-1.4,0.2-1.9
			c0.6-1.4,1.7-2.8,3.9-2.8c2.8,0,4.1,2.1,4.1,5.2v11.8h8.2V711C624.2,704,620.2,700.7,615.1,700.7z"/>
		<path class="st7" d="M591.7,690.2c-2.7,0-4.4,1.7-4.4,4c0,2.2,1.7,3.9,4.3,3.9h0.1c2.7,0,4.4-1.7,4.4-4
			C596,691.9,594.4,690.2,591.7,690.2z"/>
	</g>
	<g id="Behance_4_">
		<path class="st8" d="M473.4,705.6c0.8-0.4,1.3-0.8,1.7-1.3c0.7-0.8,1-1.9,1-3.3c0-1.3-0.3-2.5-1-3.4c-1.2-1.5-3.1-2.3-5.9-2.4
			h-10.9v22.3h10.2c1.2,0,2.2-0.1,3.2-0.3c1-0.2,1.8-0.6,2.6-1.1c0.6-0.5,1.2-1.1,1.6-1.8c0.7-1,1-2.2,1-3.6c0-1.3-0.3-2.4-0.9-3.3
			C475.4,706.7,474.6,706,473.4,705.6z M462.9,699.2h4.9c1.1,0,2,0.1,2.7,0.3c0.8,0.3,1.2,1,1.2,2.1c0,0.9-0.3,1.6-0.9,2
			c-0.6,0.4-1.4,0.6-2.4,0.6h-5.5V699.2z M470.7,713.3c-0.5,0.3-1.3,0.4-2.3,0.4h-5.5v-6h5.6c1,0,1.7,0.1,2.3,0.4
			c1,0.4,1.4,1.2,1.4,2.4C472.1,711.9,471.6,712.9,470.7,713.3z"/>
		<rect x="481.8" y="696.3" class="st8" width="9.7" height="2.8"/>
		<path class="st8" d="M493.5,703.9c-0.8-1.1-1.7-1.9-2.9-2.4s-2.5-0.8-3.9-0.8c-2.5,0-4.4,0.8-6,2.3c-1.5,1.5-2.3,3.7-2.3,6.6
			c0,3.1,0.8,5.3,2.6,6.6c1.7,1.4,3.7,2,5.9,2c2.7,0,4.8-0.8,6.3-2.4c1-1,1.5-2,1.6-3h-4.5c-0.3,0.5-0.6,0.9-0.9,1.1
			c-0.6,0.5-1.4,0.8-2.4,0.8c-0.9,0-1.7-0.2-2.4-0.6c-1.1-0.7-1.7-1.8-1.8-3.5H495c0-1.4,0-2.5-0.1-3.3
			C494.6,706,494.2,704.9,493.5,703.9z M482.9,707.7c0.2-1.1,0.5-1.9,1.2-2.6c0.6-0.6,1.5-0.9,2.6-0.9c1,0,1.9,0.3,2.6,0.9
			c0.7,0.6,1.1,1.5,1.2,2.6H482.9z"/>
	</g>
	<path id="Dribbble_4_" class="st9" d="M365,699.4c-0.5-1.1-1-2.1-1.7-3.1s-1.4-1.9-2.2-2.7s-1.7-1.6-2.7-2.2c-1-0.7-2-1.2-3.1-1.7
		s-2.3-0.8-3.4-1.1c-1.2-0.2-2.4-0.4-3.7-0.4c-1.2,0-2.5,0.1-3.7,0.4c-1.2,0.2-2.3,0.6-3.4,1.1c-1.1,0.5-2.1,1-3.1,1.7
		s-1.9,1.4-2.7,2.2s-1.6,1.7-2.2,2.7c-0.7,1-1.2,2-1.7,3.1c-0.5,1.1-0.8,2.3-1.1,3.4c-0.2,1.2-0.4,2.4-0.4,3.7
		c0,1.2,0.1,2.5,0.4,3.7c0.2,1.2,0.6,2.3,1.1,3.4c0.5,1.1,1,2.1,1.7,3.1s1.4,1.9,2.2,2.7s1.7,1.6,2.7,2.2c1,0.7,2,1.2,3.1,1.7
		s2.3,0.8,3.4,1.1c1.2,0.3,2.4,0.4,3.7,0.4c1.2,0,2.5-0.1,3.7-0.4c1.2-0.2,2.3-0.6,3.4-1.1c1.1-0.5,2.1-1,3.1-1.7s1.9-1.4,2.7-2.2
		s1.6-1.7,2.2-2.7c0.7-1,1.2-2,1.7-3.1c0.5-1.1,0.8-2.3,1.1-3.4c0.2-1.2,0.4-2.4,0.4-3.7c0-1.2-0.1-2.5-0.4-3.7
		C365.8,701.7,365.5,700.5,365,699.4z M348.1,690.9c4,0,7.6,1.5,10.3,3.9c0,0.1-2.3,3.5-8.2,5.7c-2.7-4.9-5.6-8.8-5.9-9.1
		C345.6,691.1,346.9,690.9,348.1,690.9z M344.4,691.3C344.4,691.4,344.4,691.4,344.4,691.3C344.4,691.4,344.4,691.4,344.4,691.3
		C344.3,691.4,344.4,691.4,344.4,691.3z M341.4,692.4c0.2,0.3,3.1,4.2,5.8,9c-7.5,2-14,1.9-14.5,1.9
		C333.8,698.5,337.1,694.5,341.4,692.4z M336.5,717c-2.5-2.8-4-6.4-4-10.5c0-0.2,0-0.3,0-0.5c0.3,0,8,0.2,16.1-2.2
		c0.4,0.9,0.9,1.8,1.3,2.7c-0.2,0.1-0.4,0.1-0.6,0.2C340.8,709.4,336.5,717,336.5,717L336.5,717z M348.1,722.2
		c-3.7,0-7.1-1.3-9.8-3.4c-0.1,0-0.1-0.1-0.2-0.2c0.1,0.1,0.1,0.1,0.2,0.2c0.1,0.1,0.2,0.1,0.2,0.1s3-6.5,12.3-9.8h0.1
		c2.2,5.7,3.1,10.5,3.3,11.9C352.4,721.8,350.3,722.2,348.1,722.2z M356.9,719.5c-0.2-0.9-1-5.5-3-11.2c5.1-0.8,9.4,0.6,9.8,0.7
		C362.9,713.4,360.4,717.2,356.9,719.5z M352.9,705.9c-0.1-0.3-0.2-0.5-0.3-0.8c-0.3-0.8-0.7-1.5-1-2.3c6.2-2.5,8.7-6.2,8.7-6.2
		c2.2,2.7,3.5,6.1,3.6,9.8C363.6,706.3,358.3,705.2,352.9,705.9z"/>
	<path id="Facebook_3_" class="st10" d="M237.7,722.7c0,1.1-0.9,2-2,2h-9.4v-14.2h4.8l0.7-5.5h-5.5v-3.5c0-1.6,0.4-2.7,2.7-2.7h2.9
		v-5c-0.5-0.1-2.2-0.2-4.3-0.2c-4.2,0-7.1,2.6-7.1,7.3v4.1h-4.8v5.5h4.8v14.2h-17.6c-1.1,0-2-0.9-2-2v-32.6c0-1.1,0.9-2,2-2h32.7
		c1.1,0,2,0.9,2,2L237.7,722.7L237.7,722.7z"/>
	<g id="Google_x2B__1_">
		<path class="st11" d="M82.4,704.3v5.1c0,0,4.9,0,6.9,0c-1.1,3.3-2.8,5.1-6.9,5.1c-4.2,0-7.5-3.4-7.5-7.6c0-4.2,3.3-7.6,7.5-7.6
			c2.2,0,3.7,0.8,5,1.9c1.1-1.1,1-1.2,3.6-3.7c-2.3-2.1-5.3-3.3-8.6-3.3c-7.1,0-12.8,5.7-12.8,12.8s5.7,12.8,12.8,12.8
			c10.6,0,13.2-9.2,12.3-15.4L82.4,704.3L82.4,704.3z"/>
		<polygon class="st11" points="105.5,704.6 105.5,700.1 102.4,700.1 102.4,704.6 97.8,704.6 97.8,707.7 102.4,707.7 102.4,712.3 
			105.5,712.3 105.5,707.7 110,707.7 110,704.6 		"/>
	</g>
</g>
<g id="Vimeo_7_">
	<g id="Vimeo_1_">
		<path class="st5" d="M1004.1,561.4c-5.1-0.2-8.5,2.7-10.4,8.5c0.9-0.4,1.8-0.6,2.7-0.6c1.9,0,2.7,1,2.5,3.1
			c-0.1,1.3-0.9,3.1-2.5,5.5c-1.5,2.4-2.7,3.6-3.5,3.6c-1,0-1.9-1.8-2.7-5.5c-0.3-1.1-0.8-3.8-1.5-8.3c-0.7-4.1-2.4-6-5.3-5.8
			c-1.2,0.1-3,1.2-5.4,3.3c-1.8,1.6-3.5,3.1-5.3,4.7l1.7,2.2c1.6-1.1,2.6-1.7,2.9-1.7c1.3,0,2.4,2,3.5,5.9c1,3.6,2,7.2,3,10.7
			c1.5,3.9,3.3,5.8,5.4,5.8c3.5,0,7.7-3.2,12.7-9.6c4.8-6.1,7.3-10.9,7.5-14.5C1009.7,563.9,1007.9,561.5,1004.1,561.4z"/>
	</g>
	<path class="st5" d="M991.1,616.4c-21.8,0-39.5-17.7-39.5-39.5c0-21.8,17.7-39.5,39.5-39.5s39.5,17.7,39.5,39.5
		C1030.6,598.7,1012.9,616.4,991.1,616.4z M991.1,540.4c-20.1,0-36.5,16.4-36.5,36.5c0,20.1,16.4,36.5,36.5,36.5
		s36.5-16.4,36.5-36.5C1027.6,556.8,1011.2,540.4,991.1,540.4z"/>
</g>
<g id="Instagram_7_">
	<path id="Instagram_1_" class="st6" d="M876.1,558.5h-27.9c-2.4,0-4.4,1.9-4.4,4.3v28c0,2.4,2,4.3,4.4,4.3h27.9
		c2.4,0,4.4-1.9,4.4-4.3v-28C880.4,560.4,878.5,558.5,876.1,558.5z M870.1,564.2c0-0.6,0.5-1.1,1.1-1.1h3.4c0.6,0,1.1,0.5,1.1,1.1
		v3.4c0,0.6-0.5,1.1-1.1,1.1h-3.4c-0.6,0-1.1-0.5-1.1-1.1V564.2z M862.1,569.8c3.9,0,7.1,3.1,7.1,7s-3.2,7-7.1,7s-7-3.1-7-7
		C855.1,573,858.2,569.8,862.1,569.8z M877,590.5c0,0.6-0.5,1.1-1.1,1.1h-27.5c-0.6,0-1.1-0.5-1.1-1.1v-17.2h4.6
		c-0.6,0.9-0.8,2.5-0.8,3.5c0,6.1,5,11.1,11.2,11.1s11.2-5,11.2-11.1c0-1-0.1-2.6-0.9-3.5h4.6v17.2H877z"/>
	<path class="st6" d="M861.1,616.4c-21.8,0-39.5-17.7-39.5-39.5c0-21.8,17.7-39.5,39.5-39.5s39.5,17.7,39.5,39.5
		C900.6,598.7,882.9,616.4,861.1,616.4z M861.1,540.4c-20.1,0-36.5,16.4-36.5,36.5c0,20.1,16.4,36.5,36.5,36.5s36.5-16.4,36.5-36.5
		C897.6,556.8,881.2,540.4,861.1,540.4z"/>
</g>
<g id="Twitter_7_">
	<path id="Twitter_1_" class="st3" d="M751.4,561.7c-1.5,0.9-3.1,1.6-4.9,1.9c-1.4-1.5-3.4-2.5-5.6-2.5c-4.2,0-7.7,3.5-7.7,7.9
		c0,0.6,0.1,1.2,0.2,1.8c-6.4-0.3-12-3.5-15.8-8.2c-0.7,1.2-1,2.5-1,4c0,2.7,1.4,5.1,3.4,6.6c-1.3,0-2.4-0.4-3.5-1v0.1
		c0,3.8,2.6,7,6.2,7.7c-0.6,0.2-1.3,0.3-2,0.3c-0.5,0-1,0-1.4-0.1c1,3.1,3.8,5.4,7.2,5.5c-2.6,2.1-5.9,3.4-9.5,3.4
		c-0.6,0-1.2,0-1.8-0.1c3.4,2.2,7.4,3.5,11.8,3.5c14.1,0,21.9-12,21.9-22.4c0-0.3,0-0.7,0-1c1.5-1.1,2.8-2.5,3.8-4.1
		c-1.4,0.6-2.9,1.1-4.4,1.2C749.6,565,750.8,563.5,751.4,561.7z"/>
	<path class="st3" d="M734.1,616.4c-21.8,0-39.5-17.7-39.5-39.5c0-21.8,17.7-39.5,39.5-39.5c21.8,0,39.5,17.7,39.5,39.5
		C773.6,598.7,755.9,616.4,734.1,616.4z M734.1,540.4c-20.1,0-36.5,16.4-36.5,36.5c0,20.1,16.4,36.5,36.5,36.5s36.5-16.4,36.5-36.5
		C770.6,556.8,754.2,540.4,734.1,540.4z"/>
</g>
<g id="LinKeDin_2_">
	<g id="LinkedIn_1_">
		<rect x="-267.3" y="298.2" class="st4" width="3.6" height="11.3"/>
		<path class="st4" d="M-254.1,298c-2,0-3.3,1.1-3.6,1.9v-1.8h-4c0,0.9,0,11.3,0,11.3h4v-6.1c0-0.3,0-0.7,0.1-0.9
			c0.3-0.7,0.8-1.4,1.9-1.4c1.4,0,2,1,2,2.6v5.8h4.1v-6.3C-249.5,299.7-251.5,298-254.1,298z"/>
		<path class="st4" d="M-265.6,292.8c-1.3,0-2.2,0.8-2.2,2c0,1.1,0.8,1.9,2.1,1.9l0,0c1.3,0,2.2-0.8,2.2-2
			C-263.5,293.7-264.3,292.8-265.6,292.8z"/>
	</g>
	<path class="st4" d="M-259,320.6c-10.8,0-19.6-8.8-19.6-19.6s8.8-19.6,19.6-19.6c10.8,0,19.6,8.8,19.6,19.6
		C-239.4,311.8-248.2,320.6-259,320.6z M-259,282.9c-9.9,0-18.1,8.1-18.1,18.1s8.1,18.1,18.1,18.1s18.1-8.1,18.1-18.1
		S-249.1,282.9-259,282.9z"/>
</g>
<g id="Behance_7_">
	<g id="Behance_1_">
		<path class="st8" d="M473.4,575.9c0.8-0.4,1.3-0.8,1.7-1.3c0.7-0.8,1-1.9,1-3.3c0-1.3-0.3-2.5-1-3.4c-1.2-1.5-3.1-2.3-5.9-2.4
			h-10.9v22.3h10.2c1.2,0,2.2-0.1,3.2-0.3c1-0.2,1.8-0.6,2.6-1.1c0.6-0.5,1.2-1.1,1.6-1.8c0.7-1,1-2.2,1-3.6c0-1.3-0.3-2.4-0.9-3.3
			C475.4,576.9,474.6,576.3,473.4,575.9z M462.9,569.4h4.9c1.1,0,2,0.1,2.7,0.3c0.8,0.3,1.2,1,1.2,2.1c0,0.9-0.3,1.6-0.9,2
			c-0.6,0.4-1.4,0.6-2.4,0.6h-5.5V569.4z M470.7,583.6c-0.5,0.3-1.3,0.4-2.3,0.4h-5.5v-6h5.6c1,0,1.7,0.1,2.3,0.4
			c1,0.4,1.4,1.2,1.4,2.4C472.1,582.2,471.6,583.1,470.7,583.6z"/>
		<rect x="481.8" y="566.6" class="st8" width="9.7" height="2.8"/>
		<path class="st8" d="M493.5,574.1c-0.8-1.1-1.7-1.9-2.9-2.4s-2.5-0.8-3.9-0.8c-2.5,0-4.4,0.8-6,2.3c-1.5,1.5-2.3,3.7-2.3,6.6
			c0,3.1,0.8,5.3,2.6,6.6c1.7,1.4,3.7,2,5.9,2c2.7,0,4.8-0.8,6.3-2.4c1-1,1.5-2,1.6-3h-4.5c-0.3,0.5-0.6,0.9-0.9,1.1
			c-0.6,0.5-1.4,0.8-2.4,0.8c-0.9,0-1.7-0.2-2.4-0.6c-1.1-0.7-1.7-1.8-1.8-3.5H495c0-1.4,0-2.5-0.1-3.3
			C494.6,576.2,494.2,575.1,493.5,574.1z M482.9,578c0.2-1.1,0.5-1.9,1.2-2.6c0.6-0.6,1.5-0.9,2.6-0.9c1,0,1.9,0.3,2.6,0.9
			c0.7,0.6,1.1,1.5,1.2,2.6H482.9z"/>
	</g>
	<path class="st8" d="M476.1,616.4c-21.8,0-39.5-17.7-39.5-39.5c0-21.8,17.7-39.5,39.5-39.5s39.5,17.7,39.5,39.5
		C515.6,598.7,497.9,616.4,476.1,616.4z M476.1,540.4c-20.1,0-36.5,16.4-36.5,36.5c0,20.1,16.4,36.5,36.5,36.5s36.5-16.4,36.5-36.5
		C512.6,556.8,496.2,540.4,476.1,540.4z"/>
</g>
<g id="Dribbble_7_">
	<g>
		<path id="Dribbble_1_" class="st9" d="M365,569.7c-0.5-1.1-1-2.1-1.7-3.1s-1.4-1.9-2.2-2.7c-0.8-0.8-1.7-1.6-2.7-2.2
			c-1-0.7-2-1.2-3.1-1.7s-2.3-0.8-3.4-1.1c-1.2-0.2-2.4-0.4-3.7-0.4c-1.2,0-2.5,0.1-3.7,0.4c-1.2,0.2-2.3,0.6-3.4,1.1
			c-1.1,0.5-2.1,1-3.1,1.7c-1,0.7-1.9,1.4-2.7,2.2c-0.8,0.8-1.6,1.7-2.2,2.7c-0.7,1-1.2,2-1.7,3.1s-0.8,2.3-1.1,3.4
			c-0.2,1.2-0.4,2.4-0.4,3.7c0,1.2,0.1,2.5,0.4,3.7c0.2,1.2,0.6,2.3,1.1,3.4s1,2.1,1.7,3.1s1.4,1.9,2.2,2.7c0.8,0.8,1.7,1.6,2.7,2.2
			c1,0.7,2,1.2,3.1,1.7s2.3,0.8,3.4,1.1c1.2,0.3,2.4,0.4,3.7,0.4c1.2,0,2.5-0.1,3.7-0.4c1.2-0.2,2.3-0.6,3.4-1.1
			c1.1-0.5,2.1-1,3.1-1.7c1-0.7,1.9-1.4,2.7-2.2c0.8-0.8,1.6-1.7,2.2-2.7c0.7-1,1.2-2,1.7-3.1s0.8-2.3,1.1-3.4
			c0.2-1.2,0.4-2.4,0.4-3.7c0-1.2-0.1-2.5-0.4-3.7C365.8,571.9,365.5,570.8,365,569.7z M348.1,561.1c4,0,7.6,1.5,10.3,3.9
			c0,0.1-2.3,3.5-8.2,5.7c-2.7-4.9-5.6-8.8-5.9-9.1C345.6,561.3,346.9,561.1,348.1,561.1z M344.4,561.6L344.4,561.6L344.4,561.6
			C344.3,561.6,344.4,561.6,344.4,561.6z M341.4,562.6c0.2,0.3,3.1,4.2,5.8,9c-7.5,2-14,1.9-14.5,1.9
			C333.8,568.7,337.1,564.7,341.4,562.6z M336.5,587.3c-2.5-2.8-4-6.4-4-10.5c0-0.2,0-0.3,0-0.5c0.3,0,8,0.2,16.1-2.2
			c0.4,0.9,0.9,1.8,1.3,2.7c-0.2,0.1-0.4,0.1-0.6,0.2C340.8,579.6,336.5,587.2,336.5,587.3C336.5,587.2,336.5,587.3,336.5,587.3z
			 M348.1,592.5c-3.7,0-7.1-1.3-9.8-3.4c-0.1,0-0.1-0.1-0.2-0.2c0.1,0.1,0.1,0.1,0.2,0.2c0.1,0.1,0.2,0.1,0.2,0.1s3-6.5,12.3-9.8
			h0.1c2.2,5.7,3.1,10.5,3.3,11.9C352.4,592,350.3,592.5,348.1,592.5z M356.9,589.8c-0.2-0.9-1-5.5-3-11.2c5.1-0.8,9.4,0.6,9.8,0.7
			C362.9,583.6,360.4,587.4,356.9,589.8z M352.9,576.1c-0.1-0.3-0.2-0.5-0.3-0.8c-0.3-0.8-0.7-1.5-1-2.3c6.2-2.5,8.7-6.2,8.7-6.2
			c2.2,2.7,3.5,6.1,3.6,9.8C363.6,576.6,358.3,575.4,352.9,576.1z"/>
	</g>
	<path class="st9" d="M348.1,616.4c-21.8,0-39.5-17.7-39.5-39.5c0-21.8,17.7-39.5,39.5-39.5s39.5,17.7,39.5,39.5
		C387.6,598.7,369.9,616.4,348.1,616.4z M348.1,540.4c-20.1,0-36.5,16.4-36.5,36.5c0,20.1,16.4,36.5,36.5,36.5s36.5-16.4,36.5-36.5
		C384.6,556.8,368.2,540.4,348.1,540.4z"/>
</g>
<g id="Facebook_6_">
	<path class="st10" d="M220.1,615.4c-21.8,0-39.5-17.7-39.5-39.5c0-21.8,17.7-39.5,39.5-39.5c21.8,0,39.5,17.7,39.5,39.5
		C259.6,597.7,241.9,615.4,220.1,615.4z M220.1,539.4c-20.1,0-36.5,16.4-36.5,36.5c0,20.1,16.4,36.5,36.5,36.5s36.5-16.4,36.5-36.5
		C256.6,555.8,240.2,539.4,220.1,539.4z"/>
	<path id="Facebook_1_" class="st10" d="M238.2,591.5c0,1.1-0.9,2-2,2h-9.4v-14.2h4.8l0.7-5.5h-5.5v-3.5c0-1.6,0.4-2.7,2.7-2.7h2.9
		v-5c-0.5-0.1-2.2-0.2-4.3-0.2c-4.2,0-7.1,2.6-7.1,7.3v4.1h-4.8v5.5h4.8v14.2h-17.6c-1.1,0-2-0.9-2-2v-32.7c0-1.1,0.9-2,2-2h32.7
		c1.1,0,2,0.9,2,2L238.2,591.5L238.2,591.5z"/>
</g>
<g id="Google_x2B__5_">
	<path class="st11" d="M90.1,615.4c-21.8,0-39.5-17.7-39.5-39.5c0-21.8,17.7-39.5,39.5-39.5s39.5,17.7,39.5,39.5
		C129.6,597.7,111.9,615.4,90.1,615.4z M90.1,539.4c-20.1,0-36.5,16.4-36.5,36.5c0,20.1,16.4,36.5,36.5,36.5s36.5-16.4,36.5-36.5
		C126.6,555.8,110.2,539.4,90.1,539.4z"/>
	<path class="st11" d="M82.4,573v5.1c0,0,4.9,0,6.9,0c-1.1,3.3-2.8,5.1-6.9,5.1c-4.2,0-7.5-3.4-7.5-7.6c0-4.2,3.3-7.6,7.5-7.6
		c2.2,0,3.7,0.8,5,1.9c1.1-1.1,1-1.2,3.6-3.7c-2.3-2.1-5.3-3.3-8.6-3.3c-7.1,0-12.8,5.7-12.8,12.8s5.7,12.8,12.8,12.8
		c10.6,0,13.2-9.2,12.3-15.4L82.4,573L82.4,573z"/>
	<polygon class="st11" points="105.5,573.3 105.5,568.8 102.4,568.8 102.4,573.3 97.8,573.3 97.8,576.5 102.4,576.5 102.4,581 
		105.5,581 105.5,576.5 110,576.5 110,573.3 	"/>
</g>
<g id="_x30_1-SINGLE-GREY">
	<path id="Vimeo" class="st2" d="M1004.1,432.1c-5.1-0.2-8.5,2.7-10.4,8.5c0.9-0.4,1.8-0.6,2.7-0.6c1.9,0,2.7,1,2.5,3.1
		c-0.1,1.3-0.9,3.1-2.5,5.5c-1.5,2.4-2.7,3.6-3.5,3.6c-1,0-1.9-1.8-2.7-5.5c-0.3-1.1-0.8-3.8-1.5-8.3c-0.7-4.1-2.4-6-5.3-5.8
		c-1.2,0.1-3,1.2-5.4,3.3c-1.8,1.6-3.5,3.1-5.3,4.7l1.7,2.2c1.6-1.1,2.6-1.7,2.9-1.7c1.3,0,2.4,2,3.5,5.9c1,3.6,2,7.2,3,10.7
		c1.5,3.9,3.3,5.8,5.4,5.8c3.5,0,7.7-3.2,12.7-9.6c4.8-6.1,7.3-10.9,7.5-14.5C1009.7,434.7,1007.9,432.3,1004.1,432.1z"/>
	<path id="Instagram" class="st2" d="M876.1,429.2h-27.9c-2.4,0-4.4,1.9-4.4,4.3v28c0,2.4,2,4.3,4.4,4.3h27.9c2.4,0,4.4-1.9,4.4-4.3
		v-28C880.4,431.2,878.5,429.2,876.1,429.2z M870.1,435c0-0.6,0.5-1.1,1.1-1.1h3.4c0.6,0,1.1,0.5,1.1,1.1v3.4c0,0.6-0.5,1.1-1.1,1.1
		h-3.4c-0.6,0-1.1-0.5-1.1-1.1V435z M862.1,440.6c3.9,0,7.1,3.1,7.1,7s-3.2,7-7.1,7s-7-3.1-7-7S858.2,440.6,862.1,440.6z M877,461.3
		c0,0.6-0.5,1.1-1.1,1.1h-27.5c-0.6,0-1.1-0.5-1.1-1.1v-17.2h4.6c-0.6,0.9-0.8,2.5-0.8,3.5c0,6.1,5,11.1,11.2,11.1s11.2-5,11.2-11.1
		c0-1-0.1-2.6-0.9-3.5h4.6v17.2C877.2,461.3,877,461.3,877,461.3z"/>
	<path id="Twitter" class="st2" d="M751.4,432.4c-1.5,0.9-3.1,1.6-4.9,1.9c-1.4-1.5-3.4-2.5-5.6-2.5c-4.2,0-7.7,3.5-7.7,7.9
		c0,0.6,0.1,1.2,0.2,1.8c-6.4-0.3-12-3.5-15.8-8.2c-0.7,1.2-1,2.5-1,4c0,2.7,1.4,5.1,3.4,6.6c-1.3,0-2.4-0.4-3.5-1v0.1
		c0,3.8,2.6,7,6.2,7.7c-0.6,0.2-1.3,0.3-2,0.3c-0.5,0-1,0-1.4-0.1c1,3.1,3.8,5.4,7.2,5.5c-2.6,2.1-5.9,3.4-9.5,3.4
		c-0.6,0-1.2,0-1.8-0.1c3.4,2.2,7.4,3.5,11.8,3.5c14.1,0,21.9-12,21.9-22.4c0-0.3,0-0.7,0-1c1.5-1.1,2.8-2.5,3.8-4.1
		c-1.4,0.6-2.9,1.1-4.4,1.2C749.6,435.8,750.8,434.3,751.4,432.4z"/>
	<g id="LinkedIn">
		<rect x="588.3" y="441.9" class="st2" width="7.2" height="22.8"/>
		<path class="st2" d="M615.1,441.7c-4.1,0-6.7,2.2-7.2,3.8v-3.6h-8.1c0.1,1.9,0,22.8,0,22.8h8.1v-12.3c0-0.7,0-1.4,0.2-1.9
			c0.6-1.4,1.7-2.8,3.9-2.8c2.8,0,4.1,2.1,4.1,5.2v11.8h8.2V452C624.2,445,620.2,441.7,615.1,441.7z"/>
		<path class="st2" d="M591.7,431.2c-2.7,0-4.4,1.7-4.4,4c0,2.2,1.7,3.9,4.3,3.9h0.1c2.7,0,4.4-1.7,4.4-4
			C596,432.9,594.4,431.2,591.7,431.2z"/>
	</g>
	<g id="Behance">
		<path class="st2" d="M473.4,446.6c0.8-0.4,1.3-0.8,1.7-1.3c0.7-0.8,1-1.9,1-3.3c0-1.3-0.3-2.5-1-3.4c-1.2-1.5-3.1-2.3-5.9-2.4
			h-10.9v22.3h10.2c1.2,0,2.2-0.1,3.2-0.3s1.8-0.6,2.6-1.1c0.6-0.5,1.2-1.1,1.6-1.8c0.7-1,1-2.2,1-3.6c0-1.3-0.3-2.4-0.9-3.3
			C475.4,447.7,474.6,447,473.4,446.6z M462.9,440.2h4.9c1.1,0,2,0.1,2.7,0.3c0.8,0.3,1.2,1,1.2,2.1c0,0.9-0.3,1.6-0.9,2
			c-0.6,0.4-1.4,0.6-2.4,0.6h-5.5V440.2z M470.7,454.3c-0.5,0.3-1.3,0.4-2.3,0.4h-5.5v-6h5.6c1,0,1.7,0.1,2.3,0.4
			c1,0.4,1.4,1.2,1.4,2.4C472.1,452.9,471.6,453.9,470.7,454.3z"/>
		<rect x="481.8" y="437.3" class="st2" width="9.7" height="2.8"/>
		<path class="st2" d="M493.5,444.9c-0.8-1.1-1.7-1.9-2.9-2.4s-2.5-0.8-3.9-0.8c-2.5,0-4.4,0.8-6,2.3c-1.5,1.5-2.3,3.7-2.3,6.6
			c0,3.1,0.8,5.3,2.6,6.6c1.7,1.4,3.7,2,5.9,2c2.7,0,4.8-0.8,6.3-2.4c1-1,1.5-2,1.6-3h-4.5c-0.3,0.5-0.6,0.9-0.9,1.1
			c-0.6,0.5-1.4,0.8-2.4,0.8c-0.9,0-1.7-0.2-2.4-0.6c-1.1-0.7-1.7-1.8-1.8-3.5H495c0-1.4,0-2.5-0.1-3.3
			C494.6,447,494.2,445.9,493.5,444.9z M482.9,448.7c0.2-1.1,0.5-1.9,1.2-2.6c0.6-0.6,1.5-0.9,2.6-0.9c1,0,1.9,0.3,2.6,0.9
			c0.7,0.6,1.1,1.5,1.2,2.6H482.9z"/>
	</g>
	<path id="Dribbble" class="st2" d="M365,440.4c-0.5-1.1-1-2.1-1.7-3.1s-1.4-1.9-2.2-2.7c-0.8-0.8-1.7-1.6-2.7-2.2
		c-1-0.7-2-1.2-3.1-1.7s-2.3-0.8-3.4-1.1c-1.2-0.2-2.4-0.4-3.7-0.4c-1.2,0-2.5,0.1-3.7,0.4c-1.2,0.2-2.3,0.6-3.4,1.1
		c-1.1,0.5-2.1,1-3.1,1.7s-1.9,1.4-2.7,2.2c-0.8,0.8-1.6,1.7-2.2,2.7c-0.7,1-1.2,2-1.7,3.1s-0.8,2.3-1.1,3.4
		c-0.2,1.2-0.4,2.4-0.4,3.7c0,1.2,0.1,2.5,0.4,3.7c0.2,1.2,0.6,2.3,1.1,3.4s1,2.1,1.7,3.1s1.4,1.9,2.2,2.7c0.8,0.8,1.7,1.6,2.7,2.2
		c1,0.7,2,1.2,3.1,1.7s2.3,0.8,3.4,1.1c1.2,0.3,2.4,0.4,3.7,0.4c1.2,0,2.5-0.1,3.7-0.4c1.2-0.2,2.3-0.6,3.4-1.1
		c1.1-0.5,2.1-1,3.1-1.7s1.9-1.4,2.7-2.2c0.8-0.8,1.6-1.7,2.2-2.7c0.7-1,1.2-2,1.7-3.1s0.8-2.3,1.1-3.4c0.2-1.2,0.4-2.4,0.4-3.7
		c0-1.2-0.1-2.5-0.4-3.7C365.8,442.7,365.5,441.5,365,440.4z M348.1,431.9c4,0,7.6,1.5,10.3,3.9c0,0.1-2.3,3.5-8.2,5.7
		c-2.7-4.9-5.6-8.8-5.9-9.1C345.6,432.1,346.9,431.9,348.1,431.9z M344.4,432.3C344.4,432.4,344.4,432.4,344.4,432.3
		C344.4,432.4,344.4,432.4,344.4,432.3C344.3,432.4,344.4,432.4,344.4,432.3z M341.4,433.4c0.2,0.3,3.1,4.2,5.8,9
		c-7.5,2-14,1.9-14.5,1.9C333.8,439.5,337.1,435.5,341.4,433.4z M336.5,458c-2.5-2.8-4-6.4-4-10.5c0-0.2,0-0.3,0-0.5
		c0.3,0,8,0.2,16.1-2.2c0.4,0.9,0.9,1.8,1.3,2.7c-0.2,0.1-0.4,0.1-0.6,0.2C340.8,450.4,336.5,458,336.5,458L336.5,458z M348.1,463.2
		c-3.7,0-7.1-1.3-9.8-3.4c-0.1,0-0.1-0.1-0.2-0.2c0.1,0.1,0.1,0.1,0.2,0.2c0.1,0.1,0.2,0.1,0.2,0.1s3-6.5,12.3-9.8h0.1
		c2.2,5.7,3.1,10.5,3.3,11.9C352.4,462.8,350.3,463.2,348.1,463.2z M356.9,460.5c-0.2-0.9-1-5.5-3-11.2c5.1-0.8,9.4,0.6,9.8,0.7
		C362.9,454.4,360.4,458.2,356.9,460.5z M352.9,446.9c-0.1-0.3-0.2-0.5-0.3-0.8c-0.3-0.8-0.7-1.5-1-2.3c6.2-2.5,8.7-6.2,8.7-6.2
		c2.2,2.7,3.5,6.1,3.6,9.8C363.6,447.3,358.3,446.2,352.9,446.9z"/>
	<path id="Facebook" class="st2" d="M237.7,463.7c0,1.1-0.9,2-2,2h-9.4v-14.2h4.8l0.7-5.5h-5.5v-3.5c0-1.6,0.4-2.7,2.7-2.7h2.9v-5
		c-0.5-0.1-2.2-0.2-4.3-0.2c-4.2,0-7.1,2.6-7.1,7.3v4.1h-4.8v5.5h4.8v14.2h-17.6c-1.1,0-2-0.9-2-2v-32.6c0-1.1,0.9-2,2-2h32.7
		c1.1,0,2,0.9,2,2L237.7,463.7L237.7,463.7z"/>
	<g id="Google_x2B_">
		<path class="st2" d="M82.4,445.3v5.1c0,0,4.9,0,6.9,0c-1.1,3.3-2.8,5.1-6.9,5.1c-4.2,0-7.5-3.4-7.5-7.6s3.3-7.6,7.5-7.6
			c2.2,0,3.7,0.8,5,1.9c1.1-1.1,1-1.2,3.6-3.7c-2.3-2.1-5.3-3.3-8.6-3.3c-7.1,0-12.8,5.7-12.8,12.8s5.7,12.8,12.8,12.8
			c10.6,0,13.2-9.2,12.3-15.4H82.4V445.3z"/>
		<polygon class="st2" points="105.5,445.6 105.5,441.1 102.4,441.1 102.4,445.6 97.8,445.6 97.8,448.7 102.4,448.7 102.4,453.3 
			105.5,453.3 105.5,448.7 110,448.7 110,445.6 		"/>
	</g>
</g>
</svg>
