<?xml version="1.0" encoding="utf-8"?>
<!-- Generator: Adobe Illustrator 19.1.0, SVG Export Plug-In . SVG Version: 6.00 Build 0)  -->
<!DOCTYPE svg PUBLIC "-//W3C//DTD SVG 1.1//EN" "http://www.w3.org/Graphics/SVG/1.1/DTD/svg11.dtd">
<svg version="1.1" id="Layer_1" xmlns="http://www.w3.org/2000/svg" xmlns:xlink="http://www.w3.org/1999/xlink" x="0px" y="0px"
	 width="40px" height="40px" viewBox="-218.2 260.7 40 40" style="enable-background:new -218.2 260.7 40 40;" xml:space="preserve"
	>
<style type="text/css">
	.st0{fill:none;}
	.st1{enable-background:new    ;}
	.st2{fill:#8E99A8;}
	.st3{fill:#24A9E6;}
	.st4{fill:#FFFFFF;}
	.st5{fill:#1CB1E6;}
	.st6{fill:#2A5B83;}
	.st7{fill:#187FB8;}
	.st8{fill:#1A70F9;}
	.st9{fill:#E64C87;}
	.st10{fill:#43619C;}
	.st11{fill:#F24033;}
</style>
<g id="SIGNATURE">
	<rect x="330.1" y="1020.1" class="st0" width="459.6" height="82.7"/>
	<text transform="matrix(1 0 0 1 330.1419 1039.2969)" class="st2" style="font-family:'MyriadPro-Regular'; font-size:27px;">CHRISTOPHE KEREBEL</text>
	<rect x="929.2" y="1020.9" class="st0" width="384.4" height="82.7"/>
	<text transform="matrix(1 0 0 1 1055.2454 1040.05)" class="st2" style="font-family:'MyriadPro-Regular'; font-size:27px;">My Twitter </text>
	<text transform="matrix(1 0 0 1 1180.9454 1040.05)" class="st3" style="font-family:'MyriadPro-Regular'; font-size:27px;">: @chriskere</text>
</g>
<g id="BACKGROUND">
	<rect x="132.7" y="619.2" class="st2" width="1372.9" height="332"/>
</g>
<g id="_x30_6-SINGLE-WHITE">
	<path id="Vimeo_3_" class="st4" d="M1283.1,799.2c-5.1-0.2-8.5,2.7-10.4,8.5c0.9-0.4,1.8-0.6,2.7-0.6c1.9,0,2.7,1,2.5,3.1
		c-0.1,1.3-0.9,3.1-2.5,5.5c-1.5,2.4-2.7,3.6-3.5,3.6c-1,0-1.9-1.8-2.7-5.5c-0.3-1.1-0.8-3.8-1.5-8.3c-0.7-4.1-2.4-6-5.3-5.8
		c-1.2,0.1-3,1.2-5.4,3.3c-1.8,1.6-3.5,3.1-5.3,4.7l1.7,2.2c1.6-1.1,2.6-1.7,2.9-1.7c1.3,0,2.4,2,3.5,5.9c1,3.6,2,7.2,3,10.7
		c1.5,3.9,3.3,5.8,5.4,5.8c3.5,0,7.7-3.2,12.7-9.6c4.8-6.1,7.3-10.9,7.5-14.5C1288.7,801.7,1286.9,799.3,1283.1,799.2z"/>
	<path id="Instagram_3_" class="st4" d="M1155.1,796.3h-27.9c-2.4,0-4.4,1.9-4.4,4.3v28c0,2.4,2,4.3,4.4,4.3h27.9
		c2.4,0,4.4-1.9,4.4-4.3v-28C1159.4,798.2,1157.5,796.3,1155.1,796.3z M1149.1,802c0-0.6,0.5-1.1,1.1-1.1h3.4c0.6,0,1.1,0.5,1.1,1.1
		v3.4c0,0.6-0.5,1.1-1.1,1.1h-3.4c-0.6,0-1.1-0.5-1.1-1.1V802z M1141.1,807.6c3.9,0,7.1,3.1,7.1,7s-3.2,7-7.1,7s-7-3.1-7-7
		C1134.1,810.8,1137.2,807.6,1141.1,807.6z M1156,828.4c0,0.6-0.5,1.1-1.1,1.1h-27.5c-0.6,0-1.1-0.5-1.1-1.1v-17.2h4.6
		c-0.6,0.9-0.8,2.5-0.8,3.5c0,6.1,5,11.1,11.2,11.1s11.2-5,11.2-11.1c0-1-0.1-2.6-0.9-3.5h4.6v17.2H1156z"/>
	<path id="Twitter_3_" class="st4" d="M1030.4,799.5c-1.5,0.9-3.1,1.6-4.9,1.9c-1.4-1.5-3.4-2.5-5.6-2.5c-4.2,0-7.7,3.5-7.7,7.9
		c0,0.6,0.1,1.2,0.2,1.8c-6.4-0.3-12-3.5-15.8-8.2c-0.7,1.2-1,2.5-1,4c0,2.7,1.4,5.1,3.4,6.6c-1.3,0-2.4-0.4-3.5-1v0.1
		c0,3.8,2.6,7,6.2,7.7c-0.6,0.2-1.3,0.3-2,0.3c-0.5,0-1,0-1.4-0.1c1,3.1,3.8,5.4,7.2,5.5c-2.6,2.1-5.9,3.4-9.5,3.4
		c-0.6,0-1.2,0-1.8-0.1c3.4,2.2,7.4,3.5,11.8,3.5c14.1,0,21.9-12,21.9-22.4c0-0.3,0-0.7,0-1c1.5-1.1,2.8-2.5,3.8-4.1
		c-1.4,0.6-2.9,1.1-4.4,1.2C1028.6,802.8,1029.8,801.3,1030.4,799.5z"/>
	<g id="LinkedIn_3_">
		<rect x="867.3" y="809" class="st4" width="7.2" height="22.8"/>
		<path class="st4" d="M894.1,808.7c-4.1,0-6.7,2.2-7.2,3.8v-3.6h-8.1c0.1,1.9,0,22.8,0,22.8h8.1v-12.3c0-0.7,0-1.4,0.2-1.9
			c0.6-1.4,1.7-2.8,3.9-2.8c2.8,0,4.1,2.1,4.1,5.2v11.8h8.2v-12.6C903.2,812,899.2,808.7,894.1,808.7z"/>
		<path class="st4" d="M870.7,798.2c-2.7,0-4.4,1.7-4.4,4c0,2.2,1.7,3.9,4.3,3.9h0.1c2.7,0,4.4-1.7,4.4-4
			C875,799.9,873.4,798.2,870.7,798.2z"/>
	</g>
	<g id="Behance_3_">
		<path class="st4" d="M752.4,813.7c0.8-0.4,1.3-0.8,1.7-1.3c0.7-0.8,1-1.9,1-3.3c0-1.3-0.3-2.5-1-3.4c-1.2-1.5-3.1-2.3-5.9-2.4
			h-10.9v22.3h10.2c1.2,0,2.2-0.1,3.2-0.3s1.8-0.6,2.6-1.1c0.6-0.5,1.2-1.1,1.6-1.8c0.7-1,1-2.2,1-3.6c0-1.3-0.3-2.4-0.9-3.3
			C754.4,814.8,753.6,814.1,752.4,813.7z M741.9,807.2h4.9c1.1,0,2,0.1,2.7,0.3c0.8,0.3,1.2,1,1.2,2.1c0,0.9-0.3,1.6-0.9,2
			c-0.6,0.4-1.4,0.6-2.4,0.6h-5.5V807.2z M749.7,821.4c-0.5,0.3-1.3,0.4-2.3,0.4h-5.5v-6h5.6c1,0,1.7,0.1,2.3,0.4
			c1,0.4,1.4,1.2,1.4,2.4C751.1,820,750.6,820.9,749.7,821.4z"/>
		<rect x="760.8" y="804.4" class="st4" width="9.7" height="2.8"/>
		<path class="st4" d="M772.5,811.9c-0.8-1.1-1.7-1.9-2.9-2.4s-2.5-0.8-3.9-0.8c-2.5,0-4.4,0.8-6,2.3c-1.5,1.5-2.3,3.7-2.3,6.6
			c0,3.1,0.8,5.3,2.6,6.6c1.7,1.4,3.7,2,5.9,2c2.7,0,4.8-0.8,6.3-2.4c1-1,1.5-2,1.6-3h-4.5c-0.3,0.5-0.6,0.9-0.9,1.1
			c-0.6,0.5-1.4,0.8-2.4,0.8c-0.9,0-1.7-0.2-2.4-0.6c-1.1-0.7-1.7-1.8-1.8-3.5H774c0-1.4,0-2.5-0.1-3.3
			C773.6,814,773.2,812.9,772.5,811.9z M761.9,815.8c0.2-1.1,0.5-1.9,1.2-2.6c0.6-0.6,1.5-0.9,2.6-0.9c1,0,1.9,0.3,2.6,0.9
			c0.7,0.6,1.1,1.5,1.2,2.6H761.9z"/>
	</g>
	<path id="Dribbble_3_" class="st4" d="M644,807.5c-0.5-1.1-1-2.1-1.7-3.1s-1.4-1.9-2.2-2.7s-1.7-1.6-2.7-2.2c-1-0.7-2-1.2-3.1-1.7
		s-2.3-0.8-3.4-1.1c-1.2-0.2-2.4-0.4-3.7-0.4c-1.2,0-2.5,0.1-3.7,0.4c-1.2,0.2-2.3,0.6-3.4,1.1c-1.1,0.5-2.1,1-3.1,1.7
		s-1.9,1.4-2.7,2.2s-1.6,1.7-2.2,2.7c-0.7,1-1.2,2-1.7,3.1s-0.8,2.3-1.1,3.4c-0.2,1.2-0.4,2.4-0.4,3.7c0,1.2,0.1,2.5,0.4,3.7
		c0.2,1.2,0.6,2.3,1.1,3.4c0.5,1.1,1,2.1,1.7,3.1s1.4,1.9,2.2,2.7s1.7,1.6,2.7,2.2c1,0.7,2,1.2,3.1,1.7s2.3,0.8,3.4,1.1
		c1.2,0.3,2.4,0.4,3.7,0.4c1.2,0,2.5-0.1,3.7-0.4c1.2-0.2,2.3-0.6,3.4-1.1c1.1-0.5,2.1-1,3.1-1.7s1.9-1.4,2.7-2.2s1.6-1.7,2.2-2.7
		c0.7-1,1.2-2,1.7-3.1s0.8-2.3,1.1-3.4c0.2-1.2,0.4-2.4,0.4-3.7c0-1.2-0.1-2.5-0.4-3.7C644.8,809.7,644.5,808.6,644,807.5z
		 M627.1,798.9c4,0,7.6,1.5,10.3,3.9c0,0.1-2.3,3.5-8.2,5.7c-2.7-4.9-5.6-8.8-5.9-9.1C624.6,799.1,625.9,798.9,627.1,798.9z
		 M623.4,799.4L623.4,799.4L623.4,799.4C623.3,799.4,623.4,799.4,623.4,799.4z M620.4,800.4c0.2,0.3,3.1,4.2,5.8,9
		c-7.5,2-14,1.9-14.5,1.9C612.8,806.5,616.1,802.5,620.4,800.4z M615.5,825.1c-2.5-2.8-4-6.4-4-10.5c0-0.2,0-0.3,0-0.5
		c0.3,0,8,0.2,16.1-2.2c0.4,0.9,0.9,1.8,1.3,2.7c-0.2,0.1-0.4,0.1-0.6,0.2C619.8,817.5,615.5,825.1,615.5,825.1L615.5,825.1z
		 M627.1,830.3c-3.7,0-7.1-1.3-9.8-3.4c-0.1,0-0.1-0.1-0.2-0.2c0.1,0.1,0.1,0.1,0.2,0.2c0.1,0.1,0.2,0.1,0.2,0.1s3-6.5,12.3-9.8h0.1
		c2.2,5.7,3.1,10.5,3.3,11.9C631.4,829.8,629.3,830.3,627.1,830.3z M635.9,827.6c-0.2-0.9-1-5.5-3-11.2c5.1-0.8,9.4,0.6,9.8,0.7
		C641.9,821.5,639.4,825.2,635.9,827.6z M631.9,813.9c-0.1-0.3-0.2-0.5-0.3-0.8c-0.3-0.8-0.7-1.5-1-2.3c6.2-2.5,8.7-6.2,8.7-6.2
		c2.2,2.7,3.5,6.1,3.6,9.8C642.6,814.4,637.3,813.3,631.9,813.9z"/>
	<path id="Facebook_2_" class="st4" d="M516.7,831.4c0,1.1-0.9,2-2,2h-9.4v-14.2h4.8l0.7-5.5h-5.5v-3.5c0-1.6,0.4-2.7,2.7-2.7h2.9
		v-5c-0.5-0.1-2.2-0.2-4.3-0.2c-4.2,0-7.1,2.6-7.1,7.3v4.1h-4.8v5.5h4.8v14.2h-17.6c-1.1,0-2-0.9-2-2v-32.7c0-1.1,0.9-2,2-2h32.7
		c1.1,0,2,0.9,2,2L516.7,831.4L516.7,831.4z"/>
	<g id="Google_x2B__2_">
		<path class="st4" d="M361.4,812.2v5.1c0,0,4.9,0,6.9,0c-1.1,3.3-2.8,5.1-6.9,5.1c-4.2,0-7.5-3.4-7.5-7.6c0-4.2,3.3-7.6,7.5-7.6
			c2.2,0,3.7,0.8,5,1.9c1.1-1.1,1-1.2,3.6-3.7c-2.3-2.1-5.3-3.3-8.6-3.3c-7.1,0-12.8,5.7-12.8,12.8s5.7,12.8,12.8,12.8
			c10.6,0,13.2-9.2,12.3-15.4L361.4,812.2L361.4,812.2z"/>
		<polygon class="st4" points="384.5,812.4 384.5,808 381.4,808 381.4,812.4 376.8,812.4 376.8,815.6 381.4,815.6 381.4,820.2 
			384.5,820.2 384.5,815.6 389,815.6 389,812.4 		"/>
	</g>
</g>
<g id="Vimeo_5_">
	<path class="st4" d="M1270.1,647.9c-21,0-38,17-38,38s17,38,38,38s38-17,38-38S1291.1,647.9,1270.1,647.9z M1281,692.1
		c-5,6.4-9.2,9.6-12.7,9.6c-2.1,0-3.9-1.9-5.4-5.9c-1-3.6-2-7.2-3-10.7c-1.1-3.9-2.3-5.9-3.5-5.9c-0.3,0-1.2,0.6-2.9,1.7l-1.7-2.2
		c1.8-1.6,3.6-3.1,5.3-4.7c2.4-2.1,4.2-3.1,5.4-3.3c2.9-0.3,4.6,1.7,5.3,5.8c0.7,4.4,1.2,7.2,1.5,8.3c0.8,3.7,1.7,5.5,2.7,5.5
		c0.8,0,1.9-1.2,3.5-3.6c1.5-2.4,2.3-4.2,2.5-5.5c0.2-2.1-0.6-3.1-2.5-3.1c-0.9,0-1.8,0.2-2.7,0.6c1.8-5.8,5.3-8.6,10.4-8.5
		c3.8,0.1,5.6,2.5,5.3,7.2C1288.3,681.1,1285.8,686,1281,692.1z"/>
</g>
<g id="Instagram_5_">
	<path class="st4" d="M1134.1,685.8c0-3.9,3.2-7,7-7c3.9,0,7.1,3.1,7.1,7c0,3.9-3.2,7-7.1,7C1137.2,692.9,1134.1,689.7,1134.1,685.8
		z"/>
	<path class="st4" d="M1154.6,676.6c0,0.6-0.5,1.2-1.1,1.2h-3.7c-0.6,0-1.2-0.5-1.2-1.2v-3.7c0-0.6,0.5-1.2,1.2-1.2h3.7
		c0.6,0,1.1,0.5,1.1,1.2V676.6z"/>
	<path class="st4" d="M1151.4,682.8h4.2v16.7c0,0.6-0.1,1.3-0.8,1.3h-27.5c-0.6,0-0.7-0.6-0.7-1.3v-16.7h4.2c-0.6,0-0.8,2.2-0.8,3.3
		c0,6.1,5,11,11.2,11s11.2-4.8,11.2-11C1152.3,685.1,1152.1,682.8,1151.4,682.8z"/>
	<path class="st4" d="M1140.1,647.9c-21,0-38,17-38,38s17,38,38,38s38-17,38-38S1161.1,647.9,1140.1,647.9z M1159.6,699.8
		c0,2.4-2.1,4-4.5,4h-28c-2.4,0-4.5-1.6-4.5-4v-28c0-2.4,2.1-4,4.5-4h28c2.4,0,4.5,1.6,4.5,4V699.8z"/>
</g>
<g id="Twitter_5_">
	<path class="st4" d="M1013.1,647.9c-21,0-38,17-38,38s17,38,38,38s38-17,38-38S1034.1,647.9,1013.1,647.9z M1027.6,677.8
		c0,0.3,0,0.7,0,1c0,10.4-7.7,22.4-21.9,22.4c-4.3,0-8.4-1.3-11.8-3.5c0.6,0.1,1.2,0.1,1.8,0.1c3.6,0,6.9-1.3,9.5-3.4
		c-3.4-0.1-6.2-2.3-7.2-5.5c0.5,0.1,1,0.1,1.4,0.1c0.7,0,1.5-0.1,2.1-0.3c-3.5-0.7-6.1-3.9-6.1-7.7v0.1c1,0.6,2.1,0.9,3.4,1
		c-2.1-1.4-3.5-3.8-3.5-6.6c0-1.4,0.4-2.8,1-4c3.8,4.8,9.4,7.9,15.8,8.2c-0.1-0.6-0.2-1.2-0.2-1.8c0-4.3,3.4-7.9,7.7-7.9
		c2.2,0,4.2,1,5.6,2.5c1.8-0.4,3.4-1,4.9-1.9c-0.6,1.8-1.8,3.4-3.4,4.4c1.6-0.2,3-0.6,4.4-1.2
		C1030.4,675.3,1029.1,676.7,1027.6,677.8z"/>
</g>
<g id="LinKeDin">
	<path class="st4" d="M884.1,647.9c-21,0-38,17-38,38s17,38,38,38s38-17,38-38S905.1,647.9,884.1,647.9z M874.6,702.8h-7v-23h7
		V702.8z M870.7,677.8L870.7,677.8c-2.7,0-4.3-2-4.3-4.2c0-2.2,1.7-4.1,4.4-4.1c2.6,0,4.3,1.9,4.3,4.1
		C875.1,675.9,873.4,677.8,870.7,677.8z M903.6,702.8h-9v-11.7c0-3.1-1-5.2-3.8-5.2c-2.1,0-3.4,1.4-3.9,2.8
		c-0.2,0.5-0.2,1.2-0.2,1.9v12.2H879c0,0,0.1-21,0-23h7.7v3.9c1-1.6,3.4-3.8,7.5-3.8c5.1,0,9.5,3.3,9.5,10.3L903.6,702.8
		L903.6,702.8z"/>
</g>
<g id="Behance_5_">
	<path class="st4" d="M747.4,683.8h-5.8v-5h5.2c1.1,0,2-0.1,2.7,0.2c0.8,0.3,1.2,0.9,1.2,2c0,0.9-0.3,1.8-0.9,2.1
		C749.1,683.4,748.3,683.8,747.4,683.8z"/>
	<path class="st4" d="M751.1,689.8c0,1.4-0.5,2.2-1.5,2.7c-0.5,0.3-1.3,0.3-2.3,0.3h-5.8v-6h5.8c1,0,1.7,0.2,2.3,0.5
		C750.7,687.7,751.1,688.6,751.1,689.8z"/>
	<path class="st4" d="M755.1,647.9c-21,0-38,17-38,38s17,38,38,38s38-17,38-38S776.1,647.9,755.1,647.9z M760.6,675.8h10v3h-10
		V675.8z M754.9,693.7c-0.4,0.7-1,1.3-1.6,1.8c-0.7,0.5-1.6,0.9-2.6,1.1c-1,0.2-2,0.3-3.2,0.3h-10v-22h10.7c2.8,0,4.7,0.7,5.9,2.2
		c0.7,1,1,2,1,3.3c0,1.4-0.3,2.4-1,3.2c-0.4,0.5-1,0.9-1.7,1.3c1.1,0.4,2,1.1,2.6,2c0.6,0.9,0.9,2,0.9,3.3
		C755.9,691.4,755.6,692.6,754.9,693.7z M774,689.8h-12.2c0.1,2,0.7,2.8,1.8,3.5c0.7,0.4,1.5,0.6,2.4,0.6c1,0,1.8-0.3,2.4-0.8
		c0.3-0.3,0.6-0.2,0.9-1.2h4.5c-0.1,1-0.7,2.1-1.6,3.1c-1.5,1.6-3.6,2.5-6.3,2.5c-2.2,0-4.2-0.7-5.9-2c-1.7-1.4-2.6-3.6-2.6-6.6
		c0-2.9,0.8-5,2.3-6.6c1.5-1.5,3.5-2.3,6-2.3c1.5,0,2.8,0.3,3.9,0.8c1.2,0.5,2.1,1.3,2.9,2.5c0.7,1,1.1,2.1,1.3,3.4
		C774,687.3,774,688.8,774,689.8z M765.7,683.4c-1.1,0-2,0.3-2.6,0.9c-0.6,0.6-1,1.5-1.2,2.5h7.6c-0.1-1-0.5-2-1.2-2.5
		C767.6,683.7,766.7,683.4,765.7,683.4z"/>
</g>
<g id="Dribbble_5_">
	<path class="st4" d="M611.8,682.6c1-4.8,4.3-8.9,8.6-10.9c0.2,0.3,3.1,4.2,5.8,9C618.7,682.6,612.2,682.6,611.8,682.6z"/>
	<path class="st4" d="M615.5,696.2c-2.5-2.8-4-6.4-4-10.5c0-0.2,0-0.3,0-0.5c0.3,0,8,0.2,16.1-2.2c0.4,0.9,0.9,1.8,1.3,2.7
		c-0.2,0.1-0.4,0.1-0.6,0.2C619.8,688.6,615.5,696.2,615.5,696.2z"/>
	<path class="st4" d="M629.9,688.3c2.2,5.7,3.1,10.5,3.3,11.9c-1.9,0.8-3.9,1.2-6.1,1.2c-3.6,0-7-1.2-9.6-3.3
		C617.5,698.1,620.5,691.6,629.9,688.3C629.8,688.3,629.9,688.3,629.9,688.3z"/>
	<path class="st4" d="M629.3,679.7c-2.7-4.9-5.6-8.8-5.8-9.1c1.2-0.3,2.4-0.5,3.7-0.5c4,0,7.6,1.5,10.3,3.9
		C637.4,674.1,635.2,677.5,629.3,679.7z"/>
	<path class="st4" d="M642.6,688.3c-0.7,4.4-3.2,8.1-6.7,10.5c-0.2-0.9-1-5.5-3.1-11.2C637.9,686.8,642.3,688.2,642.6,688.3z"/>
	<path class="st4" d="M639.2,675.8c2.2,2.7,3.5,6.1,3.6,9.8c-0.2,0-5.5-1.2-10.9-0.5c-0.1-0.3-0.2-0.5-0.3-0.8
		c-0.3-0.8-0.7-1.5-1-2.3C636.7,679.5,639.2,675.9,639.2,675.8z"/>
	<path class="st4" d="M627.1,647.9c-21,0-38,17-38,38s17,38,38,38s38-17,38-38S648.1,647.9,627.1,647.9z M645.1,689.5
		c-0.2,1.2-0.6,2.3-1.1,3.4c-0.5,1.1-1,2.1-1.7,3.1c-0.6,1-1.4,1.9-2.2,2.7s-1.7,1.6-2.7,2.2c-1,0.7-2,1.2-3.1,1.7s-2.3,0.8-3.5,1.1
		c-1.2,0.2-2.4,0.4-3.7,0.4c-1.2,0-2.5-0.1-3.7-0.4c-1.2-0.2-2.3-0.6-3.4-1.1s-2.1-1-3.1-1.7s-1.9-1.4-2.7-2.2s-1.6-1.7-2.2-2.7
		c-0.7-1-1.2-2-1.7-3.1c-0.5-1.1-0.8-2.3-1.1-3.4c-0.2-1.2-0.4-2.5-0.4-3.7s0.1-2.5,0.4-3.7c0.2-1.2,0.6-2.3,1.1-3.4
		c0.5-1.1,1-2.1,1.7-3.1s1.4-1.9,2.2-2.7s1.7-1.6,2.7-2.2c1-0.7,2-1.2,3.1-1.7s2.3-0.8,3.4-1.1c1.2-0.2,2.5-0.4,3.7-0.4
		s2.5,0.1,3.7,0.4c1.2,0.2,2.3,0.6,3.5,1.1c1.1,0.5,2.1,1,3.1,1.7s1.9,1.4,2.7,2.2s1.6,1.7,2.2,2.7c0.7,1,1.2,2,1.7,3.1
		c0.5,1.1,0.8,2.3,1.1,3.4c0.2,1.2,0.4,2.5,0.4,3.7S645.3,688.3,645.1,689.5z"/>
</g>
<g id="Facebook_4_">
	<path class="st4" d="M498.1,646.5c-21,0-38,17-38,38s17,38,38,38s38-17,38-38S519.1,646.5,498.1,646.5z M516.6,700.5
		c0,1.1-0.5,2.3-1.7,2.3h-9.3v-14h4.8l0.7-6h-5.5v-3.6c0-1.6,0.4-2.4,2.7-2.4h3.3v-5.2c-1-0.1-2.6-0.2-4.6-0.2
		c-4.2,0-7.4,2.6-7.4,7.3v4.1h-5v6h5v14h-17.3c-1.1,0-1.7-1.2-1.7-2.3v-32.7c0-1.1,0.6-2,1.7-2H515c1.1,0,1.7,0.9,1.7,2v32.7H516.6
		L516.6,700.5z"/>
</g>
<g id="Google_x2B__3_">
	<path class="st4" d="M368.8,646.6c-21,0-38,17-38,38s17,38,38,38s38-17,38-38S389.8,646.6,368.8,646.6z M361.4,697.9
		c-7.1,0-12.8-5.9-12.8-13s5.7-12.9,12.8-12.9c3.3,0,6.4,1.2,8.6,3.3c-2.7,2.5-2.6,2.7-3.6,3.7c-1.3-1.1-2.8-1.9-5-1.9
		c-4.2,0-7.5,3.4-7.5,7.6c0,4.2,3.3,7.9,7.5,7.9s5.8-1.8,6.9-4.8c-2,0-6.8,0-6.8,0v-5h12.2C374.6,688.8,372,697.9,361.4,697.9z
		 M388.6,685.8h-4v5h-3v-5h-5v-3h5v-4h3v4h4V685.8z"/>
</g>
<g id="_x30_4-FULL-COLOR">
	<g id="Vimeo_6_">
		<circle class="st5" cx="1270.1" cy="553.9" r="38"/>
		<g id="Vimeo_2_">
			<path class="st4" d="M1283.1,538.4c-5.1-0.2-8.5,2.7-10.4,8.5c0.9-0.4,1.8-0.6,2.7-0.6c1.9,0,2.7,1,2.5,3.1
				c-0.1,1.3-0.9,3.1-2.5,5.5c-1.5,2.4-2.7,3.6-3.5,3.6c-1,0-1.9-1.8-2.7-5.5c-0.3-1.1-0.8-3.8-1.5-8.3c-0.7-4.1-2.4-6-5.3-5.8
				c-1.2,0.1-3,1.2-5.4,3.3c-1.8,1.6-3.5,3.1-5.3,4.7l1.7,2.2c1.6-1.1,2.6-1.7,2.9-1.7c1.3,0,2.4,2,3.5,5.9c1,3.6,2,7.2,3,10.7
				c1.5,3.9,3.3,5.8,5.4,5.8c3.5,0,7.7-3.2,12.7-9.6c4.8-6.1,7.3-10.9,7.5-14.5C1288.7,540.9,1286.9,538.5,1283.1,538.4z"/>
		</g>
	</g>
	<g id="Instagram_6_">
		<circle class="st6" cx="1140.1" cy="553.9" r="38"/>
		<path id="Instagram_2_" class="st4" d="M1155.1,535.5h-27.9c-2.4,0-4.4,1.9-4.4,4.3v28c0,2.4,2,4.3,4.4,4.3h27.9
			c2.4,0,4.4-1.9,4.4-4.3v-28C1159.4,537.4,1157.5,535.5,1155.1,535.5z M1149.1,541.2c0-0.6,0.5-1.1,1.1-1.1h3.4
			c0.6,0,1.1,0.5,1.1,1.1v3.4c0,0.6-0.5,1.1-1.1,1.1h-3.4c-0.6,0-1.1-0.5-1.1-1.1V541.2z M1141.1,546.8c3.9,0,7.1,3.1,7.1,7
			c0,3.9-3.2,7-7.1,7s-7-3.1-7-7C1134.1,550,1137.2,546.8,1141.1,546.8z M1156,567.5c0,0.6-0.5,1.1-1.1,1.1h-27.5
			c-0.6,0-1.1-0.5-1.1-1.1v-17.2h4.6c-0.6,0.9-0.8,2.5-0.8,3.5c0,6.1,5,11.1,11.2,11.1s11.2-5,11.2-11.1c0-1-0.1-2.6-0.9-3.5h4.6
			v17.2H1156z"/>
	</g>
	<g id="Twitter_6_">
		<circle class="st3" cx="1013.1" cy="553.9" r="38"/>
		<path id="Twitter_2_" class="st4" d="M1030.4,538.7c-1.5,0.9-3.1,1.6-4.9,1.9c-1.4-1.5-3.4-2.5-5.6-2.5c-4.2,0-7.7,3.5-7.7,7.9
			c0,0.6,0.1,1.2,0.2,1.8c-6.4-0.3-12-3.5-15.8-8.2c-0.7,1.2-1,2.5-1,4c0,2.7,1.4,5.1,3.4,6.6c-1.3,0-2.4-0.4-3.5-1v0.1
			c0,3.8,2.6,7,6.2,7.7c-0.6,0.2-1.3,0.3-2,0.3c-0.5,0-1,0-1.4-0.1c1,3.1,3.8,5.4,7.2,5.5c-2.6,2.1-5.9,3.4-9.5,3.4
			c-0.6,0-1.2,0-1.8-0.1c3.4,2.2,7.4,3.5,11.8,3.5c14.1,0,21.9-12,21.9-22.4c0-0.3,0-0.7,0-1c1.5-1.1,2.8-2.5,3.8-4.1
			c-1.4,0.6-2.9,1.1-4.4,1.2C1028.6,542,1029.8,540.5,1030.4,538.7z"/>
	</g>
	<g id="LinKeDin_1_">
		<circle class="st7" cx="884.1" cy="553.9" r="38"/>
		<g id="LinkedIn_2_">
			<rect x="867.3" y="548.2" class="st4" width="7.2" height="22.8"/>
			<path class="st4" d="M894.1,547.9c-4.1,0-6.7,2.2-7.2,3.8v-3.6h-8.1c0.1,1.9,0,22.8,0,22.8h8.1v-12.3c0-0.7,0-1.4,0.2-1.9
				c0.6-1.4,1.7-2.8,3.9-2.8c2.8,0,4.1,2.1,4.1,5.2v11.8h8.2v-12.7C903.2,551.2,899.2,547.9,894.1,547.9z"/>
			<path class="st4" d="M870.7,537.4c-2.7,0-4.4,1.7-4.4,4c0,2.2,1.7,3.9,4.3,3.9h0.1c2.7,0,4.4-1.7,4.4-4
				C875,539.1,873.4,537.4,870.7,537.4z"/>
		</g>
	</g>
	<g id="Behance_6_">
		<circle class="st8" cx="755.1" cy="553.9" r="38"/>
		<g id="Behance_2_">
			<path class="st4" d="M752.4,552.9c0.8-0.4,1.3-0.8,1.7-1.3c0.7-0.8,1-1.9,1-3.3c0-1.3-0.3-2.5-1-3.4c-1.2-1.5-3.1-2.3-5.9-2.4
				h-10.9v22.3h10.2c1.2,0,2.2-0.1,3.2-0.3s1.8-0.6,2.6-1.1c0.6-0.5,1.2-1.1,1.6-1.8c0.7-1,1-2.2,1-3.6c0-1.3-0.3-2.4-0.9-3.3
				C754.4,553.9,753.6,553.3,752.4,552.9z M741.9,546.4h4.9c1.1,0,2,0.1,2.7,0.3c0.8,0.3,1.2,1,1.2,2.1c0,0.9-0.3,1.6-0.9,2
				c-0.6,0.4-1.4,0.6-2.4,0.6h-5.5V546.4z M749.7,560.6c-0.5,0.3-1.3,0.4-2.3,0.4h-5.5v-6h5.6c1,0,1.7,0.1,2.3,0.4
				c1,0.4,1.4,1.2,1.4,2.4C751.1,559.2,750.6,560.1,749.7,560.6z"/>
			<rect x="760.8" y="543.6" class="st4" width="9.7" height="2.8"/>
			<path class="st4" d="M772.5,551.1c-0.8-1.1-1.7-1.9-2.9-2.4s-2.5-0.8-3.9-0.8c-2.5,0-4.4,0.8-6,2.3c-1.5,1.5-2.3,3.7-2.3,6.6
				c0,3.1,0.8,5.3,2.6,6.6c1.7,1.4,3.7,2,5.9,2c2.7,0,4.8-0.8,6.3-2.4c1-1,1.5-2,1.6-3h-4.5c-0.3,0.5-0.6,0.9-0.9,1.1
				c-0.6,0.5-1.4,0.8-2.4,0.8c-0.9,0-1.7-0.2-2.4-0.6c-1.1-0.7-1.7-1.8-1.8-3.5H774c0-1.4,0-2.5-0.1-3.3
				C773.6,553.2,773.2,552.1,772.5,551.1z M761.9,555c0.2-1.1,0.5-1.9,1.2-2.6c0.6-0.6,1.5-0.9,2.6-0.9c1,0,1.9,0.3,2.6,0.9
				c0.7,0.6,1.1,1.5,1.2,2.6H761.9z"/>
		</g>
	</g>
	<g id="Dribbble_6_">
		<circle class="st9" cx="627.1" cy="553.9" r="38"/>
		<g>
			<path id="Dribbble_2_" class="st4" d="M644,546.7c-0.5-1.1-1-2.1-1.7-3.1s-1.4-1.9-2.2-2.7c-0.8-0.8-1.7-1.6-2.7-2.2
				c-1-0.7-2-1.2-3.1-1.7s-2.3-0.8-3.4-1.1c-1.2-0.2-2.4-0.4-3.7-0.4c-1.2,0-2.5,0.1-3.7,0.4c-1.2,0.2-2.3,0.6-3.4,1.1
				c-1.1,0.5-2.1,1-3.1,1.7c-1,0.7-1.9,1.4-2.7,2.2c-0.8,0.8-1.6,1.7-2.2,2.7c-0.7,1-1.2,2-1.7,3.1s-0.8,2.3-1.1,3.4
				c-0.2,1.2-0.4,2.4-0.4,3.7c0,1.2,0.1,2.5,0.4,3.7c0.2,1.2,0.6,2.3,1.1,3.4s1,2.1,1.7,3.1s1.4,1.9,2.2,2.7
				c0.8,0.8,1.7,1.6,2.7,2.2c1,0.7,2,1.2,3.1,1.7s2.3,0.8,3.4,1.1c1.2,0.3,2.4,0.4,3.7,0.4c1.2,0,2.5-0.1,3.7-0.4
				c1.2-0.2,2.3-0.6,3.4-1.1c1.1-0.5,2.1-1,3.1-1.7c1-0.7,1.9-1.4,2.7-2.2c0.8-0.8,1.6-1.7,2.2-2.7c0.7-1,1.2-2,1.7-3.1
				s0.8-2.3,1.1-3.4c0.2-1.2,0.4-2.4,0.4-3.7c0-1.2-0.1-2.5-0.4-3.7C644.8,548.9,644.5,547.8,644,546.7z M627.1,538.1
				c4,0,7.6,1.5,10.3,3.9c0,0.1-2.3,3.5-8.2,5.7c-2.7-4.9-5.6-8.8-5.9-9.1C624.6,538.3,625.9,538.1,627.1,538.1z M623.4,538.6
				L623.4,538.6L623.4,538.6C623.3,538.6,623.4,538.6,623.4,538.6z M620.4,539.6c0.2,0.3,3.1,4.2,5.8,9c-7.5,2-14,1.9-14.5,1.9
				C612.8,545.7,616.1,541.7,620.4,539.6z M615.5,564.3c-2.5-2.8-4-6.4-4-10.5c0-0.2,0-0.3,0-0.5c0.3,0,8,0.2,16.1-2.2
				c0.4,0.9,0.9,1.8,1.3,2.7c-0.2,0.1-0.4,0.1-0.6,0.2C619.8,556.6,615.5,564.2,615.5,564.3C615.5,564.2,615.5,564.3,615.5,564.3z
				 M627.1,569.5c-3.7,0-7.1-1.3-9.8-3.4c-0.1,0-0.1-0.1-0.2-0.2c0.1,0.1,0.1,0.1,0.2,0.2c0.1,0.1,0.2,0.1,0.2,0.1s3-6.5,12.3-9.8
				h0.1c2.2,5.7,3.1,10.5,3.3,11.9C631.4,569,629.3,569.5,627.1,569.5z M635.9,566.8c-0.2-0.9-1-5.5-3-11.2c5.1-0.8,9.4,0.6,9.8,0.7
				C641.9,560.6,639.4,564.4,635.9,566.8z M631.9,553.1c-0.1-0.3-0.2-0.5-0.3-0.8c-0.3-0.8-0.7-1.5-1-2.3c6.2-2.5,8.7-6.2,8.7-6.2
				c2.2,2.7,3.5,6.1,3.6,9.8C642.6,553.6,637.3,552.4,631.9,553.1z"/>
		</g>
	</g>
	<g id="Facebook_5_">
		<path class="st10" d="M498.1,515.9c-21,0-38,17-38,38s17,38,38,38s38-17,38-38S519.1,515.9,498.1,515.9z M516.6,569.9
			c0,1.1-0.5,1.9-1.7,1.9h-9.3v-14h4.8l0.7-6h-5.5v-3.1c0-1.6,0.4-2.9,2.7-2.9h3.3V541c-1-0.1-2.6-0.2-4.6-0.2
			c-4.2,0-7.4,2.6-7.4,7.3v3.7h-5v6h5v14h-17.3c-1.1,0-1.7-0.7-1.7-1.9v-32.7c0-1.1,0.6-2.5,1.7-2.5H515c1.1,0,1.7,1.4,1.7,2.5v32.7
			H516.6z"/>
	</g>
	<g id="Google_x2B__4_">
		<path class="st11" d="M368.8,515.9c-21,0-38,17-38,38s17,38,38,38s38-17,38-38S389.8,515.9,368.8,515.9z M361.4,567
			c-7.1,0-12.8-5.8-12.8-12.9c0-7.1,5.7-12.9,12.8-12.9c3.3,0,6.4,1.3,8.6,3.3c-2.7,2.5-2.6,2.7-3.6,3.7c-1.3-1.1-2.8-1.9-5-1.9
			c-4.2,0-7.5,3.4-7.5,7.6s3.3,7.7,7.5,7.7s5.8-2,6.9-5c-2,0-6.8,0-6.8,0v-5h12.2C374.6,557.8,372,567,361.4,567z M388.6,554.8h-4v5
			h-3v-5h-5v-3h5v-4h3v4h4V554.8z"/>
	</g>
</g>
<g id="_x30_3-SINGLE-COLOR">
	<path id="Vimeo_4_" class="st5" d="M1283.1,410.1c-5.1-0.2-8.5,2.7-10.4,8.5c0.9-0.4,1.8-0.6,2.7-0.6c1.9,0,2.7,1,2.5,3.1
		c-0.1,1.3-0.9,3.1-2.5,5.5c-1.5,2.4-2.7,3.6-3.5,3.6c-1,0-1.9-1.8-2.7-5.5c-0.3-1.1-0.8-3.8-1.5-8.3c-0.7-4.1-2.4-6-5.3-5.8
		c-1.2,0.1-3,1.2-5.4,3.3c-1.8,1.6-3.5,3.1-5.3,4.7l1.7,2.2c1.6-1.1,2.6-1.7,2.9-1.7c1.3,0,2.4,2,3.5,5.9c1,3.6,2,7.2,3,10.7
		c1.5,3.9,3.3,5.8,5.4,5.8c3.5,0,7.7-3.2,12.7-9.6c4.8-6.1,7.3-10.9,7.5-14.5C1288.7,412.7,1286.9,410.3,1283.1,410.1z"/>
	<path id="Instagram_4_" class="st6" d="M1155.1,407.2h-27.9c-2.4,0-4.4,1.9-4.4,4.3v28c0,2.4,2,4.3,4.4,4.3h27.9
		c2.4,0,4.4-1.9,4.4-4.3v-28C1159.4,409.2,1157.5,407.2,1155.1,407.2z M1149.1,413c0-0.6,0.5-1.1,1.1-1.1h3.4c0.6,0,1.1,0.5,1.1,1.1
		v3.4c0,0.6-0.5,1.1-1.1,1.1h-3.4c-0.6,0-1.1-0.5-1.1-1.1V413z M1141.1,418.6c3.9,0,7.1,3.1,7.1,7s-3.2,7-7.1,7s-7-3.1-7-7
		S1137.2,418.6,1141.1,418.6z M1156,439.3c0,0.6-0.5,1.1-1.1,1.1h-27.5c-0.6,0-1.1-0.5-1.1-1.1v-17.2h4.6c-0.6,0.9-0.8,2.5-0.8,3.5
		c0,6.1,5,11.1,11.2,11.1s11.2-5,11.2-11.1c0-1-0.1-2.6-0.9-3.5h4.6v17.2H1156z"/>
	<path id="Twitter_4_" class="st3" d="M1030.4,410.4c-1.5,0.9-3.1,1.6-4.9,1.9c-1.4-1.5-3.4-2.5-5.6-2.5c-4.2,0-7.7,3.5-7.7,7.9
		c0,0.6,0.1,1.2,0.2,1.8c-6.4-0.3-12-3.5-15.8-8.2c-0.7,1.2-1,2.5-1,4c0,2.7,1.4,5.1,3.4,6.6c-1.3,0-2.4-0.4-3.5-1v0.1
		c0,3.8,2.6,7,6.2,7.7c-0.6,0.2-1.3,0.3-2,0.3c-0.5,0-1,0-1.4-0.1c1,3.1,3.8,5.4,7.2,5.5c-2.6,2.1-5.9,3.4-9.5,3.4
		c-0.6,0-1.2,0-1.8-0.1c3.4,2.2,7.4,3.5,11.8,3.5c14.1,0,21.9-12,21.9-22.4c0-0.3,0-0.7,0-1c1.5-1.1,2.8-2.5,3.8-4.1
		c-1.4,0.6-2.9,1.1-4.4,1.2C1028.6,413.8,1029.8,412.3,1030.4,410.4z"/>
	<g id="LinkedIn_4_">
		<rect x="867.3" y="419.9" class="st7" width="7.2" height="22.8"/>
		<path class="st7" d="M894.1,419.7c-4.1,0-6.7,2.2-7.2,3.8v-3.6h-8.1c0.1,1.9,0,22.8,0,22.8h8.1v-12.3c0-0.7,0-1.4,0.2-1.9
			c0.6-1.4,1.7-2.8,3.9-2.8c2.8,0,4.1,2.1,4.1,5.2v11.8h8.2V430C903.2,423,899.2,419.7,894.1,419.7z"/>
		<path class="st7" d="M870.7,409.2c-2.7,0-4.4,1.7-4.4,4c0,2.2,1.7,3.9,4.3,3.9h0.1c2.7,0,4.4-1.7,4.4-4
			C875,410.9,873.4,409.2,870.7,409.2z"/>
	</g>
	<g id="Behance_4_">
		<path class="st8" d="M752.4,424.6c0.8-0.4,1.3-0.8,1.7-1.3c0.7-0.8,1-1.9,1-3.3c0-1.3-0.3-2.5-1-3.4c-1.2-1.5-3.1-2.3-5.9-2.4
			h-10.9v22.3h10.2c1.2,0,2.2-0.1,3.2-0.3s1.8-0.6,2.6-1.1c0.6-0.5,1.2-1.1,1.6-1.8c0.7-1,1-2.2,1-3.6c0-1.3-0.3-2.4-0.9-3.3
			C754.4,425.7,753.6,425,752.4,424.6z M741.9,418.2h4.9c1.1,0,2,0.1,2.7,0.3c0.8,0.3,1.2,1,1.2,2.1c0,0.9-0.3,1.6-0.9,2
			c-0.6,0.4-1.4,0.6-2.4,0.6h-5.5V418.2z M749.7,432.3c-0.5,0.3-1.3,0.4-2.3,0.4h-5.5v-6h5.6c1,0,1.7,0.1,2.3,0.4
			c1,0.4,1.4,1.2,1.4,2.4C751.1,430.9,750.6,431.9,749.7,432.3z"/>
		<rect x="760.8" y="415.3" class="st8" width="9.7" height="2.8"/>
		<path class="st8" d="M772.5,422.9c-0.8-1.1-1.7-1.9-2.9-2.4s-2.5-0.8-3.9-0.8c-2.5,0-4.4,0.8-6,2.3c-1.5,1.5-2.3,3.7-2.3,6.6
			c0,3.1,0.8,5.3,2.6,6.6c1.7,1.4,3.7,2,5.9,2c2.7,0,4.8-0.8,6.3-2.4c1-1,1.5-2,1.6-3h-4.5c-0.3,0.5-0.6,0.9-0.9,1.1
			c-0.6,0.5-1.4,0.8-2.4,0.8c-0.9,0-1.7-0.2-2.4-0.6c-1.1-0.7-1.7-1.8-1.8-3.5H774c0-1.4,0-2.5-0.1-3.3
			C773.6,425,773.2,423.9,772.5,422.9z M761.9,426.7c0.2-1.1,0.5-1.9,1.2-2.6c0.6-0.6,1.5-0.9,2.6-0.9c1,0,1.9,0.3,2.6,0.9
			s1.1,1.5,1.2,2.6H761.9z"/>
	</g>
	<path id="Dribbble_4_" class="st9" d="M644,418.4c-0.5-1.1-1-2.1-1.7-3.1s-1.4-1.9-2.2-2.7s-1.7-1.6-2.7-2.2c-1-0.7-2-1.2-3.1-1.7
		s-2.3-0.8-3.4-1.1c-1.2-0.2-2.4-0.4-3.7-0.4c-1.2,0-2.5,0.1-3.7,0.4c-1.2,0.2-2.3,0.6-3.4,1.1c-1.1,0.5-2.1,1-3.1,1.7
		c-1,0.7-1.9,1.4-2.7,2.2s-1.6,1.7-2.2,2.7c-0.7,1-1.2,2-1.7,3.1c-0.5,1.1-0.8,2.3-1.1,3.4c-0.2,1.2-0.4,2.4-0.4,3.7
		c0,1.2,0.1,2.5,0.4,3.7c0.2,1.2,0.6,2.3,1.1,3.4c0.5,1.1,1,2.1,1.7,3.1s1.4,1.9,2.2,2.7s1.7,1.6,2.7,2.2c1,0.7,2,1.2,3.1,1.7
		s2.3,0.8,3.4,1.1c1.2,0.3,2.4,0.4,3.7,0.4c1.2,0,2.5-0.1,3.7-0.4c1.2-0.2,2.3-0.6,3.4-1.1c1.1-0.5,2.1-1,3.1-1.7
		c1-0.7,1.9-1.4,2.7-2.2s1.6-1.7,2.2-2.7c0.7-1,1.2-2,1.7-3.1c0.5-1.1,0.8-2.3,1.1-3.4c0.2-1.2,0.4-2.4,0.4-3.7
		c0-1.2-0.1-2.5-0.4-3.7C644.8,420.7,644.5,419.5,644,418.4z M627.1,409.9c4,0,7.6,1.5,10.3,3.9c0,0.1-2.3,3.5-8.2,5.7
		c-2.7-4.9-5.6-8.8-5.9-9.1C624.6,410.1,625.9,409.9,627.1,409.9z M623.4,410.3C623.4,410.4,623.4,410.4,623.4,410.3
		C623.4,410.4,623.4,410.4,623.4,410.3C623.3,410.4,623.4,410.4,623.4,410.3z M620.4,411.4c0.2,0.3,3.1,4.2,5.8,9
		c-7.5,2-14,1.9-14.5,1.9C612.8,417.5,616.1,413.5,620.4,411.4z M615.5,436c-2.5-2.8-4-6.4-4-10.5c0-0.2,0-0.3,0-0.5
		c0.3,0,8,0.2,16.1-2.2c0.4,0.9,0.9,1.8,1.3,2.7c-0.2,0.1-0.4,0.1-0.6,0.2C619.8,428.4,615.5,436,615.5,436L615.5,436z M627.1,441.2
		c-3.7,0-7.1-1.3-9.8-3.4c-0.1,0-0.1-0.1-0.2-0.2c0.1,0.1,0.1,0.1,0.2,0.2c0.1,0.1,0.2,0.1,0.2,0.1s3-6.5,12.3-9.8h0.1
		c2.2,5.7,3.1,10.5,3.3,11.9C631.4,440.8,629.3,441.2,627.1,441.2z M635.9,438.5c-0.2-0.9-1-5.5-3-11.2c5.1-0.8,9.4,0.6,9.8,0.7
		C641.9,432.4,639.4,436.2,635.9,438.5z M631.9,424.9c-0.1-0.3-0.2-0.5-0.3-0.8c-0.3-0.8-0.7-1.5-1-2.3c6.2-2.5,8.7-6.2,8.7-6.2
		c2.2,2.7,3.5,6.1,3.6,9.8C642.6,425.3,637.3,424.2,631.9,424.9z"/>
	<path id="Facebook_3_" class="st10" d="M516.7,441.7c0,1.1-0.9,2-2,2h-9.4v-14.2h4.8l0.7-5.5h-5.5v-3.5c0-1.6,0.4-2.7,2.7-2.7h2.9
		v-5c-0.5-0.1-2.2-0.2-4.3-0.2c-4.2,0-7.1,2.6-7.1,7.3v4.1h-4.8v5.5h4.8v14.2h-17.6c-1.1,0-2-0.9-2-2v-32.6c0-1.1,0.9-2,2-2h32.7
		c1.1,0,2,0.9,2,2L516.7,441.7L516.7,441.7z"/>
	<g id="Google_x2B__1_">
		<path class="st11" d="M361.4,423.3v5.1c0,0,4.9,0,6.9,0c-1.1,3.3-2.8,5.1-6.9,5.1c-4.2,0-7.5-3.4-7.5-7.6s3.3-7.6,7.5-7.6
			c2.2,0,3.7,0.8,5,1.9c1.1-1.1,1-1.2,3.6-3.7c-2.3-2.1-5.3-3.3-8.6-3.3c-7.1,0-12.8,5.7-12.8,12.8c0,7.1,5.7,12.8,12.8,12.8
			c10.6,0,13.2-9.2,12.3-15.4L361.4,423.3L361.4,423.3z"/>
		<polygon class="st11" points="384.5,423.6 384.5,419.1 381.4,419.1 381.4,423.6 376.8,423.6 376.8,426.7 381.4,426.7 381.4,431.3 
			384.5,431.3 384.5,426.7 389,426.7 389,423.6 		"/>
	</g>
</g>
<g id="Vimeo_7_">
	<g id="Vimeo_1_">
		<path class="st5" d="M1283.1,280.4c-5.1-0.2-8.5,2.7-10.4,8.5c0.9-0.4,1.8-0.6,2.7-0.6c1.9,0,2.7,1,2.5,3.1
			c-0.1,1.3-0.9,3.1-2.5,5.5c-1.5,2.4-2.7,3.6-3.5,3.6c-1,0-1.9-1.8-2.7-5.5c-0.3-1.1-0.8-3.8-1.5-8.3c-0.7-4.1-2.4-6-5.3-5.8
			c-1.2,0.1-3,1.2-5.4,3.3c-1.8,1.6-3.5,3.1-5.3,4.7l1.7,2.2c1.6-1.1,2.6-1.7,2.9-1.7c1.3,0,2.4,2,3.5,5.9c1,3.6,2,7.2,3,10.7
			c1.5,3.9,3.3,5.8,5.4,5.8c3.5,0,7.7-3.2,12.7-9.6c4.8-6.1,7.3-10.9,7.5-14.5C1288.7,282.9,1286.9,280.5,1283.1,280.4z"/>
	</g>
	<path class="st5" d="M1270.1,335.4c-21.8,0-39.5-17.7-39.5-39.5c0-21.8,17.7-39.5,39.5-39.5s39.5,17.7,39.5,39.5
		C1309.6,317.7,1291.9,335.4,1270.1,335.4z M1270.1,259.4c-20.1,0-36.5,16.4-36.5,36.5c0,20.1,16.4,36.5,36.5,36.5
		s36.5-16.4,36.5-36.5C1306.6,275.8,1290.2,259.4,1270.1,259.4z"/>
</g>
<g id="Instagram_7_">
	<path id="Instagram_1_" class="st6" d="M1155.1,277.5h-27.9c-2.4,0-4.4,1.9-4.4,4.3v28c0,2.4,2,4.3,4.4,4.3h27.9
		c2.4,0,4.4-1.9,4.4-4.3v-28C1159.4,279.4,1157.5,277.5,1155.1,277.5z M1149.1,283.2c0-0.6,0.5-1.1,1.1-1.1h3.4
		c0.6,0,1.1,0.5,1.1,1.1v3.4c0,0.6-0.5,1.1-1.1,1.1h-3.4c-0.6,0-1.1-0.5-1.1-1.1V283.2z M1141.1,288.8c3.9,0,7.1,3.1,7.1,7
		s-3.2,7-7.1,7s-7-3.1-7-7C1134.1,292,1137.2,288.8,1141.1,288.8z M1156,309.5c0,0.6-0.5,1.1-1.1,1.1h-27.5c-0.6,0-1.1-0.5-1.1-1.1
		v-17.2h4.6c-0.6,0.9-0.8,2.5-0.8,3.5c0,6.1,5,11.1,11.2,11.1s11.2-5,11.2-11.1c0-1-0.1-2.6-0.9-3.5h4.6v17.2H1156z"/>
	<path class="st6" d="M1140.1,335.4c-21.8,0-39.5-17.7-39.5-39.5c0-21.8,17.7-39.5,39.5-39.5s39.5,17.7,39.5,39.5
		C1179.6,317.7,1161.9,335.4,1140.1,335.4z M1140.1,259.4c-20.1,0-36.5,16.4-36.5,36.5c0,20.1,16.4,36.5,36.5,36.5
		s36.5-16.4,36.5-36.5C1176.6,275.8,1160.2,259.4,1140.1,259.4z"/>
</g>
<g id="Twitter_7_">
	<path id="Twitter_1_" class="st3" d="M1030.4,280.7c-1.5,0.9-3.1,1.6-4.9,1.9c-1.4-1.5-3.4-2.5-5.6-2.5c-4.2,0-7.7,3.5-7.7,7.9
		c0,0.6,0.1,1.2,0.2,1.8c-6.4-0.3-12-3.5-15.8-8.2c-0.7,1.2-1,2.5-1,4c0,2.7,1.4,5.1,3.4,6.6c-1.3,0-2.4-0.4-3.5-1v0.1
		c0,3.8,2.6,7,6.2,7.7c-0.6,0.2-1.3,0.3-2,0.3c-0.5,0-1,0-1.4-0.1c1,3.1,3.8,5.4,7.2,5.5c-2.6,2.1-5.9,3.4-9.5,3.4
		c-0.6,0-1.2,0-1.8-0.1c3.4,2.2,7.4,3.5,11.8,3.5c14.1,0,21.9-12,21.9-22.4c0-0.3,0-0.7,0-1c1.5-1.1,2.8-2.5,3.8-4.1
		c-1.4,0.6-2.9,1.1-4.4,1.2C1028.6,284,1029.8,282.5,1030.4,280.7z"/>
	<path class="st3" d="M1013.1,335.4c-21.8,0-39.5-17.7-39.5-39.5c0-21.8,17.7-39.5,39.5-39.5s39.5,17.7,39.5,39.5
		C1052.6,317.7,1034.9,335.4,1013.1,335.4z M1013.1,259.4c-20.1,0-36.5,16.4-36.5,36.5c0,20.1,16.4,36.5,36.5,36.5
		s36.5-16.4,36.5-36.5C1049.6,275.8,1033.2,259.4,1013.1,259.4z"/>
</g>
<g id="LinKeDin_2_">
	<g id="LinkedIn_1_">
		<rect x="-206.5" y="277.9" class="st7" width="3.6" height="11.3"/>
		<path class="st7" d="M-193.3,277.7c-2,0-3.3,1.1-3.6,1.9v-1.8h-4c0,0.9,0,11.3,0,11.3h4V283c0-0.3,0-0.7,0.1-0.9
			c0.3-0.7,0.8-1.4,1.9-1.4c1.4,0,2,1,2,2.6v5.8h4.1v-6.3C-188.7,279.4-190.7,277.7-193.3,277.7z"/>
		<path class="st7" d="M-204.8,272.5c-1.3,0-2.2,0.8-2.2,2c0,1.1,0.8,1.9,2.1,1.9h0c1.3,0,2.2-0.8,2.2-2
			C-202.7,273.4-203.5,272.5-204.8,272.5z"/>
	</g>
	<path class="st7" d="M-198.2,300.3c-10.8,0-19.6-8.8-19.6-19.6s8.8-19.6,19.6-19.6s19.6,8.8,19.6,19.6
		C-178.6,291.5-187.4,300.3-198.2,300.3z M-198.2,262.6c-9.9,0-18.1,8.1-18.1,18.1s8.1,18.1,18.1,18.1s18.1-8.1,18.1-18.1
		S-188.3,262.6-198.2,262.6z"/>
</g>
<g id="Behance_7_">
	<g id="Behance_1_">
		<path class="st8" d="M752.4,294.9c0.8-0.4,1.3-0.8,1.7-1.3c0.7-0.8,1-1.9,1-3.3c0-1.3-0.3-2.5-1-3.4c-1.2-1.5-3.1-2.3-5.9-2.4
			h-10.9v22.3h10.2c1.2,0,2.2-0.1,3.2-0.3c1-0.2,1.8-0.6,2.6-1.1c0.6-0.5,1.2-1.1,1.6-1.8c0.7-1,1-2.2,1-3.6c0-1.3-0.3-2.4-0.9-3.3
			C754.4,295.9,753.6,295.3,752.4,294.9z M741.9,288.4h4.9c1.1,0,2,0.1,2.7,0.3c0.8,0.3,1.2,1,1.2,2.1c0,0.9-0.3,1.6-0.9,2
			c-0.6,0.4-1.4,0.6-2.4,0.6h-5.5V288.4z M749.7,302.6c-0.5,0.3-1.3,0.4-2.3,0.4h-5.5v-6h5.6c1,0,1.7,0.1,2.3,0.4
			c1,0.4,1.4,1.2,1.4,2.4C751.1,301.2,750.6,302.1,749.7,302.6z"/>
		<rect x="760.8" y="285.6" class="st8" width="9.7" height="2.8"/>
		<path class="st8" d="M772.5,293.1c-0.8-1.1-1.7-1.9-2.9-2.4s-2.5-0.8-3.9-0.8c-2.5,0-4.4,0.8-6,2.3c-1.5,1.5-2.3,3.7-2.3,6.6
			c0,3.1,0.8,5.3,2.6,6.6c1.7,1.4,3.7,2,5.9,2c2.7,0,4.8-0.8,6.3-2.4c1-1,1.5-2,1.6-3h-4.5c-0.3,0.5-0.6,0.9-0.9,1.1
			c-0.6,0.5-1.4,0.8-2.4,0.8c-0.9,0-1.7-0.2-2.4-0.6c-1.1-0.7-1.7-1.8-1.8-3.5H774c0-1.4,0-2.5-0.1-3.3
			C773.6,295.2,773.2,294.1,772.5,293.1z M761.9,297c0.2-1.1,0.5-1.9,1.2-2.6c0.6-0.6,1.5-0.9,2.6-0.9c1,0,1.9,0.3,2.6,0.9
			c0.7,0.6,1.1,1.5,1.2,2.6H761.9z"/>
	</g>
	<path class="st8" d="M755.1,335.4c-21.8,0-39.5-17.7-39.5-39.5c0-21.8,17.7-39.5,39.5-39.5c21.8,0,39.5,17.7,39.5,39.5
		C794.6,317.7,776.9,335.4,755.1,335.4z M755.1,259.4c-20.1,0-36.5,16.4-36.5,36.5c0,20.1,16.4,36.5,36.5,36.5s36.5-16.4,36.5-36.5
		C791.6,275.8,775.2,259.4,755.1,259.4z"/>
</g>
<g id="Dribbble_7_">
	<g>
		<path id="Dribbble_1_" class="st9" d="M644,288.7c-0.5-1.1-1-2.1-1.7-3.1s-1.4-1.9-2.2-2.7c-0.8-0.8-1.7-1.6-2.7-2.2
			c-1-0.7-2-1.2-3.1-1.7s-2.3-0.8-3.4-1.1c-1.2-0.2-2.4-0.4-3.7-0.4c-1.2,0-2.5,0.1-3.7,0.4c-1.2,0.2-2.3,0.6-3.4,1.1
			c-1.1,0.5-2.1,1-3.1,1.7s-1.9,1.4-2.7,2.2c-0.8,0.8-1.6,1.7-2.2,2.7c-0.7,1-1.2,2-1.7,3.1s-0.8,2.3-1.1,3.4
			c-0.2,1.2-0.4,2.4-0.4,3.7c0,1.2,0.1,2.5,0.4,3.7c0.2,1.2,0.6,2.3,1.1,3.4c0.5,1.1,1,2.1,1.7,3.1s1.4,1.9,2.2,2.7s1.7,1.6,2.7,2.2
			c1,0.7,2,1.2,3.1,1.7s2.3,0.8,3.4,1.1c1.2,0.3,2.4,0.4,3.7,0.4c1.2,0,2.5-0.1,3.7-0.4c1.2-0.2,2.3-0.6,3.4-1.1
			c1.1-0.5,2.1-1,3.1-1.7c1-0.7,1.9-1.4,2.7-2.2s1.6-1.7,2.2-2.7c0.7-1,1.2-2,1.7-3.1c0.5-1.1,0.8-2.3,1.1-3.4
			c0.2-1.2,0.4-2.4,0.4-3.7c0-1.2-0.1-2.5-0.4-3.7C644.8,290.9,644.5,289.8,644,288.7z M627.1,280.1c4,0,7.6,1.5,10.3,3.9
			c0,0.1-2.3,3.5-8.2,5.7c-2.7-4.9-5.6-8.8-5.9-9.1C624.6,280.3,625.9,280.1,627.1,280.1z M623.4,280.6L623.4,280.6L623.4,280.6
			C623.3,280.6,623.4,280.6,623.4,280.6z M620.4,281.6c0.2,0.3,3.1,4.2,5.8,9c-7.5,2-14,1.9-14.5,1.9
			C612.8,287.7,616.1,283.7,620.4,281.6z M615.5,306.3c-2.5-2.8-4-6.4-4-10.5c0-0.2,0-0.3,0-0.5c0.3,0,8,0.2,16.1-2.2
			c0.4,0.9,0.9,1.8,1.3,2.7c-0.2,0.1-0.4,0.1-0.6,0.2C619.8,298.6,615.5,306.2,615.5,306.3C615.5,306.2,615.5,306.3,615.5,306.3z
			 M627.1,311.5c-3.7,0-7.1-1.3-9.8-3.4c-0.1,0-0.1-0.1-0.2-0.2c0.1,0.1,0.1,0.1,0.2,0.2c0.1,0.1,0.2,0.1,0.2,0.1s3-6.5,12.3-9.8
			h0.1c2.2,5.7,3.1,10.5,3.3,11.9C631.4,311,629.3,311.5,627.1,311.5z M635.9,308.8c-0.2-0.9-1-5.5-3-11.2c5.1-0.8,9.4,0.6,9.8,0.7
			C641.9,302.6,639.4,306.4,635.9,308.8z M631.9,295.1c-0.1-0.3-0.2-0.5-0.3-0.8c-0.3-0.8-0.7-1.5-1-2.3c6.2-2.5,8.7-6.2,8.7-6.2
			c2.2,2.7,3.5,6.1,3.6,9.8C642.6,295.6,637.3,294.4,631.9,295.1z"/>
	</g>
	<path class="st9" d="M627.1,335.4c-21.8,0-39.5-17.7-39.5-39.5c0-21.8,17.7-39.5,39.5-39.5s39.5,17.7,39.5,39.5
		C666.6,317.7,648.9,335.4,627.1,335.4z M627.1,259.4c-20.1,0-36.5,16.4-36.5,36.5c0,20.1,16.4,36.5,36.5,36.5s36.5-16.4,36.5-36.5
		C663.6,275.8,647.2,259.4,627.1,259.4z"/>
</g>
<g id="Facebook_6_">
	<path class="st10" d="M499.1,334.4c-21.8,0-39.5-17.7-39.5-39.5c0-21.8,17.7-39.5,39.5-39.5s39.5,17.7,39.5,39.5
		C538.6,316.7,520.9,334.4,499.1,334.4z M499.1,258.4c-20.1,0-36.5,16.4-36.5,36.5c0,20.1,16.4,36.5,36.5,36.5s36.5-16.4,36.5-36.5
		C535.6,274.8,519.2,258.4,499.1,258.4z"/>
	<path id="Facebook_1_" class="st10" d="M517.2,310.5c0,1.1-0.9,2-2,2h-9.4v-14.2h4.8l0.7-5.5h-5.5v-3.5c0-1.6,0.4-2.7,2.7-2.7h2.9
		v-5c-0.5-0.1-2.2-0.2-4.3-0.2c-4.2,0-7.1,2.6-7.1,7.3v4.1h-4.8v5.5h4.8v14.2h-17.6c-1.1,0-2-0.9-2-2v-32.7c0-1.1,0.9-2,2-2h32.7
		c1.1,0,2,0.9,2,2L517.2,310.5L517.2,310.5z"/>
</g>
<g id="Google_x2B__5_">
	<path class="st11" d="M369.1,334.4c-21.8,0-39.5-17.7-39.5-39.5c0-21.8,17.7-39.5,39.5-39.5s39.5,17.7,39.5,39.5
		C408.6,316.7,390.9,334.4,369.1,334.4z M369.1,258.4c-20.1,0-36.5,16.4-36.5,36.5c0,20.1,16.4,36.5,36.5,36.5s36.5-16.4,36.5-36.5
		C405.6,274.8,389.2,258.4,369.1,258.4z"/>
	<path class="st11" d="M361.4,292v5.1c0,0,4.9,0,6.9,0c-1.1,3.3-2.8,5.1-6.9,5.1c-4.2,0-7.5-3.4-7.5-7.6c0-4.2,3.3-7.6,7.5-7.6
		c2.2,0,3.7,0.8,5,1.9c1.1-1.1,1-1.2,3.6-3.7c-2.3-2.1-5.3-3.3-8.6-3.3c-7.1,0-12.8,5.7-12.8,12.8s5.7,12.8,12.8,12.8
		c10.6,0,13.2-9.2,12.3-15.4L361.4,292L361.4,292z"/>
	<polygon class="st11" points="384.5,292.3 384.5,287.8 381.4,287.8 381.4,292.3 376.8,292.3 376.8,295.5 381.4,295.5 381.4,300 
		384.5,300 384.5,295.5 389,295.5 389,292.3 	"/>
</g>
<g id="_x30_1-SINGLE-GREY">
	<path id="Vimeo" class="st2" d="M1283.1,151.1c-5.1-0.2-8.5,2.7-10.4,8.5c0.9-0.4,1.8-0.6,2.7-0.6c1.9,0,2.7,1,2.5,3.1
		c-0.1,1.3-0.9,3.1-2.5,5.5c-1.5,2.4-2.7,3.6-3.5,3.6c-1,0-1.9-1.8-2.7-5.5c-0.3-1.1-0.8-3.8-1.5-8.3c-0.7-4.1-2.4-6-5.3-5.8
		c-1.2,0.1-3,1.2-5.4,3.3c-1.8,1.6-3.5,3.1-5.3,4.7l1.7,2.2c1.6-1.1,2.6-1.7,2.9-1.7c1.3,0,2.4,2,3.5,5.9c1,3.6,2,7.2,3,10.7
		c1.5,3.9,3.3,5.8,5.4,5.8c3.5,0,7.7-3.2,12.7-9.6c4.8-6.1,7.3-10.9,7.5-14.5C1288.7,153.7,1286.9,151.3,1283.1,151.1z"/>
	<path id="Instagram" class="st2" d="M1155.1,148.2h-27.9c-2.4,0-4.4,1.9-4.4,4.3v28c0,2.4,2,4.3,4.4,4.3h27.9
		c2.4,0,4.4-1.9,4.4-4.3v-28C1159.4,150.2,1157.5,148.2,1155.1,148.2z M1149.1,154c0-0.6,0.5-1.1,1.1-1.1h3.4c0.6,0,1.1,0.5,1.1,1.1
		v3.4c0,0.6-0.5,1.1-1.1,1.1h-3.4c-0.6,0-1.1-0.5-1.1-1.1V154z M1141.1,159.6c3.9,0,7.1,3.1,7.1,7c0,3.9-3.2,7-7.1,7s-7-3.1-7-7
		C1134.1,162.7,1137.2,159.6,1141.1,159.6z M1156,180.3c0,0.6-0.5,1.1-1.1,1.1h-27.5c-0.6,0-1.1-0.5-1.1-1.1v-17.2h4.6
		c-0.6,0.9-0.8,2.5-0.8,3.5c0,6.1,5,11.1,11.2,11.1s11.2-5,11.2-11.1c0-1-0.1-2.6-0.9-3.5h4.6v17.2
		C1156.2,180.3,1156,180.3,1156,180.3z"/>
	<path id="Twitter" class="st2" d="M1030.4,151.4c-1.5,0.9-3.1,1.6-4.9,1.9c-1.4-1.5-3.4-2.5-5.6-2.5c-4.2,0-7.7,3.5-7.7,7.9
		c0,0.6,0.1,1.2,0.2,1.8c-6.4-0.3-12-3.5-15.8-8.2c-0.7,1.2-1,2.5-1,4c0,2.7,1.4,5.1,3.4,6.6c-1.3,0-2.4-0.4-3.5-1v0.1
		c0,3.8,2.6,7,6.2,7.7c-0.6,0.2-1.3,0.3-2,0.3c-0.5,0-1,0-1.4-0.1c1,3.1,3.8,5.4,7.2,5.5c-2.6,2.1-5.9,3.4-9.5,3.4
		c-0.6,0-1.2,0-1.8-0.1c3.4,2.2,7.4,3.5,11.8,3.5c14.1,0,21.9-12,21.9-22.4c0-0.3,0-0.7,0-1c1.5-1.1,2.8-2.5,3.8-4.1
		c-1.4,0.6-2.9,1.1-4.4,1.2C1028.6,154.8,1029.8,153.3,1030.4,151.4z"/>
	<g id="LinkedIn">
		<rect x="867.3" y="160.9" class="st2" width="7.2" height="22.8"/>
		<path class="st2" d="M894.1,160.7c-4.1,0-6.7,2.2-7.2,3.8v-3.6h-8.1c0.1,1.9,0,22.8,0,22.8h8.1v-12.3c0-0.7,0-1.4,0.2-1.9
			c0.6-1.4,1.7-2.8,3.9-2.8c2.8,0,4.1,2.1,4.1,5.2v11.8h8.2V171C903.2,164,899.2,160.7,894.1,160.7z"/>
		<path class="st2" d="M870.7,150.2c-2.7,0-4.4,1.7-4.4,4c0,2.2,1.7,3.9,4.3,3.9h0.1c2.7,0,4.4-1.7,4.4-4
			C875,151.9,873.4,150.2,870.7,150.2z"/>
	</g>
	<g id="Behance">
		<path class="st2" d="M752.4,165.6c0.8-0.4,1.3-0.8,1.7-1.3c0.7-0.8,1-1.9,1-3.3c0-1.3-0.3-2.5-1-3.4c-1.2-1.5-3.1-2.3-5.9-2.4
			h-10.9v22.3h10.2c1.2,0,2.2-0.1,3.2-0.3s1.8-0.6,2.6-1.1c0.6-0.5,1.2-1.1,1.6-1.8c0.7-1,1-2.2,1-3.6c0-1.3-0.3-2.4-0.9-3.3
			C754.4,166.7,753.6,166,752.4,165.6z M741.9,159.2h4.9c1.1,0,2,0.1,2.7,0.3c0.8,0.3,1.2,1,1.2,2.1c0,0.9-0.3,1.6-0.9,2
			c-0.6,0.4-1.4,0.6-2.4,0.6h-5.5V159.2z M749.7,173.3c-0.5,0.3-1.3,0.4-2.3,0.4h-5.5v-6h5.6c1,0,1.7,0.1,2.3,0.4
			c1,0.4,1.4,1.2,1.4,2.4C751.1,171.9,750.6,172.9,749.7,173.3z"/>
		<rect x="760.8" y="156.3" class="st2" width="9.7" height="2.8"/>
		<path class="st2" d="M772.5,163.9c-0.8-1.1-1.7-1.9-2.9-2.4s-2.5-0.8-3.9-0.8c-2.5,0-4.4,0.8-6,2.3c-1.5,1.5-2.3,3.7-2.3,6.6
			c0,3.1,0.8,5.3,2.6,6.6c1.7,1.4,3.7,2,5.9,2c2.7,0,4.8-0.8,6.3-2.4c1-1,1.5-2,1.6-3h-4.5c-0.3,0.5-0.6,0.9-0.9,1.1
			c-0.6,0.5-1.4,0.8-2.4,0.8c-0.9,0-1.7-0.2-2.4-0.6c-1.1-0.7-1.7-1.8-1.8-3.5H774c0-1.4,0-2.5-0.1-3.3
			C773.6,166,773.2,164.9,772.5,163.9z M761.9,167.7c0.2-1.1,0.5-1.9,1.2-2.6c0.6-0.6,1.5-0.9,2.6-0.9c1,0,1.9,0.3,2.6,0.9
			c0.7,0.6,1.1,1.5,1.2,2.6H761.9z"/>
	</g>
	<path id="Dribbble" class="st2" d="M644,159.4c-0.5-1.1-1-2.1-1.7-3.1s-1.4-1.9-2.2-2.7c-0.8-0.8-1.7-1.6-2.7-2.2
		c-1-0.7-2-1.2-3.1-1.7s-2.3-0.8-3.4-1.1c-1.2-0.2-2.4-0.4-3.7-0.4c-1.2,0-2.5,0.1-3.7,0.4c-1.2,0.2-2.3,0.6-3.4,1.1
		c-1.1,0.5-2.1,1-3.1,1.7c-1,0.7-1.9,1.4-2.7,2.2c-0.8,0.8-1.6,1.7-2.2,2.7c-0.7,1-1.2,2-1.7,3.1s-0.8,2.3-1.1,3.4
		c-0.2,1.2-0.4,2.4-0.4,3.7c0,1.2,0.1,2.5,0.4,3.7c0.2,1.2,0.6,2.3,1.1,3.4s1,2.1,1.7,3.1s1.4,1.9,2.2,2.7c0.8,0.8,1.7,1.6,2.7,2.2
		c1,0.7,2,1.2,3.1,1.7s2.3,0.8,3.4,1.1c1.2,0.3,2.4,0.4,3.7,0.4c1.2,0,2.5-0.1,3.7-0.4c1.2-0.2,2.3-0.6,3.4-1.1
		c1.1-0.5,2.1-1,3.1-1.7c1-0.7,1.9-1.4,2.7-2.2c0.8-0.8,1.6-1.7,2.2-2.7c0.7-1,1.2-2,1.7-3.1s0.8-2.3,1.1-3.4
		c0.2-1.2,0.4-2.4,0.4-3.7c0-1.2-0.1-2.5-0.4-3.7C644.8,161.7,644.5,160.5,644,159.4z M627.1,150.9c4,0,7.6,1.5,10.3,3.9
		c0,0.1-2.3,3.5-8.2,5.7c-2.7-4.9-5.6-8.8-5.9-9.1C624.6,151.1,625.9,150.9,627.1,150.9z M623.4,151.3
		C623.4,151.4,623.4,151.4,623.4,151.3C623.4,151.4,623.4,151.4,623.4,151.3C623.3,151.4,623.4,151.4,623.4,151.3z M620.4,152.4
		c0.2,0.3,3.1,4.2,5.8,9c-7.5,2-14,1.9-14.5,1.9C612.8,158.5,616.1,154.5,620.4,152.4z M615.5,177c-2.5-2.8-4-6.4-4-10.5
		c0-0.2,0-0.3,0-0.5c0.3,0,8,0.2,16.1-2.2c0.4,0.9,0.9,1.8,1.3,2.7c-0.2,0.1-0.4,0.1-0.6,0.2C619.8,169.4,615.5,177,615.5,177
		L615.5,177z M627.1,182.2c-3.7,0-7.1-1.3-9.8-3.4c-0.1,0-0.1-0.1-0.2-0.2c0.1,0.1,0.1,0.1,0.2,0.2c0.1,0.1,0.2,0.1,0.2,0.1
		s3-6.5,12.3-9.8h0.1c2.2,5.7,3.1,10.5,3.3,11.9C631.4,181.8,629.3,182.2,627.1,182.2z M635.9,179.5c-0.2-0.9-1-5.5-3-11.2
		c5.1-0.8,9.4,0.6,9.8,0.7C641.9,173.4,639.4,177.2,635.9,179.5z M631.9,165.9c-0.1-0.3-0.2-0.5-0.3-0.8c-0.3-0.8-0.7-1.5-1-2.3
		c6.2-2.5,8.7-6.2,8.7-6.2c2.2,2.7,3.5,6.1,3.6,9.8C642.6,166.3,637.3,165.2,631.9,165.9z"/>
	<path id="Facebook" class="st2" d="M516.7,182.7c0,1.1-0.9,2-2,2h-9.4v-14.2h4.8l0.7-5.5h-5.5v-3.5c0-1.6,0.4-2.7,2.7-2.7h2.9v-5
		c-0.5-0.1-2.2-0.2-4.3-0.2c-4.2,0-7.1,2.6-7.1,7.3v4.1h-4.8v5.5h4.8v14.2h-17.6c-1.1,0-2-0.9-2-2v-32.6c0-1.1,0.9-2,2-2h32.7
		c1.1,0,2,0.9,2,2L516.7,182.7L516.7,182.7z"/>
	<g id="Google_x2B_">
		<path class="st2" d="M361.4,164.3v5.1c0,0,4.9,0,6.9,0c-1.1,3.3-2.8,5.1-6.9,5.1c-4.2,0-7.5-3.4-7.5-7.6s3.3-7.6,7.5-7.6
			c2.2,0,3.7,0.8,5,1.9c1.1-1.1,1-1.2,3.6-3.7c-2.3-2.1-5.3-3.3-8.6-3.3c-7.1,0-12.8,5.7-12.8,12.8s5.7,12.8,12.8,12.8
			c10.6,0,13.2-9.2,12.3-15.4h-12.3V164.3z"/>
		<polygon class="st2" points="384.5,164.6 384.5,160.1 381.4,160.1 381.4,164.6 376.8,164.6 376.8,167.7 381.4,167.7 381.4,172.3 
			384.5,172.3 384.5,167.7 389,167.7 389,164.6 		"/>
	</g>
</g>
</svg>
