<?xml version="1.0" encoding="utf-8"?>
<!-- Generator: Adobe Illustrator 19.1.0, SVG Export Plug-In . SVG Version: 6.00 Build 0)  -->
<!DOCTYPE svg PUBLIC "-//W3C//DTD SVG 1.1//EN" "http://www.w3.org/Graphics/SVG/1.1/DTD/svg11.dtd">
<svg version="1.1" id="Layer_1" xmlns="http://www.w3.org/2000/svg" xmlns:xlink="http://www.w3.org/1999/xlink" x="0px" y="0px"
	 width="18px" height="27px" viewBox="0 0 18 27" style="enable-background:new 0 0 18 27;" xml:space="preserve">
<style type="text/css">
	.st0{fill:#B70F67;}
</style>
<g>
	<path class="st0" d="M3.9,0.2L0.4,2C0.3,2,0.2,2.1,0.2,2.2V19c0,0,0,0,0,0.1c0.2,0.6,3.4,9.4,12.5,5.8c0.1,0,0.1-0.1,0.1-0.2v-3.5
		c0-0.2-0.2-0.3-0.4-0.2c-1.2,1-5,3.4-8.3-2.3c0,0,0-0.1,0-0.1V0.4C4.2,0.2,4,0.1,3.9,0.2z"/>
	<path class="st0" d="M5.4,7.8v4.3c0,0.2,0.2,0.3,0.4,0.2c1.2-1,5.4-3.9,8.2,2.4c0,0,0,0.1,0,0.1l0.1,11.5c0,0.2,0.2,0.3,0.3,0.2
		l3.3-2.1c0.1,0,0.1-0.1,0.1-0.2V13.7c0,0,0,0,0,0c-0.1-0.5-2.3-10-12.3-6C5.5,7.7,5.4,7.8,5.4,7.8z"/>
</g>
</svg>
